<?xml version="1.0" standalone="no"?>
<!DOCTYPE svg PUBLIC "-//W3C//DTD SVG 1.1//EN" "http://www.w3.org/Graphics/SVG/1.1/DTD/svg11.dtd" >
<svg xmlns="http://www.w3.org/2000/svg">
<metadata></metadata>
<defs>
<font id="masala_otbold" horiz-adv-x="550" >
<font-face units-per-em="1000" ascent="749" descent="-251" />
<missing-glyph horiz-adv-x="190" />
<glyph unicode="ffj" horiz-adv-x="848" d="M636 -44v408h-129v-230q0 -94 11 -124q-44 -20 -84 -20q-42 0 -62 14t-20 46v314h-129v-230q0 -94 11 -124q-44 -20 -84 -20q-42 0 -62 14t-20 46v314h-54q-4 13 -4 33q0 51 22 73h36q7 103 70 171t152 68q49 0 76 -22q3 -13 3 -30q0 -48 -19 -86q-22 9 -52 9 q-27 0 -45 -6q-30 -32 -30 -104h129q7 114 73 187.5t168 73.5q64 0 95 -28q17 5 33 5q37 0 57.5 -21t20.5 -55q0 -87 -89 -87q-32 0 -52 16.5t-24 44.5q-9 2 -31 2q-37 0 -61 -9q-35 -31 -35 -129h267q12 -9 17 -24v-507q0 -86 -45 -137t-98 -51q-71 0 -87 74q75 18 75 131z " />
<glyph unicode="fj" horiz-adv-x="564" d="M352 -44v408h-129v-230q0 -94 11 -124q-44 -20 -84 -20q-42 0 -62 14t-20 46v314h-54q-4 13 -4 33q0 51 22 73h36q7 114 73 187.5t168 73.5q64 0 95 -28q17 5 33 5q37 0 57.5 -21t20.5 -55q0 -87 -89 -87q-32 0 -52 16.5t-24 44.5q-9 2 -31 2q-37 0 -61 -9 q-35 -31 -35 -129h267q12 -9 17 -24v-507q0 -86 -45 -137t-98 -51q-71 0 -87 74q75 18 75 131z" />
<glyph unicode="ft" horiz-adv-x="629" d="M617 108v-10q0 -47 -32 -77.5t-91 -30.5q-137 0 -137 147v227h-134v-230q0 -94 11 -124q-44 -20 -84 -20q-42 0 -62 14t-20 46v314h-54q-4 13 -4 33q0 51 22 73h36q5 104 66.5 171.5t152.5 67.5q48 0 69 -18q3 -10 3 -31q0 -50 -18 -86q-18 6 -43 6q-27 0 -45 -6 q-30 -32 -30 -104h134v65q47 66 115 66q26 0 43 -10l-6 -121h105q5 -25 5 -44q0 -43 -21 -62h-86v-207q0 -30 14 -43.5t48 -13.5q27 0 43 8z" />
<glyph unicode="&#xd;" horiz-adv-x="190" />
<glyph unicode=" "  horiz-adv-x="190" />
<glyph unicode="&#x09;" horiz-adv-x="190" />
<glyph unicode="&#xa0;" horiz-adv-x="190" />
<glyph unicode="!" horiz-adv-x="341" d="M248 75q0 -39 -21.5 -62t-63.5 -23q-34 0 -54 20t-20 53q0 38 22 62t63 24q35 0 54.5 -20.5t19.5 -53.5zM111 295l-11 248q-4 98 -20 141q53 25 117 25q44 0 65 -24l-40 -437q-24 -19 -50 -19q-30 0 -45 15t-16 51z" />
<glyph unicode="&#x22;" horiz-adv-x="373" d="M229 459l-30 211q0 29 28 29h130l-29 -217q-4 -33 -49 -33q-27 0 -50 10zM49 459l-30 211q0 29 28 29h130l-30 -217q-4 -33 -48 -33q-27 0 -50 10z" />
<glyph unicode="#" d="M119 525l84 6l48 164q23 14 45 14q25 0 32 -17l-46 -156l91 6l46 153q21 14 44 14q26 0 33 -17l-43 -144l71 5q6 -19 6 -35q0 -48 -44 -83l-68 -8l-31 -106l84 6q5 -16 5 -35q0 -48 -44 -83l-81 -9l-57 -196q-22 -14 -46 -14q-27 0 -31 17l54 184l-93 -10l-52 -177 q-20 -14 -45 -14q-26 0 -32 17l49 166l-72 -8q-5 16 -5 39q0 59 45 95l70 5l29 96l-85 -9q-6 19 -6 39q0 58 45 95zM245 408l-30 -99l92 7l30 102z" />
<glyph unicode="$" d="M484 810l-54 -136q21 -7 38 -16q7 -18 7 -45q0 -43 -16 -78q-27 15 -76 20l-54 -138q36 -14 59.5 -26.5t51 -34t41.5 -53.5t14 -74q0 -97 -72.5 -157t-193.5 -60q-33 0 -58 3l-51 -129q-13 -5 -28 -5q-13 0 -26 5l56 141q-59 23 -59 90q0 35 10 68q28 -30 94 -42l57 143 q-37 14 -60.5 25.5t-51.5 33t-42 52.5t-14 72q0 98 73 158t202 60q25 0 49 -3l50 126q13 5 28 5q13 0 26 -5zM335 207q0 21 -16.5 34.5t-48.5 26.5l-50 -130h15q54 0 77 17t23 52zM215 492q0 -19 16.5 -31.5t50.5 -25.5l49 124h-17q-99 0 -99 -67z" />
<glyph unicode="%" horiz-adv-x="780" d="M195 339q-76 0 -119 42.5t-43 126.5q0 83 45 129t116 46q76 0 119 -42.5t43 -126.5q0 -83 -45 -129t-116 -46zM195 425q55 0 55 90q0 43 -13 62t-43 19q-54 0 -54 -89q0 -43 12.5 -62.5t42.5 -19.5zM585 17q-76 0 -119 42.5t-43 126.5q0 83 45 129t116 46q77 0 120 -42.5 t43 -126.5q0 -83 -45 -129t-117 -46zM585 103q55 0 55 90q0 43 -13 62t-43 19q-54 0 -54 -90q0 -43 12.5 -62t42.5 -19zM151 13l397 676q16 20 39 20q20 0 41 -23l-397 -676q-16 -20 -39 -20q-20 0 -41 23z" />
<glyph unicode="&#x26;" horiz-adv-x="712" d="M547 -43q0 32 -61 103q-107 -70 -213 -70q-114 0 -179.5 50.5t-65.5 145.5q0 129 131 237q-19 39 -19 83q0 88 62 145.5t157 57.5q82 0 123 -31q4 -13 4 -35q0 -47 -23 -84q-30 21 -85 21q-39 0 -60 -18.5t-21 -49.5q0 -32 38 -75q24 -27 96 -96.5t83 -80.5q27 48 27 89 q0 46 -30 70q13 21 36.5 35t51.5 14q84 0 84 -106q0 -92 -77 -191q70 -76 70 -125q0 -40 -35 -64t-94 -25zM231 325q-50 -56 -50 -111q0 -46 30.5 -72.5t88.5 -26.5q52 0 104 32q-3 3 -173 178z" />
<glyph unicode="'" horiz-adv-x="192" d="M49 459l-30 211q0 29 28 29h130l-30 -217q-4 -33 -48 -33q-27 0 -50 10z" />
<glyph unicode="(" horiz-adv-x="314" d="M300 692q-52 -56 -84.5 -164.5t-32.5 -239.5t32.5 -239.5t84.5 -164.5q-21 -16 -67 -16q-33 0 -60 27q-70 66 -108.5 169t-38.5 224q0 120 38 223.5t108 168.5q30 29 62 29q43 0 66 -17z" />
<glyph unicode=")" horiz-adv-x="314" d="M14 -115q52 56 84.5 164.5t32.5 239.5t-32.5 239.5t-84.5 164.5q21 16 67 16q33 0 60 -27q70 -66 108.5 -169t38.5 -224q0 -120 -38 -223.5t-108 -168.5q-30 -29 -62 -29q-43 0 -66 17z" />
<glyph unicode="*" horiz-adv-x="487" d="M394 340l-85 -62l-65 129l-51 -104q-8 -14 -31 -14l-100 72l103 100l-118 19q-21 3 -21 26l39 115l127 -67l-19 117q3 28 27 28h114l-24 -143l110 58q23 0 30 -19l34 -108l-143 -21l92 -90q0 -22 -19 -36z" />
<glyph unicode="+" d="M484 220h-158v-168q-14 -19 -52 -19q-35 0 -51 19v168h-158q-19 14 -19 51q0 36 19 52h158v165q14 19 51 19q38 0 52 -19v-165h158q19 -16 19 -52q0 -35 -19 -51z" />
<glyph unicode="," horiz-adv-x="231" d="M1 -87q76 80 76 109q0 7 -8 12t-22.5 14t-25.5 21q13 80 90 80q38 0 61 -23t23 -68q0 -85 -106 -177q-10 -9 -22 -9q-33 0 -66 41z" />
<glyph unicode="-" horiz-adv-x="300" d="M229 196l-192 -31q-8 19 -8 42q0 59 42 93l192 32q8 -20 8 -42q0 -60 -42 -94z" />
<glyph unicode="." horiz-adv-x="231" d="M195 74q0 -39 -21 -61.5t-63 -22.5q-34 0 -54.5 20.5t-20.5 53.5q0 38 21.5 61.5t62.5 23.5q35 0 55 -21t20 -54z" />
<glyph unicode="/" horiz-adv-x="452" d="M468 741l-416 -930q-32 0 -60 16t-41 44l416 930q32 0 60 -16t41 -44z" />
<glyph unicode="0" d="M271 -10q-114 0 -174 69.5t-60 207.5q0 136 66 211t174 75q115 0 175.5 -70t60.5 -208q0 -135 -66.5 -210t-175.5 -75zM276 116q45 0 66 37t21 126q0 79 -20.5 113.5t-68.5 34.5q-46 0 -67 -37.5t-21 -126.5q0 -79 20.5 -113t69.5 -34z" />
<glyph unicode="1" horiz-adv-x="442" d="M412 117q7 -23 7 -47q0 -50 -27 -70h-344q-8 20 -8 49q0 47 26 68h99v301q-62 -11 -118 -11q-7 17 -7 41q0 38 19 63l224 42q37 -21 37 -90v-346h92z" />
<glyph unicode="2" d="M443 0h-377v100q7 29 43 47q100 51 145 92t45 85q0 45 -31 69t-90 24q-62 0 -94 -28q-13 26 -13 65q0 36 13 62q45 37 135 37q108 0 170 -56t62 -140q0 -129 -143 -201q0 -12 7 -12h92q82 0 99 7v-25q0 -109 -63 -126z" />
<glyph unicode="3" d="M207 131h-88q-14 29 -14 73q0 35 8 62h90q112 0 112 77q0 39 -28 57t-89 18q-81 0 -117 -32q-15 25 -15 68q0 32 13 60q51 39 160 39q110 0 172 -53t62 -134q0 -111 -98 -153q-6 -3 -6 -14q107 -38 107 -160q0 -85 -67 -145t-181 -60q-180 0 -180 102q0 48 26 86 q15 -23 52 -38t88 -15q54 0 78.5 20.5t24.5 63.5q0 78 -110 78z" />
<glyph unicode="4" d="M490 4h-40v-153q-40 -17 -83 -17q-66 0 -66 53v117h-258q-10 25 -10 72q0 42 14 73l220 394h121q33 0 47.5 -18.5t14.5 -64.5v-330h64q3 -17 3 -35q0 -63 -27 -91zM301 120v236q0 9 -2.5 11t-9.5 2l-136 -249h148z" />
<glyph unicode="5" d="M183 142h-65q-19 28 -26.5 58.5t-7.5 91.5v251h389q7 -18 7 -42q0 -65 -42 -102h-212v-115q0 -12 13 -12q116 -2 180.5 -58.5t64.5 -155.5q0 -100 -70.5 -162t-183.5 -62q-171 0 -171 100q0 46 27 88q47 -54 138 -54q47 0 73.5 22t26.5 63q0 47 -33 68t-108 21z" />
<glyph unicode="6" d="M48 307q0 197 80.5 299.5t212.5 102.5q93 0 133 -35q7 -20 7 -43q0 -53 -22 -88q-33 30 -107 30q-138 0 -147 -182q2 -4 7 -4q42 40 110 40q81 0 129.5 -52.5t48.5 -151.5q0 -105 -62.5 -169t-158.5 -64q-112 0 -171.5 74.5t-59.5 242.5zM199 296v-34q0 -77 20 -111.5 t60 -34.5q74 0 74 100q0 95 -83 95q-37 0 -71 -15z" />
<glyph unicode="7" horiz-adv-x="525" d="M489 543v-108q-4 -26 -25 -55q-113 -150 -157.5 -275t-44.5 -259q-32 -12 -65 -12q-88 0 -88 93q0 198 209 459q0 12 -11 12h-159q-74 0 -99 -14q-14 31 -14 71q0 59 32 88h422z" />
<glyph unicode="8" d="M395 380q0 -7 3 -9q53 -36 77.5 -79.5t24.5 -102.5q0 -86 -62.5 -142.5t-163.5 -56.5q-109 0 -167.5 47.5t-58.5 128.5q0 104 109 167q0 8 -2 10q-99 66 -99 167q0 86 60.5 142.5t160.5 56.5q98 0 157 -47t59 -127q0 -95 -98 -155zM245 295q-55 -49 -55 -108 q0 -75 86 -75q38 0 58.5 19.5t20.5 54.5t-26 58.5t-84 50.5zM306 421q46 44 46 94q0 71 -77 71q-35 0 -54.5 -17.5t-19.5 -50.5q0 -29 23 -49.5t82 -47.5z" />
<glyph unicode="9" d="M344 152q-3 3 -8 3q-42 -40 -110 -40q-81 0 -129.5 52.5t-48.5 151.5q0 106 63 170t159 64q111 0 170.5 -74.5t59.5 -242.5q0 -197 -80.5 -299.5t-212.5 -102.5q-140 0 -140 93q0 47 21 79q31 -37 108 -37q139 0 148 183zM349 247v33q0 78 -19.5 112.5t-59.5 34.5 q-74 0 -74 -101q0 -95 82 -95q39 0 71 16z" />
<glyph unicode=":" horiz-adv-x="287" d="M223 74q0 -39 -21 -61.5t-63 -22.5q-34 0 -54.5 20.5t-20.5 53.5q0 38 21.5 61.5t62.5 23.5q35 0 55 -21t20 -54zM223 403q0 -39 -21 -61.5t-63 -22.5q-34 0 -54.5 20.5t-20.5 53.5q0 38 21.5 61.5t62.5 23.5q35 0 55 -21t20 -54z" />
<glyph unicode=";" horiz-adv-x="287" d="M28 -87q76 80 76 109q0 7 -8 12t-22.5 14t-25.5 21q13 80 90 80q38 0 61 -23t23 -68q0 -85 -106 -177q-10 -9 -22 -9q-33 0 -66 41zM223 403q0 -39 -21 -61.5t-63 -22.5q-34 0 -54.5 20.5t-20.5 53.5q0 38 21.5 61.5t62.5 23.5q35 0 55 -21t20 -54z" />
<glyph unicode="&#x3c;" d="M314 59l-219 217l220 217q22 17 70 17q53 0 70 -19l-220 -210l220 -221q-17 -19 -68 -19q-47 0 -73 18z" />
<glyph unicode="=" d="M477 334h-404q-19 14 -19 51q0 36 19 52h404q19 -16 19 -52q0 -35 -19 -51zM477 105h-404q-19 14 -19 51q0 36 19 52h404q19 -16 19 -52q0 -35 -19 -51z" />
<glyph unicode="&#x3e;" d="M455 276l-221 -217q-23 -18 -70 -18q-53 0 -70 19l221 211l-221 220q17 19 69 19q48 0 73 -17z" />
<glyph unicode="?" horiz-adv-x="446" d="M276 75q0 -39 -22 -62t-63 -23q-35 0 -55 20t-20 53q0 38 22 62t63 24q35 0 55 -20.5t20 -53.5zM275 262q-36 -33 -86 -33q-34 0 -56 19.5t-22 57.5q0 26 16 50.5t38.5 43.5t45.5 37t39 38.5t16 39.5q0 59 -96 59q-81 0 -108 -29q-14 31 -14 62q0 47 39 74.5t110 27.5 q103 0 160 -46.5t57 -120.5q0 -42 -25 -80.5t-54.5 -61.5t-54.5 -48.5t-25 -43.5q0 -24 20 -46z" />
<glyph unicode="@" horiz-adv-x="980" d="M532 95q-8 0 -14 -6q-85 -86 -147 -86q-45 0 -70.5 32t-25.5 89q0 129 73 226.5t166 97.5q54 0 108 -40q50 22 73 22q18 0 27 -12q0 -7 -32.5 -128.5t-32.5 -150.5q0 -53 55 -53q54 0 96.5 74t42.5 178q0 124 -78 195.5t-219 71.5q-119 0 -214.5 -64.5t-146.5 -171.5 t-51 -233q0 -135 73 -207t194 -72q100 0 147 40q16 -21 16 -41q0 -24 -22 -44q-26 -24 -73 -40t-97 -16q-155 0 -256.5 100.5t-101.5 274.5q0 126 44 234.5t118.5 183.5t175 117.5t211.5 42.5q174 0 282 -100.5t108 -269.5q0 -146 -82.5 -244.5t-195.5 -98.5q-124 0 -151 99 zM575 350q-25 18 -55 18q-28 0 -64.5 -85.5t-36.5 -167.5v-12q2 -1 6 -1q28 0 76 72.5t74 175.5z" />
<glyph unicode="A" horiz-adv-x="613" d="M444 0l-52 181l-196 -12l-24 -80q-10 -36 -10 -64q0 -13 1 -19q-29 -12 -75 -12q-76 0 -76 55q0 21 8 43l169 533q4 47 39.5 63t125.5 16h57q3 -44 39 -159l151 -475q-7 -75 -93 -75q-29 0 -64 5zM359 303l-61 212q-5 0 -11 -19l-59 -207h111q18 0 20 14z" />
<glyph unicode="B" horiz-adv-x="589" d="M68 103v442q0 99 -15 141q73 23 206 23q141 0 212.5 -49.5t71.5 -142.5q0 -44 -21.5 -80.5t-58.5 -57.5q-8 -5 -8 -15q49 -22 78 -64.5t29 -99.5q0 -91 -70 -148.5t-197 -57.5q-119 0 -188 17q-39 43 -39 92zM275 302h-45v-163q4 -19 72 -19q98 0 98 90q0 48 -30 70 t-95 22zM268 582h-38v-167q48 -4 99 -4q22 4 37.5 27.5t15.5 55.5q0 46 -26 67t-88 21z" />
<glyph unicode="C" horiz-adv-x="576" d="M528 57q-63 -67 -189 -67q-136 0 -225 91t-89 259q0 91 26.5 162.5t72.5 116t104.5 67.5t126.5 23q107 0 182 -41q0 -7 -0.5 -47.5t-0.5 -48.5q0 -41 7 -101q-42 -25 -73 -25q-33 0 -50 23.5t-28 97.5q-21 9 -48 9q-66 0 -107 -55t-41 -176q0 -211 187 -211q42 0 81.5 16 t63.5 43q14 -33 14 -68q0 -39 -14 -68z" />
<glyph unicode="D" horiz-adv-x="659" d="M68 103v452q0 85 -15 129q80 25 224 25q174 0 265.5 -87.5t91.5 -258.5q0 -172 -94.5 -270.5t-252.5 -98.5q-109 0 -177 17q-25 26 -33.5 45.5t-8.5 46.5zM274 570h-38v-421q6 -16 69 -16q158 0 158 230q0 114 -48 160.5t-141 46.5z" />
<glyph unicode="E" horiz-adv-x="542" d="M447 0h-320q-32 15 -45.5 34.5t-13.5 55.5v455q0 93 -15 137q32 17 221 17h219q10 -27 10 -53q0 -73 -51 -96l-216 8v-139h233q6 -21 6 -43q0 -69 -48 -92l-191 7v-129q3 -17 19 -17h131q95 0 120 12q5 -23 5 -46q0 -86 -64 -111z" />
<glyph unicode="F" horiz-adv-x="521" d="M425 270l-189 7v-163q0 -74 11 -101q-51 -23 -94 -23q-85 0 -85 67v487q0 94 -15 138q32 17 221 17h216q10 -23 10 -53q0 -73 -50 -96l-214 8v-153h230q7 -20 7 -43q0 -68 -48 -92z" />
<glyph unicode="G" horiz-adv-x="614" d="M575 384q0 -50 -19 -121v-216q-93 -57 -220 -57q-136 0 -223.5 90t-87.5 258q0 173 98 272t253 99q120 0 177 -43q9 -26 9 -54q0 -52 -20 -88q-55 41 -149 41q-195 0 -195 -227q0 -108 38.5 -160.5t122.5 -52.5q19 0 43 6v132h-73q-7 21 -7 50q0 49 28 71h225z" />
<glyph unicode="H" horiz-adv-x="676" d="M440 57v233l-204 -11v-273q-41 -16 -83 -16q-85 0 -85 55v498q0 104 -12 145q53 21 107 21q55 0 73 -37v-250h182q13 0 17.5 5.5t4.5 20.5v241q49 20 99 20q54 0 69 -37v-537q0 -55 3.5 -78t15.5 -39q-53 -28 -103 -28q-37 0 -60.5 16.5t-23.5 50.5z" />
<glyph unicode="I" horiz-adv-x="358" d="M306 0h-275q-7 22 -7 46q0 50 27 70h46v466h-66q-8 26 -8 48q0 47 28 69h275q8 -23 8 -47q0 -48 -28 -70h-45v-466h66q7 -28 7 -47q0 -47 -28 -69z" />
<glyph unicode="J" horiz-adv-x="325" d="M89 28v554h-70q-8 26 -8 47q0 46 28 70h238q0 -51 -20 -117v-560q0 -106 -54.5 -163t-130.5 -57q-26 0 -48 8q-24 28 -24 92q53 5 71 31t18 95z" />
<glyph unicode="K" horiz-adv-x="643" d="M400 105l-98 181l-66 -88v-192q-41 -16 -83 -16q-85 0 -85 55v498q0 104 -12 145q53 21 107 21q55 0 73 -37v-313q6 0 11 8q49 99 125 201l87 116q35 25 73 25q52 0 90 -48q-20 -12 -60 -62l-145 -183l109 -193q75 -133 113 -163q-44 -70 -105 -70q-37 0 -67.5 24 t-66.5 91z" />
<glyph unicode="L" horiz-adv-x="508" d="M432 0h-305q-32 15 -45.5 34.5t-13.5 55.5v454q0 103 -12 144q52 21 107 21t73 -37v-509q4 -17 19 -17h117q94 0 120 11q5 -22 5 -45q0 -87 -65 -112z" />
<glyph unicode="M" horiz-adv-x="841" d="M620 64v393q-9 0 -12 -8l-117 -398q-45 -15 -77 -15q-37 0 -58.5 16.5t-33.5 56.5l-103 340q-3 8 -12 8v-453q-39 -14 -75 -14q-40 0 -58 14.5t-18 52.5q0 25 6.5 240.5t6.5 247.5q0 100 -13 144q59 17 139 17q60 0 83 -37l136 -435q3 -9 12 -9l137 437q26 44 103 44 q66 0 109 -13v-397q0 -155 4.5 -201t19.5 -74q-52 -31 -101 -31q-78 0 -78 74z" />
<glyph unicode="N" horiz-adv-x="678" d="M423 48l-207 427q-9 0 -9 -8l12 -463q-36 -14 -78 -14q-40 0 -57 13.5t-17 43.5q0 16 0.5 248t0.5 254q0 96 -14 138q64 22 132 22q34 0 51.5 -10.5t31.5 -38.5l194 -401q8 0 8 9l-10 329q-2 63 -11 91q54 21 95 21q50 0 65 -37v-660q-47 -22 -102 -22q-31 0 -49 11.5 t-36 46.5z" />
<glyph unicode="O" horiz-adv-x="655" d="M319 -10q-128 0 -211 88t-83 272q0 179 89 269t222 90q60 0 111.5 -20t93 -61.5t65.5 -112.5t24 -166q0 -92 -25.5 -163t-69.5 -112.5t-98.5 -62.5t-117.5 -21zM331 131q128 0 128 218q0 118 -34 168.5t-102 50.5q-127 0 -127 -218q0 -119 34 -169t101 -50z" />
<glyph unicode="P" horiz-adv-x="581" d="M559 470q0 -102 -66.5 -165t-159.5 -63q-66 0 -97 27v-155q0 -74 11 -101q-51 -23 -94 -23q-85 0 -85 67v498q0 90 -15 131q73 23 201 23q305 0 305 -239zM236 576v-213q26 -2 38 -2q59 0 91 28t32 80q0 107 -123 107h-38z" />
<glyph unicode="Q" horiz-adv-x="655" d="M509 -225q-16 24 -61.5 64t-200.5 160q-99 24 -160.5 110.5t-61.5 240.5q0 179 89 269t222 90q60 0 111.5 -20t93 -61.5t65.5 -112.5t24 -166q0 -127 -49 -205t-129 -111q0 -6 6 -10q92 -47 120.5 -72.5t28.5 -55.5q0 -27 -21.5 -54t-76.5 -66zM331 131q128 0 128 218 q0 118 -34 168.5t-102 50.5q-127 0 -127 -218q0 -119 34 -169t101 -50z" />
<glyph unicode="R" horiz-adv-x="608" d="M369 108l-81 153l-56 -4v-248q-35 -19 -81 -19q-83 0 -83 67v492q0 91 -15 137q73 23 202 23q152 0 225 -58.5t73 -164.5q0 -53 -28 -98.5t-79 -73.5q0 -9 4 -18l74 -126q54 -95 86 -121q-47 -59 -106 -59q-73 0 -135 118zM274 576h-42v-204q44 -6 99 -6q28 9 45 37.5 t17 68.5q0 104 -119 104z" />
<glyph unicode="S" horiz-adv-x="511" d="M449 544q-39 24 -126 24q-67 0 -93.5 -17.5t-26.5 -53.5q0 -19 20.5 -34t51 -25t66.5 -27t66.5 -37.5t51 -59.5t20.5 -91q0 -104 -73 -168.5t-200 -64.5q-169 0 -169 111q0 44 13 78q44 -48 158 -48q55 0 79 18t24 54q0 22 -20.5 38t-51 26t-66 26.5t-66 36t-51 57.5 t-20.5 89q0 102 70.5 167.5t202.5 65.5q101 0 145 -31q10 -27 10 -60q0 -41 -15 -74z" />
<glyph unicode="T" horiz-adv-x="536" d="M184 57v499l-155 -7q-17 37 -17 75q0 49 27 75h478q10 -27 10 -53q0 -68 -54 -97l-121 7v-425q0 -53 3.5 -75.5t14.5 -39.5q-46 -26 -101 -26q-85 0 -85 67z" />
<glyph unicode="U" horiz-adv-x="652" d="M437 166v429q0 66 -7 94q49 20 100 20q48 0 62 -37v-432q0 -120 -69 -185t-196 -65q-128 0 -197.5 65.5t-69.5 184.5v303q0 98 -11 145q55 21 106 21q56 0 72 -37v-418q0 -117 123 -117q58 0 87 29z" />
<glyph unicode="V" horiz-adv-x="609" d="M622 691q-12 -19 -32 -84l-142 -454q-32 -104 -35 -144q-60 -19 -115 -19q-53 0 -79.5 30.5t-57.5 133.5l-154 506q64 49 113 49q34 0 55 -20l131 -472q3 -9 5 -11t8 -2l128 460q24 43 85 43q41 0 90 -16z" />
<glyph unicode="W" horiz-adv-x="924" d="M899 694q-12 -28 -23 -83l-91 -459q-18 -93 -21 -142q-47 -20 -99 -20q-54 0 -86 33.5t-51 128.5l-61 295q-2 9 -4.5 11.5t-9.5 2.5q-13 -102 -53 -283l-37 -171q-59 -17 -102 -17q-51 0 -78 33.5t-45 128.5l-99 512q59 45 105 45q36 0 56 -20l76 -464q1 -10 3.5 -13 t10.5 -3l96 469q37 31 94 31q39 0 72 -15l96 -471q2 -10 4 -12t8 -2l78 469q18 31 79 31q35 0 82 -15z" />
<glyph unicode="X" horiz-adv-x="623" d="M414 21l-110 225q-6 10 -13 10l-87 -171q-19 -39 -19 -79q-33 -11 -92 -11q-66 0 -66 46q0 22 17 51l158 268l-164 298q63 51 116 51q38 0 63 -23l102 -212q5 -11 13 -11l71 154q22 47 22 79q42 8 90 8q70 0 70 -42q0 -15 -12 -36l-151 -267l123 -222q35 -62 62 -86 q-61 -61 -119 -61q-48 0 -74 31z" />
<glyph unicode="Y" horiz-adv-x="542" d="M376 22q-49 -32 -113 -32q-76 0 -76 67v213l-189 395q67 44 116 44q36 0 60 -24l101 -245q5 -13 14 -13l74 181q19 46 19 89q40 7 84 7q70 0 70 -43q0 -15 -15 -48l-166 -343v-140q0 -79 21 -108z" />
<glyph unicode="Z" horiz-adv-x="543" d="M450 0h-392q-29 16 -29 49v62q0 41 54 117l234 330l-261 -8q-18 45 -18 83q0 45 27 66h445v-93q-4 -31 -35 -74l-267 -375q0 -12 16 -12h153q106 0 134 8q4 -17 4 -42q0 -86 -65 -111z" />
<glyph unicode="[" horiz-adv-x="343" d="M245 -121h-130q-43 19 -43 83v654q0 64 43 83h132q41 0 57 -14t16 -48q0 -21 -6 -41h-94v-579q0 -20 7.5 -27.5t26.5 -7.5h60q6 -20 6 -38q0 -35 -16.5 -50t-58.5 -15z" />
<glyph unicode="\" horiz-adv-x="452" d="M403 -189l-416 930q13 28 41 44t60 16l416 -930q-13 -28 -41 -44t-60 -16z" />
<glyph unicode="]" horiz-adv-x="343" d="M98 699h130q43 -19 43 -83v-654q0 -64 -43 -83h-132q-41 0 -57 14t-16 48q0 21 6 41h94v579q0 20 -7.5 27.5t-26.5 7.5h-60q-6 20 -6 38q0 35 16.5 50t58.5 15z" />
<glyph unicode="^" d="M424 228l-155 188l-139 -188q-78 19 -92 56q71 117 110.5 176.5t53 73.5t23.5 14h100q10 0 23.5 -14.5t52 -72.5t111.5 -177q-14 -36 -88 -56z" />
<glyph unicode="_" horiz-adv-x="475" d="M475 -178h-475v107h475v-107z" />
<glyph unicode="`" horiz-adv-x="475" d="M344 563q-13 -29 -68 -48q-91 50 -118.5 75t-27.5 53q0 33 28 55t74 22q14 -27 112 -157z" />
<glyph unicode="a" horiz-adv-x="468" d="M409 99l44 -16q-4 -49 -24 -79q-25 -14 -56 -14q-54 0 -98 41q-41 -26 -64 -33.5t-55 -7.5q-60 0 -95 34.5t-35 88.5q0 71 60 110t185 51v25q0 28 -18 41.5t-59 13.5q-77 0 -123 -30q-27 32 -27 78q0 13 3 25q22 27 68.5 44.5t103.5 17.5q92 0 144 -47t52 -139 q0 -22 -3 -103t-3 -101zM271 94v101q-58 -7 -82 -20.5t-24 -43.5q0 -44 61 -44q28 0 45 7z" />
<glyph unicode="b" horiz-adv-x="543" d="M141 19l-58 -29q-27 11 -27 92v480q0 109 -14 143q58 26 110 26q42 0 64 -25l-9 -261q55 44 112 44q86 0 143.5 -62.5t57.5 -172.5q0 -120 -73.5 -192t-171.5 -72q-55 0 -134 29zM211 375v-258q30 -16 68 -16q34 0 59 36.5t25 99.5q0 73 -32 107t-86 34q-19 0 -34 -3z " />
<glyph unicode="c" horiz-adv-x="437" d="M406 49q-47 -59 -149 -59q-101 0 -168.5 66.5t-67.5 171.5q0 118 74 189.5t182 71.5q87 0 127 -30q6 -21 6 -46q0 -46 -15 -76q-20 15 -62 25.5t-82 10.5q-25 0 -50 -35t-25 -94q0 -65 33.5 -97t91.5 -32q65 0 100 35q10 -21 10 -57q0 -22 -5 -44z" />
<glyph unicode="d" horiz-adv-x="544" d="M345 35h-7q-52 -45 -109 -45q-92 0 -149.5 62.5t-57.5 171.5q0 123 74 194t176 71q27 0 59 -9v82q0 113 -17 143q58 26 111 26q39 0 61 -25v-570q0 -79 23 -114q-58 -32 -111 -32q-24 0 -37 6q-13 15 -16 39zM331 103v262q-27 12 -60 12q-39 0 -65.5 -36.5t-26.5 -99.5 q0 -74 32.5 -108t87.5 -34q17 0 32 4z" />
<glyph unicode="e" horiz-adv-x="484" d="M435 49q-48 -59 -164 -59q-111 0 -180.5 65.5t-69.5 177.5q0 119 67.5 187.5t171.5 68.5q94 0 147 -53t53 -146q0 -42 -7 -70q-21 -14 -151 -14q-72 0 -131 3q3 -48 39.5 -72.5t96.5 -24.5q82 0 124 37q9 -22 9 -55q0 -23 -5 -45zM175 295h94q41 0 56 3q1 6 1 17 q0 35 -20.5 52t-54.5 17q-32 0 -52 -23t-24 -66z" />
<glyph unicode="f" horiz-adv-x="334" d="M68 50v314h-54q-4 13 -4 33q0 51 22 73h36q7 114 73 187.5t168 73.5q64 0 94 -24q4 -14 4 -29q0 -48 -21 -87q-26 10 -67 10q-35 0 -62 -9q-34 -30 -34 -122h103q5 -25 5 -44q0 -43 -21 -62h-87v-230q0 -94 11 -124q-44 -20 -84 -20q-42 0 -62 14t-20 46z" />
<glyph unicode="g" horiz-adv-x="485" d="M308 -69l-149 19q-110 14 -110 78q0 53 90 93q9 5 9 15q-52 18 -82.5 59.5t-30.5 101.5q0 89 57.5 140.5t148.5 51.5q27 0 55 -6.5t36 -6.5q82 0 136 6v-27q0 -29 -9.5 -42.5t-38.5 -22.5q-6 -2 -6 -13q25 -34 25 -83q0 -80 -57 -127t-143 -47h-12q-24 -16 -26 -27 q0 -11 18 -12l117 -12q150 -14 150 -129q0 -81 -86 -135t-206 -54q-95 0 -144 25.5t-49 67.5q0 54 82 80q22 7 37 7q13 0 19 -6q-10 -9 -10 -25q0 -45 109 -45q48 0 77 13.5t29 34.5q0 24 -36 28zM242 216q25 0 41.5 19t16.5 60q0 97 -66 97q-25 0 -42 -19t-17 -61 q0 -52 19.5 -74t47.5 -22z" />
<glyph unicode="h" horiz-adv-x="545" d="M339 78v220q0 37 -16 55t-52 18q-33 0 -60 -10v-354q-34 -17 -73 -17q-82 0 -82 54v523q0 111 -15 138q58 26 107 26q41 0 63 -25v-275q71 58 141 58q65 0 104 -38t39 -116q0 -23 -1 -100t-1 -101q0 -81 21 -113q-44 -31 -89 -31q-44 0 -65 20.5t-21 67.5z" />
<glyph unicode="i" horiz-adv-x="268" d="M219 632q0 -87 -89 -87q-37 0 -58.5 21t-21.5 55q0 41 23 64t68 23q37 0 57.5 -21t20.5 -55zM56 72v248q0 110 -14 148q59 21 102 21q50 0 67 -35v-321q0 -78 22 -112q-51 -31 -100 -31q-40 0 -58.5 19t-18.5 63z" />
<glyph unicode="j" horiz-adv-x="272" d="M60 -11v331q0 110 -14 148q58 21 102 21q50 0 67 -35v-453q0 -125 -35 -187.5t-88 -62.5q-65 0 -99 71q34 10 50.5 47t16.5 120zM223 632q0 -87 -89 -87q-37 0 -58.5 21t-21.5 55q0 41 23 64t68 23q37 0 57.5 -21t20.5 -55z" />
<glyph unicode="k" horiz-adv-x="516" d="M297 99l-40 78l-46 -53v-117q-37 -17 -74 -17q-81 0 -81 54v534q0 100 -15 127q58 26 108 26q40 0 62 -25v-443q11 0 16 9q33 62 82 128l61 81q18 8 40 8q61 0 93 -48q-14 -8 -38.5 -34t-98.5 -114l62 -115q55 -99 81 -124q-50 -64 -98 -64q-30 0 -56 23t-58 86z" />
<glyph unicode="l" horiz-adv-x="268" d="M56 72v506q0 100 -15 127q58 26 108 26q40 0 62 -25v-597q0 -60 21 -88q-48 -31 -100 -31q-40 0 -58 19t-18 63z" />
<glyph unicode="m" horiz-adv-x="809" d="M601 78v220q0 38 -14 55.5t-48 17.5q-30 0 -55 -10v-355q-32 -16 -72 -16q-83 0 -83 51v257q0 38 -14.5 55.5t-48.5 17.5q-30 0 -55 -10v-355q-32 -16 -72 -16q-83 0 -83 51v280q0 104 -16 142q66 26 107 26q29 0 47 -8q8 -15 8 -51h8q69 59 143 59q84 0 114 -66 q81 66 154 66q136 0 136 -154q0 -23 -1 -100t-1 -101q0 -83 21 -113q-44 -31 -89 -31q-44 0 -65 20.5t-21 67.5z" />
<glyph unicode="n" horiz-adv-x="545" d="M339 78v220q0 37 -15.5 55t-52.5 18q-32 0 -60 -10v-355q-32 -16 -72 -16q-83 0 -83 51v280q0 104 -16 142q66 26 107 26q28 0 46 -8q9 -14 9 -51h8q72 59 142 59q65 0 104 -38t39 -116q0 -23 -1 -100t-1 -101q0 -81 21 -113q-44 -31 -89 -31q-44 0 -65 20.5t-21 67.5z " />
<glyph unicode="o" horiz-adv-x="532" d="M258 -10q-100 0 -168.5 63.5t-68.5 177.5q0 116 73 187t180 71q100 0 168.5 -63.5t68.5 -177.5q0 -116 -73 -187t-180 -71zM269 111q41 0 66.5 29.5t25.5 89.5q0 72 -28 104.5t-70 32.5q-41 0 -66.5 -29t-25.5 -90q0 -72 28 -104.5t70 -32.5z" />
<glyph unicode="p" horiz-adv-x="544" d="M520 254q0 -120 -73.5 -192t-171.5 -72q-33 0 -64 11v-106q0 -89 15 -123q-45 -21 -97 -21q-73 0 -73 53v517q0 104 -16 142q66 26 107 26q27 0 45 -8q10 -14 10 -39h8q55 47 105 47q89 0 147 -62.5t58 -172.5zM211 375v-259q27 -15 61 -15q39 0 65 36.5t26 99.5 q0 73 -32 107t-86 34q-21 0 -34 -3z" />
<glyph unicode="q" horiz-adv-x="544" d="M331 -196v226q-51 -40 -102 -40q-92 0 -149.5 62t-57.5 172q0 123 70 194t176 71q58 0 109 -24l87 24q13 -6 17.5 -22t4.5 -67v-505q0 -89 15 -123q-45 -21 -97 -21q-73 0 -73 53zM331 103v257q-34 18 -72 18q-27 0 -53.5 -36t-26.5 -101q0 -74 32.5 -108t87.5 -34 q17 0 32 4z" />
<glyph unicode="r" horiz-adv-x="381" d="M55 41v280q0 104 -16 142q66 26 107 26q28 0 46 -8q9 -17 9 -63h8q35 41 59.5 56t52.5 15q36 0 53 -26q0 -78 -40 -134q-24 16 -65 16q-30 0 -59 -13v-211q0 -89 10 -113q-40 -18 -84 -18q-41 0 -61 11.5t-20 39.5z" />
<glyph unicode="s" horiz-adv-x="382" d="M38 134q40 -31 110 -31q55 0 55 38q0 16 -27 30t-60 26t-60 42.5t-27 76.5q0 76 54.5 124.5t152.5 48.5q70 0 101 -23q11 -21 11 -52q0 -29 -10 -54q-34 16 -91 16q-63 0 -63 -39q0 -15 27 -27.5t59 -24t59 -44.5t27 -84q0 -73 -57.5 -120t-147.5 -47q-125 0 -125 74 q0 36 12 70z" />
<glyph unicode="t" horiz-adv-x="342" d="M330 108v-10q0 -47 -32 -77.5t-91 -30.5q-137 0 -137 147v227h-55q-5 23 -5 42q0 42 22 64h38v80q46 59 115 59q26 0 43 -10l-6 -129h105q5 -25 5 -44q0 -43 -21 -62h-86v-207q0 -30 14 -43.5t48 -13.5q27 0 43 8z" />
<glyph unicode="u" horiz-adv-x="541" d="M339 47h-8q-41 -33 -69.5 -45t-64.5 -12q-65 0 -105 38.5t-40 115.5q0 23 1 99.5t1 100.5q0 90 -17 119q65 26 109 26q42 0 62 -19v-292q0 -71 67 -71q25 0 53 11v325q10 46 80 46q41 0 75 -16v-318q0 -103 22 -138q-54 -27 -103 -27q-27 0 -45 7q-14 19 -18 50z" />
<glyph unicode="v" horiz-adv-x="472" d="M460 437q0 -15 -7 -39l-124 -382q-44 -26 -99 -26q-78 0 -101 74l-122 375q63 50 111 50q40 0 55 -25q3 -46 34 -160l34 -125q3 -10 5 -12.5t8 -2.5l57 209q15 57 15 102q45 9 69 9q65 0 65 -47z" />
<glyph unicode="w" horiz-adv-x="722" d="M425 44l-57 174q-4 12 -11 12l-68 -215q-44 -25 -88 -25q-39 0 -58.5 13.5t-28.5 52.5l-96 387q56 46 101 46q42 0 62 -26q0 -55 18 -142l29 -139q2 -11 4.5 -14t8.5 -3l60 195l-22 81q48 41 94 41q34 0 52 -15l78 -285q3 -11 5.5 -14t8.5 -3l40 208q10 57 10 102 q36 9 67 9q65 0 65 -49q0 -15 -6 -41l-95 -379q-43 -25 -92 -25q-35 0 -53 11.5t-28 42.5z" />
<glyph unicode="x" horiz-adv-x="472" d="M261 69l-36 70q-5 11 -7 13.5t-7 2.5q-63 -118 -63 -153q-33 -7 -61 -7q-70 0 -70 47q0 21 21.5 56.5t102.5 144.5l-117 190q55 56 110 56q34 0 54 -18l64 -133q6 -10 12 -10l48 97q14 29 14 50q34 9 65 9q65 0 65 -47q0 -23 -19.5 -55.5t-102.5 -141.5l126 -195 q-56 -55 -103 -55q-33 0 -53.5 16t-42.5 63z" />
<glyph unicode="y" horiz-adv-x="488" d="M333 476q38 8 69 8q67 0 67 -55t-60 -223l-60 -166q-56 -157 -112 -223t-120 -66q-48 0 -71 26t-23 68q0 20 7 50q27 -9 52 -9q76 0 122 121q-39 1 -56 11.5t-26 41.5l-110 382q61 47 108 47q43 0 63 -24q0 -50 28 -162l38 -153q2 -10 4 -12.5t8 -2.5l45 170 q27 103 27 171z" />
<glyph unicode="z" horiz-adv-x="429" d="M309 0h-241q-18 0 -29 12t-11 26v75q13 30 95 115l120 122l-181 -7q-31 13 -31 64q0 38 14 72h215q92 0 130 2q6 -36 6 -64q0 -58 -30 -88l-177 -186q0 -10 12 -10h116q87 0 87 -67q0 -28 -18 -71q-22 5 -77 5z" />
<glyph unicode="{" horiz-adv-x="343" d="M151 300v-8q57 -17 81 -45t24 -70q0 -22 -11.5 -82t-11.5 -85q0 -32 21.5 -48.5t76.5 -23.5q-10 -36 -30 -52t-62 -16q-70 0 -113 34.5t-43 104.5q0 30 13.5 95.5t13.5 81.5q0 33 -17 51.5t-74 42.5v18q59 24 75 40t16 51q0 20 -13.5 85t-13.5 95q0 71 43 105.5t113 34.5 q42 0 62 -16t30 -53q-55 -7 -76.5 -23.5t-21.5 -48.5q0 -25 11.5 -84t11.5 -81q0 -40 -23.5 -62.5t-81.5 -40.5z" />
<glyph unicode="|" horiz-adv-x="261" d="M191 721v-952q-23 -13 -60 -13q-38 0 -61 13v952q23 13 61 13q37 0 60 -13z" />
<glyph unicode="}" horiz-adv-x="343" d="M331 298v-17q-59 -24 -75.5 -40t-16.5 -51q0 -20 13.5 -85.5t13.5 -95.5q0 -70 -43 -104.5t-113 -34.5q-42 0 -61.5 16t-29.5 53q54 7 76 23t22 48q0 25 -11.5 84t-11.5 81q0 40 23.5 62.5t80.5 41.5v8q-56 17 -80 45t-24 70q0 22 11.5 81.5t11.5 84.5q0 32 -21.5 48.5 t-76.5 23.5q10 37 29.5 53t61.5 16q70 0 113 -34.5t43 -105.5q0 -30 -13.5 -95.5t-13.5 -81.5q0 -33 17.5 -51.5t74.5 -42.5z" />
<glyph unicode="~" horiz-adv-x="515" d="M492 401q-28 -82 -57 -118t-70 -36q-35 0 -95.5 33.5t-76.5 33.5q-17 0 -32.5 -15t-46.5 -60q-51 18 -57 42q28 82 57 118t70 36q35 0 95 -33.5t76 -33.5q17 0 32.5 15t47.5 60q50 -17 57 -42z" />
<glyph unicode="&#xa1;" horiz-adv-x="341" d="M167 329q-35 0 -54.5 20.5t-19.5 54.5q0 39 21.5 62t63.5 23q34 0 54 -20t20 -53q0 -39 -22 -63t-63 -24zM79 -207l40 437q22 19 50 19q30 0 45 -15t16 -50l11 -248q4 -100 20 -141q-53 -25 -117 -25q-45 0 -65 23z" />
<glyph unicode="&#xa2;" d="M456 111q-49 -58 -150 -58q-22 0 -43 3l-57 -170q-10 -4 -23 -4q-12 0 -22 4l60 181q-69 24 -111 82.5t-42 137.5q0 115 74.5 185t183.5 70q19 0 53 -4l54 161q10 4 23 4q12 0 22 -4l-57 -171q23 -6 34 -15q5 -22 5 -42q0 -46 -14 -76q-19 11 -62 23l-79 -236 q16 -5 45 -5q64 0 100 34q11 -21 11 -56q0 -22 -5 -44zM225 304q0 -70 41 -103l76 225q-20 4 -42 4q-25 0 -50 -34t-25 -92z" />
<glyph unicode="&#xa3;" d="M437 319l-104 -14q12 -29 12 -52q0 -59 -67 -116q-6 -5 -6 -13h81q71 0 98 4t42 16q5 -25 5 -44q0 -110 -116 -110q-38 0 -128.5 8t-133.5 8q-47 0 -89 -7q4 62 31 88.5t90 35.5q35 27 47.5 44t12.5 35q0 21 -41 81l-102 -14q-5 12 -5 28q0 14 5 27l68 9q-58 85 -58 152 q0 104 72.5 164t183.5 60q81 0 125 -26q8 -21 8 -47q0 -48 -18 -82q-31 25 -102 25q-61 0 -90 -22t-29 -59q0 -19 11 -40.5t35.5 -55t32.5 -46.5l129 18q5 -13 5 -28q0 -14 -5 -27z" />
<glyph unicode="&#xa4;" d="M425 42l-40 59q-50 -29 -115 -29q-63 0 -107 27l-38 -57q-16 -22 -43 -22q-42 0 -60 24l82 110q-30 45 -30 110q0 69 31 117l-83 114q18 24 60 24q27 0 43 -22l39 -60q52 30 115 30q58 0 108 -28l38 58q16 22 43 22q42 0 60 -24l-82 -112q30 -46 30 -108q0 -68 -32 -118 l84 -113q-18 -24 -60 -24q-27 0 -43 22zM275 174q38 0 63 24.5t25 67.5q0 99 -88 99q-38 0 -63 -24.5t-25 -67.5q0 -99 88 -99z" />
<glyph unicode="&#xa5;" d="M496 233h-144v-103q0 -79 21 -108q-49 -32 -109 -32q-72 0 -72 67v176h-141q-5 15 -5 28q0 11 5 28h135l-21 49h-114q-5 15 -5 28q0 11 5 28h90l-118 274q60 41 111 41q36 0 56 -20l89 -254q4 -12 13 -12l66 185q15 44 15 89q47 7 80 7q64 0 64 -41q0 -15 -11 -40 l-102 -229h92q5 -17 5 -28q0 -13 -5 -28h-117l-21 -49h138q5 -17 5 -28q0 -13 -5 -28z" />
<glyph unicode="&#xa6;" horiz-adv-x="261" d="M191 721v-378h-121v378q23 13 61 13q37 0 60 -13zM191 147v-378q-23 -13 -60 -13q-38 0 -61 13v378h121z" />
<glyph unicode="&#xa7;" d="M286 231q33 18 46.5 31t13.5 31q0 21 -35.5 48t-77.5 50.5t-77.5 63.5t-35.5 85q0 73 57.5 121t150.5 48q70 0 107 -20q7 -23 7 -47q0 -33 -11 -63q-28 17 -92 17q-67 0 -67 -38q0 -15 34.5 -37.5t76.5 -45t76.5 -63t34.5 -87.5q0 -65 -49.5 -106t-90.5 -41 q-18 0 -37 13.5t-31 39.5zM118 -47q30 -16 92 -16q67 0 67 37q0 13 -23 29.5t-55.5 35t-65 41t-55.5 56t-23 71.5q0 66 49 107t91 41q18 0 37 -13.5t31 -39.5q-33 -18 -46.5 -31t-13.5 -31t23.5 -38t56.5 -40t66 -43.5t56.5 -56.5t23.5 -70q0 -73 -57 -120.5t-151 -47.5 q-58 0 -86 16t-28 60q0 26 11 53z" />
<glyph unicode="&#xa8;" horiz-adv-x="475" d="M333 529q-30 0 -48.5 21t-18.5 54q0 88 77 88q30 0 48.5 -21.5t18.5 -54.5q0 -87 -77 -87zM131 529q-30 0 -48.5 21t-18.5 54q0 45 21 66.5t56 21.5q30 0 48.5 -21.5t18.5 -54.5q0 -87 -77 -87z" />
<glyph unicode="&#xa9;" horiz-adv-x="741" d="M369 35q134 0 217 89.5t83 225.5q0 135 -82.5 224t-215.5 89q-134 0 -217 -89.5t-83 -224.5q0 -136 82.5 -225t215.5 -89zM370 -10q-153 0 -251.5 101.5t-98.5 257.5t99 258t251 102q154 0 252.5 -101.5t98.5 -257.5q0 -154 -99 -257t-252 -103zM505 536v-56q0 -28 4 -63 q-24 -11 -50 -11q-24 0 -33.5 13t-12.5 53q-9 4 -29 4q-84 0 -84 -125q0 -118 111 -118q65 0 99 37v-34q0 -44 -39 -69q-37 -22 -90 -22q-83 0 -138 51.5t-55 147.5q0 103 58.5 159t145.5 56q64 0 113 -23z" />
<glyph unicode="&#xaa;" horiz-adv-x="320" d="M269 482l26 -9q-4 -32 -15 -48q-15 -9 -34 -9q-34 0 -59 23q-39 -23 -74 -23q-36 0 -57.5 20.5t-21.5 51.5q0 76 106 91l45 6v10q0 32 -49 32q-46 0 -76 -17q-14 18 -14 44q0 11 3 20q33 35 104 35q56 0 87.5 -27.5t31.5 -82.5q0 -13 -1.5 -59t-1.5 -58zM185 480v56 l-28 -5q-20 -3 -28 -10t-8 -21q0 -25 35 -25q14 0 29 5z" />
<glyph unicode="&#xab;" horiz-adv-x="517" d="M169 52l-148 186l150 186q20 15 53 15q39 0 53 -17l-86 -178l86 -191q-14 -16 -52 -16q-36 0 -56 15zM385 52l-148 186l149 186q20 15 53 15q40 0 54 -17l-86 -178l86 -191q-14 -16 -52 -16t-56 15z" />
<glyph unicode="&#xac;" d="M388 111v154h-352q-7 18 -7 44q0 45 26 75h454v-273q-19 -21 -57 -21q-42 0 -64 21z" />
<glyph unicode="&#xad;" horiz-adv-x="300" d="M229 196l-192 -31q-8 19 -8 42q0 59 42 93l192 32q8 -20 8 -42q0 -60 -42 -94z" />
<glyph unicode="&#xae;" horiz-adv-x="407" d="M204 348q73 0 117 46.5t44 119.5q0 72 -44.5 118.5t-117.5 46.5t-117 -46.5t-44 -119.5t44.5 -119t117.5 -46zM203 318q-84 0 -138.5 55.5t-54.5 139.5q0 83 55.5 139.5t138.5 56.5q84 0 138.5 -55.5t54.5 -139.5q0 -83 -55.5 -139.5t-138.5 -56.5zM185 576v-55 q14 -2 28 -2q17 5 17 29q0 28 -32 28h-13zM185 484v-67q-12 -5 -25 -5q-27 0 -27 19v139q0 30 -3 40q22 6 66 6q84 0 84 -63q0 -33 -28 -50q0 -4 1 -6q32 -60 42 -68q-17 -17 -34 -17q-22 0 -38 34l-20 39z" />
<glyph unicode="&#xaf;" horiz-adv-x="475" d="M357 551h-260q-7 18 -7 44q0 50 27 73h260q7 -18 7 -44q0 -49 -27 -73z" />
<glyph unicode="&#xb0;" horiz-adv-x="369" d="M177 406q-62 0 -98.5 35.5t-36.5 93.5q0 70 40.5 106.5t109.5 36.5q61 0 98 -35.5t37 -93.5q0 -70 -40.5 -106.5t-109.5 -36.5zM185 600q-52 0 -52 -61q0 -55 50 -55q53 0 53 60q0 56 -51 56z" />
<glyph unicode="&#xb1;" d="M477 301h-151v-134q-14 -19 -52 -19q-37 0 -51 19v134h-150q-19 13 -19 49t19 50h150v134q16 19 51 19q36 0 52 -19v-134h151q19 -14 19 -50t-19 -49zM477 0h-404q-19 13 -19 49t19 50h404q19 -14 19 -50t-19 -49z" />
<glyph unicode="&#xb2;" horiz-adv-x="350" d="M266 375h-219v69q4 16 23 25q66 34 90 55.5t24 46.5q0 49 -68 49q-43 0 -59 -18q-6 18 -6 37q0 28 9 46q29 21 84 21q64 0 102.5 -31.5t38.5 -81.5q0 -39 -20 -68t-69 -53q0 -8 6 -8h53q51 0 58 4q0 -89 -47 -93z" />
<glyph unicode="&#xb3;" horiz-adv-x="350" d="M138 503h-48q-9 13 -9 38q0 17 7 36h47q35 0 48 5t13 20q0 14 -12 19t-46 5q-54 0 -72 -18q-9 12 -9 38q0 24 9 40q29 20 90 20q67 0 101.5 -24t34.5 -66q0 -56 -48 -70q-4 -1 -4 -7q53 -14 53 -72q0 -44 -37 -71.5t-106 -27.5q-103 0 -103 59q0 27 15 46q23 -25 83 -25 q53 0 53 29q0 16 -12.5 21t-47.5 5z" />
<glyph unicode="&#xb4;" horiz-adv-x="475" d="M198 515q-55 19 -68 48q98 130 112 157q46 0 74 -22t28 -55q0 -28 -27.5 -53t-118.5 -75z" />
<glyph unicode="&#xb5;" horiz-adv-x="547" d="M510 17q-54 -27 -103 -27q-27 0 -45 7q-12 16 -18 50h-8q-35 -32 -56.5 -43t-44.5 -11q-13 0 -21 6v-104q0 -87 14 -123q-43 -21 -97 -21q-72 0 -72 53v540q0 90 -17 119q65 26 109 26q42 0 62 -19v-292q0 -36 16 -54.5t53 -18.5q29 0 51 10v328q10 46 80 46q41 0 75 -16 v-318q0 -103 22 -138z" />
<glyph unicode="&#xb6;" d="M279 14v592q-12 2 -27 2q-45 0 -66 -41.5t-21 -129.5t17.5 -118t60.5 -30q-7 -36 -28 -56.5t-51 -20.5q-59 0 -94.5 52t-35.5 164q0 143 61.5 212t161.5 69q87 0 131 -24v-702q0 -82 -37 -120.5t-88 -38.5q-54 0 -72 46q46 2 67 31t21 113zM420 -31v716q18 24 42 24 q14 0 21 -10v-665q0 -95 9 -124q-21 -18 -40 -18q-21 0 -26.5 14.5t-5.5 62.5z" />
<glyph unicode="&#xb7;" horiz-adv-x="231" d="M195 254q0 -39 -21 -61.5t-63 -22.5q-34 0 -54.5 20.5t-20.5 53.5q0 38 21.5 61.5t62.5 23.5q35 0 55 -21t20 -54z" />
<glyph unicode="&#xb8;" horiz-adv-x="475" d="M126 -179q62 0 85 9t23 31q0 18 -36 37.5t-36 26.5q0 9 13.5 18.5t58.5 28.5q56 -21 85.5 -46t29.5 -66q0 -44 -42 -74.5t-106 -30.5q-35 0 -51 14t-24 52z" />
<glyph unicode="&#xb9;" horiz-adv-x="350" d="M298 375h-233q-6 11 -6 34q0 32 16 48h75v161q-22 -6 -63 -6h-18q-5 12 -5 28q0 27 12 42l147 24q22 -12 22 -53v-196h64q5 -13 5 -33q0 -36 -16 -49z" />
<glyph unicode="&#xba;" horiz-adv-x="355" d="M171 416q-60 0 -101 37t-41 104q0 72 44 112t110 40q60 0 101.5 -37.5t41.5 -104.5q0 -72 -44.5 -111.5t-110.5 -39.5zM180 490q50 0 50 67q0 78 -55 78q-51 0 -51 -67q0 -78 56 -78z" />
<glyph unicode="&#xbb;" horiz-adv-x="517" d="M496 238l-150 -186q-20 -15 -53 -15q-39 0 -53 16l86 179l-86 190q14 17 52 17q36 0 56 -15zM280 238l-149 -186q-20 -15 -53 -15q-40 0 -54 16l86 179l-86 190q14 17 52 17t56 -15z" />
<glyph unicode="&#xbc;" horiz-adv-x="850" d="M799 60h-23v-59q-19 -8 -43 -8q-42 0 -42 28v39h-150q-5 13 -5 42t7 43l112 180h88q18 0 25.5 -9.5t7.5 -34.5v-141h36q2 -14 2 -27q0 -38 -15 -53zM691 133v101q0 5 -1 6t-6 1l-69 -108h76zM187 13l384 676q19 20 44 20q24 0 47 -23l-384 -676q-19 -20 -44 -20t-47 23z M298 375h-233q-6 11 -6 34q0 32 16 48h75v161q-22 -6 -63 -6h-18q-5 12 -5 28q0 27 12 42l147 24q22 -12 22 -53v-196h64q5 -13 5 -33q0 -36 -16 -49z" />
<glyph unicode="&#xbd;" horiz-adv-x="850" d="M187 13l384 676q19 20 44 20q24 0 47 -23l-384 -676q-19 -20 -44 -20t-47 23zM298 375h-233q-6 11 -6 34q0 32 16 48h75v161q-22 -6 -63 -6h-18q-5 12 -5 28q0 27 12 42l147 24q22 -12 22 -53v-196h64q5 -13 5 -33q0 -36 -16 -49zM766 0h-219v69q4 16 23 25 q66 34 90 55.5t24 46.5q0 49 -68 49q-43 0 -59 -18q-6 18 -6 37q0 28 9 46q29 21 84 21q64 0 102.5 -31.5t38.5 -81.5q0 -39 -20 -68t-69 -53q0 -8 6 -8h53q51 0 58 4q0 -89 -47 -93z" />
<glyph unicode="&#xbe;" horiz-adv-x="850" d="M799 60h-23v-59q-19 -8 -43 -8q-42 0 -42 28v39h-150q-5 13 -5 42t7 43l112 180h88q18 0 25.5 -9.5t7.5 -34.5v-141h36q2 -14 2 -27q0 -38 -15 -53zM691 133v101q0 5 -1 6t-6 1l-69 -108h76zM187 13l384 676q19 20 44 20q24 0 47 -23l-384 -676q-19 -20 -44 -20t-47 23z M138 503h-48q-9 13 -9 38q0 17 7 36h47q35 0 48 5t13 20q0 14 -12 19t-46 5q-54 0 -72 -18q-9 12 -9 38q0 24 9 40q29 20 90 20q67 0 101.5 -24t34.5 -66q0 -56 -48 -70q-4 -1 -4 -7q53 -14 53 -72q0 -44 -37 -71.5t-106 -27.5q-103 0 -103 59q0 27 15 46q23 -25 83 -25 q53 0 53 29q0 16 -12.5 21t-47.5 5z" />
<glyph unicode="&#xbf;" horiz-adv-x="446" d="M245 329q-35 0 -55 20.5t-20 54.5q0 39 22 62t63 23q35 0 55 -20t20 -53q0 -39 -22 -63t-63 -24zM384 -66q14 -33 14 -63q0 -46 -39 -73.5t-110 -27.5q-103 0 -160 46.5t-57 120.5q0 42 25 80t54.5 61.5t54.5 48.5t25 44q0 24 -20 46q35 32 86 32q34 0 56 -19t22 -57 q0 -32 -24 -62.5t-53.5 -51t-53.5 -46.5t-24 -49q0 -60 96 -60q80 0 108 30z" />
<glyph unicode="&#xc0;" horiz-adv-x="613" d="M444 0l-52 181l-196 -12l-24 -80q-10 -36 -10 -64q0 -13 1 -19q-29 -12 -75 -12q-76 0 -76 55q0 21 8 43l169 533q4 47 39.5 63t125.5 16h57q3 -44 39 -159l151 -475q-7 -75 -93 -75q-29 0 -64 5zM359 303l-61 212q-5 0 -11 -19l-59 -207h111q18 0 20 14zM405 779 q-8 -29 -49 -53q-113 23 -148 43.5t-35 53.5q0 28 27 45.5t65 17.5q7 -12 29.5 -29t110.5 -78z" />
<glyph unicode="&#xc1;" horiz-adv-x="613" d="M444 0l-52 181l-196 -12l-24 -80q-10 -36 -10 -64q0 -13 1 -19q-29 -12 -75 -12q-76 0 -76 55q0 21 8 43l169 533q4 47 39.5 63t125.5 16h57q3 -44 39 -159l151 -475q-7 -75 -93 -75q-29 0 -64 5zM359 303l-61 212q-5 0 -11 -19l-59 -207h111q18 0 20 14zM272 726 q-41 24 -49 53q88 61 110.5 78t29.5 29q38 0 65 -17.5t27 -45.5q0 -33 -35 -53.5t-148 -43.5z" />
<glyph unicode="&#xc2;" horiz-adv-x="613" d="M444 0l-52 181l-196 -12l-24 -80q-10 -36 -10 -64q0 -13 1 -19q-29 -12 -75 -12q-76 0 -76 55q0 21 8 43l169 533q4 47 39.5 63t125.5 16h57q3 -44 39 -159l151 -475q-7 -75 -93 -75q-29 0 -64 5zM359 303l-61 212q-5 0 -11 -19l-59 -207h111q18 0 20 14zM414 726 l-116 62l-105 -62q-47 28 -47 56l94 95q24 9 65 9q40 0 66 -9l95 -95q0 -29 -52 -56z" />
<glyph unicode="&#xc3;" horiz-adv-x="613" d="M444 0l-52 181l-196 -12l-24 -80q-10 -36 -10 -64q0 -13 1 -19q-29 -12 -75 -12q-76 0 -76 55q0 21 8 43l169 533q4 47 39.5 63t125.5 16h57q3 -44 39 -159l151 -475q-7 -75 -93 -75q-29 0 -64 5zM359 303l-61 212q-5 0 -11 -19l-59 -207h111q18 0 20 14zM471 853 q-36 -115 -91 -115q-25 0 -73.5 21t-58.5 21q-20 0 -57 -51q-39 17 -45 46q34 114 91 114q25 0 73 -21t59 -21t21.5 9.5t36.5 42.5q41 -19 44 -46z" />
<glyph unicode="&#xc4;" horiz-adv-x="613" d="M444 0l-52 181l-196 -12l-24 -80q-10 -36 -10 -64q0 -13 1 -19q-29 -12 -75 -12q-76 0 -76 55q0 21 8 43l169 533q4 47 39.5 63t125.5 16h57q3 -44 39 -159l151 -475q-7 -75 -93 -75q-29 0 -64 5zM359 303l-61 212q-5 0 -11 -19l-59 -207h111q18 0 20 14zM481 815 q0 -75 -77 -75q-30 0 -48.5 18t-18.5 47q0 76 77 76q30 0 48.5 -18.5t18.5 -47.5zM279 815q0 -75 -77 -75q-30 0 -48.5 18t-18.5 47q0 76 77 76q30 0 48.5 -18.5t18.5 -47.5z" />
<glyph unicode="&#xc5;" horiz-adv-x="613" d="M444 0l-52 181l-196 -12l-24 -80q-10 -36 -10 -64q0 -13 1 -19q-29 -12 -75 -12q-76 0 -76 55q0 21 8 43l169 533q4 47 39.5 63t125.5 16h57q3 -44 39 -159l151 -475q-7 -75 -93 -75q-29 0 -64 5zM359 303l-61 212q-5 0 -11 -19l-59 -207h111q18 0 20 14zM438 831 q0 -102 -132 -102q-61 0 -92.5 25t-31.5 68q0 102 133 102q60 0 91.5 -25.5t31.5 -67.5zM354 828q0 36 -43 36q-44 0 -44 -39q0 -37 43 -37q44 0 44 40z" />
<glyph unicode="&#xc6;" horiz-adv-x="890" d="M795 0h-320q-32 15 -45.5 34.5t-13.5 55.5v205l-173 7l-64 -213q-10 -34 -10 -83q-31 -12 -81 -12q-76 0 -76 55q0 21 8 43l164 517q18 60 31 75t42 15h584q10 -27 10 -53q0 -75 -51 -96l-216 9v-140h233q6 -21 6 -43q0 -69 -48 -92l-191 7v-129q3 -17 19 -17h131 q95 0 120 12q5 -23 5 -46q0 -86 -64 -111zM416 434v131l-92 5l-47 -151h119q15 0 20 15z" />
<glyph unicode="&#xc7;" horiz-adv-x="576" d="M528 57q-63 -67 -189 -67q-136 0 -225 91t-89 259q0 91 26.5 162.5t72.5 116t104.5 67.5t126.5 23q107 0 182 -41q0 -7 -0.5 -47.5t-0.5 -48.5q0 -41 7 -101q-42 -25 -73 -25q-33 0 -50 23.5t-28 97.5q-21 9 -48 9q-66 0 -107 -55t-41 -176q0 -211 187 -211q42 0 81.5 16 t63.5 43q14 -33 14 -68q0 -39 -14 -68zM209 -179q62 0 85 9t23 31q0 18 -36 37.5t-36 26.5q0 9 13.5 18.5t58.5 28.5q56 -21 85.5 -46t29.5 -66q0 -44 -42 -74.5t-106 -30.5q-35 0 -51 14t-24 52z" />
<glyph unicode="&#xc8;" horiz-adv-x="542" d="M447 0h-320q-32 15 -45.5 34.5t-13.5 55.5v455q0 93 -15 137q32 17 221 17h219q10 -27 10 -53q0 -73 -51 -96l-216 8v-139h233q6 -21 6 -43q0 -69 -48 -92l-191 7v-129q3 -17 19 -17h131q95 0 120 12q5 -23 5 -46q0 -86 -64 -111zM369 779q-8 -29 -49 -53 q-113 23 -148 43.5t-35 53.5q0 28 27 45.5t65 17.5q7 -12 29.5 -29t110.5 -78z" />
<glyph unicode="&#xc9;" horiz-adv-x="542" d="M447 0h-320q-32 15 -45.5 34.5t-13.5 55.5v455q0 93 -15 137q32 17 221 17h219q10 -27 10 -53q0 -73 -51 -96l-216 8v-139h233q6 -21 6 -43q0 -69 -48 -92l-191 7v-129q3 -17 19 -17h131q95 0 120 12q5 -23 5 -46q0 -86 -64 -111zM237 726q-41 24 -49 53q88 61 110.5 78 t29.5 29q38 0 65 -17.5t27 -45.5q0 -33 -35 -53.5t-148 -43.5z" />
<glyph unicode="&#xca;" horiz-adv-x="542" d="M447 0h-320q-32 15 -45.5 34.5t-13.5 55.5v455q0 93 -15 137q32 17 221 17h219q10 -27 10 -53q0 -73 -51 -96l-216 8v-139h233q6 -21 6 -43q0 -69 -48 -92l-191 7v-129q3 -17 19 -17h131q95 0 120 12q5 -23 5 -46q0 -86 -64 -111zM388 726l-116 62l-105 -62 q-47 28 -47 56l94 95q24 9 65 9q40 0 66 -9l95 -95q0 -29 -52 -56z" />
<glyph unicode="&#xcb;" horiz-adv-x="542" d="M447 0h-320q-32 15 -45.5 34.5t-13.5 55.5v455q0 93 -15 137q32 17 221 17h219q10 -27 10 -53q0 -73 -51 -96l-216 8v-139h233q6 -21 6 -43q0 -69 -48 -92l-191 7v-129q3 -17 19 -17h131q95 0 120 12q5 -23 5 -46q0 -86 -64 -111zM454 815q0 -75 -77 -75q-30 0 -48.5 18 t-18.5 47q0 76 77 76q30 0 48.5 -18.5t18.5 -47.5zM252 815q0 -75 -77 -75q-30 0 -48.5 18t-18.5 47q0 76 77 76q30 0 48.5 -18.5t18.5 -47.5z" />
<glyph unicode="&#xcc;" horiz-adv-x="358" d="M306 0h-275q-7 22 -7 46q0 50 27 70h46v466h-66q-8 26 -8 48q0 47 28 69h275q8 -23 8 -47q0 -48 -28 -70h-45v-466h66q7 -28 7 -47q0 -47 -28 -69zM282 779q-8 -29 -49 -53q-113 23 -148 43.5t-35 53.5q0 28 27 45.5t65 17.5q7 -12 29.5 -29t110.5 -78z" />
<glyph unicode="&#xcd;" horiz-adv-x="358" d="M306 0h-275q-7 22 -7 46q0 50 27 70h46v466h-66q-8 26 -8 48q0 47 28 69h275q8 -23 8 -47q0 -48 -28 -70h-45v-466h66q7 -28 7 -47q0 -47 -28 -69zM139 726q-41 24 -49 53q88 61 110.5 78t29.5 29q38 0 65 -17.5t27 -45.5q0 -33 -35 -53.5t-148 -43.5z" />
<glyph unicode="&#xce;" horiz-adv-x="358" d="M306 0h-275q-7 22 -7 46q0 50 27 70h46v466h-66q-8 26 -8 48q0 47 28 69h275q8 -23 8 -47q0 -48 -28 -70h-45v-466h66q7 -28 7 -47q0 -47 -28 -69zM286 726l-109 62l-99 -62q-45 29 -45 56l89 95q23 9 61 9t62 -9l90 -95q0 -29 -49 -56z" />
<glyph unicode="&#xcf;" horiz-adv-x="358" d="M340 815q0 -75 -75 -75q-30 0 -47.5 18t-17.5 47q0 76 75 76q29 0 47 -18.5t18 -47.5zM159 815q0 -75 -75 -75q-30 0 -47.5 18t-17.5 47q0 76 75 76q29 0 47 -18.5t18 -47.5zM306 0h-275q-7 22 -7 46q0 50 27 70h46v466h-66q-8 26 -8 48q0 47 28 69h275q8 -23 8 -47 q0 -48 -28 -70h-45v-466h66q7 -28 7 -47q0 -47 -28 -69z" />
<glyph unicode="&#xd0;" horiz-adv-x="659" d="M68 103v208h-42q-8 20 -8 48t8 49h42v147q0 85 -15 129q80 25 224 25q174 0 265.5 -87.5t91.5 -258.5q0 -172 -94.5 -270.5t-252.5 -98.5q-109 0 -177 17q-25 26 -33.5 45.5t-8.5 46.5zM274 570h-38v-162h89q8 -21 8 -49t-8 -48h-89v-162q6 -16 69 -16q158 0 158 230 q0 114 -48 160.5t-141 46.5z" />
<glyph unicode="&#xd1;" horiz-adv-x="678" d="M423 48l-207 427q-9 0 -9 -8l12 -463q-36 -14 -78 -14q-40 0 -57 13.5t-17 43.5q0 16 0.5 248t0.5 254q0 96 -14 138q64 22 132 22q34 0 51.5 -10.5t31.5 -38.5l194 -401q8 0 8 9l-10 329q-2 63 -11 91q54 21 95 21q50 0 65 -37v-660q-47 -22 -102 -22q-31 0 -49 11.5 t-36 46.5zM508 853q-36 -115 -91 -115q-25 0 -73.5 21t-58.5 21q-20 0 -57 -51q-39 17 -45 46q35 114 91 114q26 0 74 -21t58 -21q11 0 21.5 9.5t36.5 42.5q41 -19 44 -46z" />
<glyph unicode="&#xd2;" horiz-adv-x="655" d="M319 -10q-128 0 -211 88t-83 272q0 179 89 269t222 90q60 0 111.5 -20t93 -61.5t65.5 -112.5t24 -166q0 -92 -25.5 -163t-69.5 -112.5t-98.5 -62.5t-117.5 -21zM331 131q128 0 128 218q0 118 -34 168.5t-102 50.5q-127 0 -127 -218q0 -119 34 -169t101 -50zM429 779 q-8 -29 -49 -53q-113 23 -148 43.5t-35 53.5q0 28 27 45.5t65 17.5q7 -12 29.5 -29t110.5 -78z" />
<glyph unicode="&#xd3;" horiz-adv-x="655" d="M319 -10q-128 0 -211 88t-83 272q0 179 89 269t222 90q60 0 111.5 -20t93 -61.5t65.5 -112.5t24 -166q0 -92 -25.5 -163t-69.5 -112.5t-98.5 -62.5t-117.5 -21zM331 131q128 0 128 218q0 118 -34 168.5t-102 50.5q-127 0 -127 -218q0 -119 34 -169t101 -50zM285 726 q-41 24 -49 53q88 61 110.5 78t29.5 29q38 0 65 -17.5t27 -45.5q0 -33 -35 -53.5t-148 -43.5z" />
<glyph unicode="&#xd4;" horiz-adv-x="655" d="M319 -10q-128 0 -211 88t-83 272q0 179 89 269t222 90q60 0 111.5 -20t93 -61.5t65.5 -112.5t24 -166q0 -92 -25.5 -163t-69.5 -112.5t-98.5 -62.5t-117.5 -21zM331 131q128 0 128 218q0 118 -34 168.5t-102 50.5q-127 0 -127 -218q0 -119 34 -169t101 -50zM436 726 l-116 62l-105 -62q-47 28 -47 56l94 95q24 9 65 9q40 0 66 -9l95 -95q0 -29 -52 -56z" />
<glyph unicode="&#xd5;" horiz-adv-x="655" d="M319 -10q-128 0 -211 88t-83 272q0 179 89 269t222 90q60 0 111.5 -20t93 -61.5t65.5 -112.5t24 -166q0 -92 -25.5 -163t-69.5 -112.5t-98.5 -62.5t-117.5 -21zM331 131q128 0 128 218q0 118 -34 168.5t-102 50.5q-127 0 -127 -218q0 -119 34 -169t101 -50zM491 853 q-36 -115 -91 -115q-25 0 -73.5 21t-58.5 21q-20 0 -57 -51q-39 17 -45 46q34 114 91 114q25 0 73 -21t59 -21t21.5 9.5t36.5 42.5q41 -19 44 -46z" />
<glyph unicode="&#xd6;" horiz-adv-x="655" d="M319 -10q-128 0 -211 88t-83 272q0 179 89 269t222 90q60 0 111.5 -20t93 -61.5t65.5 -112.5t24 -166q0 -92 -25.5 -163t-69.5 -112.5t-98.5 -62.5t-117.5 -21zM331 131q128 0 128 218q0 118 -34 168.5t-102 50.5q-127 0 -127 -218q0 -119 34 -169t101 -50zM501 815 q0 -75 -77 -75q-30 0 -48.5 18t-18.5 47q0 76 77 76q30 0 48.5 -18.5t18.5 -47.5zM299 815q0 -75 -77 -75q-30 0 -48.5 18t-18.5 47q0 76 77 76q30 0 48.5 -18.5t18.5 -47.5z" />
<glyph unicode="&#xd7;" d="M413 57l-138 142l-138 -142q-23 1 -47.5 24.5t-27.5 48.5l142 140l-142 141q3 25 27.5 48t47.5 25l138 -143l138 143q23 -2 47.5 -25t27.5 -48l-142 -141l142 -140q-3 -25 -27.5 -48.5t-47.5 -24.5z" />
<glyph unicode="&#xd8;" horiz-adv-x="655" d="M319 -10q-80 0 -144 34l-64 -115q-11 -6 -28 -6t-28 6l79 143q-109 91 -109 298q0 179 89 269t222 90q80 0 144 -35l64 116q10 6 28 6q16 0 28 -6l-80 -144q110 -92 110 -297q0 -92 -25.5 -163t-69.5 -112.5t-98.5 -62.5t-117.5 -21zM196 350q0 -94 22 -147l187 337 q-29 28 -82 28q-127 0 -127 -218zM331 131q128 0 128 218q0 94 -23 146l-187 -337q31 -27 82 -27z" />
<glyph unicode="&#xd9;" horiz-adv-x="652" d="M437 166v429q0 66 -7 94q49 20 100 20q48 0 62 -37v-432q0 -120 -69 -185t-196 -65q-128 0 -197.5 65.5t-69.5 184.5v303q0 98 -11 145q55 21 106 21q56 0 72 -37v-418q0 -117 123 -117q58 0 87 29zM419 779q-8 -29 -49 -53q-113 23 -148 43.5t-35 53.5q0 28 27 45.5 t65 17.5q7 -12 29.5 -29t110.5 -78z" />
<glyph unicode="&#xda;" horiz-adv-x="652" d="M437 166v429q0 66 -7 94q49 20 100 20q48 0 62 -37v-432q0 -120 -69 -185t-196 -65q-128 0 -197.5 65.5t-69.5 184.5v303q0 98 -11 145q55 21 106 21q56 0 72 -37v-418q0 -117 123 -117q58 0 87 29zM292 726q-41 24 -49 53q88 61 110.5 78t29.5 29q38 0 65 -17.5 t27 -45.5q0 -33 -35 -53.5t-148 -43.5z" />
<glyph unicode="&#xdb;" horiz-adv-x="652" d="M437 166v429q0 66 -7 94q49 20 100 20q48 0 62 -37v-432q0 -120 -69 -185t-196 -65q-128 0 -197.5 65.5t-69.5 184.5v303q0 98 -11 145q55 21 106 21q56 0 72 -37v-418q0 -117 123 -117q58 0 87 29zM441 726l-116 62l-105 -62q-47 28 -47 56l94 95q24 9 65 9q40 0 66 -9 l95 -95q0 -29 -52 -56z" />
<glyph unicode="&#xdc;" horiz-adv-x="652" d="M437 166v429q0 66 -7 94q49 20 100 20q48 0 62 -37v-432q0 -120 -69 -185t-196 -65q-128 0 -197.5 65.5t-69.5 184.5v303q0 98 -11 145q55 21 106 21q56 0 72 -37v-418q0 -117 123 -117q58 0 87 29zM508 815q0 -75 -77 -75q-30 0 -48.5 18t-18.5 47q0 76 77 76 q30 0 48.5 -18.5t18.5 -47.5zM306 815q0 -75 -77 -75q-30 0 -48.5 18t-18.5 47q0 76 77 76q30 0 48.5 -18.5t18.5 -47.5z" />
<glyph unicode="&#xdd;" horiz-adv-x="542" d="M376 22q-49 -32 -113 -32q-76 0 -76 67v213l-189 395q67 44 116 44q36 0 60 -24l101 -245q5 -13 14 -13l74 181q19 46 19 89q40 7 84 7q70 0 70 -43q0 -15 -15 -48l-166 -343v-140q0 -79 21 -108zM249 727q-41 24 -49 53q88 61 110.5 78t29.5 29q38 0 65 -17.5t27 -45.5 q0 -33 -35 -53.5t-148 -43.5z" />
<glyph unicode="&#xde;" horiz-adv-x="581" d="M274 460h-38v-213q24 -2 38 -2q59 0 91 28t32 81q0 106 -123 106zM236 153v-39q0 -74 11 -101q-51 -23 -93 -23q-39 0 -62.5 16.5t-23.5 50.5v493q0 96 -13 138q53 21 108 21t73 -37v-79h21q302 0 302 -239q0 -101 -66.5 -164.5t-159.5 -63.5q-66 0 -97 27z" />
<glyph unicode="&#xdf;" horiz-adv-x="581" d="M56 -90q10 28 10 107v330l-48 76q0 32 20 47h28q7 116 76 188.5t189 72.5q95 0 148.5 -42.5t53.5 -115.5q0 -33 -15 -66t-32.5 -54t-32.5 -43.5t-15 -37.5q0 -19 19.5 -44t42.5 -47.5t42.5 -58.5t19.5 -73q0 -71 -50 -115t-130 -44q-113 0 -113 71q0 40 12 70 q9 -12 33.5 -20.5t51.5 -8.5q44 0 44 34q0 13 -19 34t-42.5 41t-42.5 52.5t-19 65.5q0 40 26.5 81t53 75.5t26.5 56.5q0 63 -80 63q-36 0 -62 -13q-30 -33 -30 -158v-404q0 -70 -26 -100.5t-77 -30.5q-34 0 -62 11z" />
<glyph unicode="&#xe0;" horiz-adv-x="468" d="M409 99l44 -16q-4 -49 -24 -79q-25 -14 -56 -14q-54 0 -98 41q-41 -26 -64 -33.5t-55 -7.5q-60 0 -95 34.5t-35 88.5q0 71 60 110t185 51v25q0 28 -18 41.5t-59 13.5q-77 0 -123 -30q-27 32 -27 78q0 13 3 25q22 27 68.5 44.5t103.5 17.5q92 0 144 -47t52 -139 q0 -22 -3 -103t-3 -101zM271 94v101q-58 -7 -82 -20.5t-24 -43.5q0 -44 61 -44q28 0 45 7zM304 563q-13 -29 -68 -48q-91 50 -118.5 75t-27.5 53q0 33 28 55t74 22q14 -27 112 -157z" />
<glyph unicode="&#xe1;" horiz-adv-x="468" d="M409 99l44 -16q-4 -49 -24 -79q-25 -14 -56 -14q-54 0 -98 41q-41 -26 -64 -33.5t-55 -7.5q-60 0 -95 34.5t-35 88.5q0 71 60 110t185 51v25q0 28 -18 41.5t-59 13.5q-77 0 -123 -30q-27 32 -27 78q0 13 3 25q22 27 68.5 44.5t103.5 17.5q92 0 144 -47t52 -139 q0 -22 -3 -103t-3 -101zM271 94v101q-58 -7 -82 -20.5t-24 -43.5q0 -44 61 -44q28 0 45 7zM216 515q-55 19 -68 48q98 130 112 157q46 0 74 -22t28 -55q0 -28 -27.5 -53t-118.5 -75z" />
<glyph unicode="&#xe2;" horiz-adv-x="468" d="M409 99l44 -16q-4 -49 -24 -79q-25 -14 -56 -14q-54 0 -98 41q-41 -26 -64 -33.5t-55 -7.5q-60 0 -95 34.5t-35 88.5q0 71 60 110t185 51v25q0 28 -18 41.5t-59 13.5q-77 0 -123 -30q-27 32 -27 78q0 13 3 25q22 27 68.5 44.5t103.5 17.5q92 0 144 -47t52 -139 q0 -22 -3 -103t-3 -101zM271 94v101q-58 -7 -82 -20.5t-24 -43.5q0 -44 61 -44q28 0 45 7zM391 566q-6 -29 -63 -51l-108 87l-98 -87q-55 23 -62 51l107 140q21 9 58 9t60 -9z" />
<glyph unicode="&#xe3;" horiz-adv-x="468" d="M409 99l44 -16q-4 -49 -24 -79q-25 -14 -56 -14q-54 0 -98 41q-41 -26 -64 -33.5t-55 -7.5q-60 0 -95 34.5t-35 88.5q0 71 60 110t185 51v25q0 28 -18 41.5t-59 13.5q-77 0 -123 -30q-27 32 -27 78q0 13 3 25q22 27 68.5 44.5t103.5 17.5q92 0 144 -47t52 -139 q0 -22 -3 -103t-3 -101zM271 94v101q-58 -7 -82 -20.5t-24 -43.5q0 -44 61 -44q28 0 45 7zM399 650q-36 -116 -96 -116q-26 0 -77 19.5t-61 19.5q-12 0 -23.5 -9.5t-37.5 -41.5q-41 18 -47 48q37 116 96 116q27 0 77.5 -19.5t61.5 -19.5t22 9t39 42q43 -19 46 -48z" />
<glyph unicode="&#xe4;" horiz-adv-x="468" d="M409 99l44 -16q-4 -49 -24 -79q-25 -14 -56 -14q-54 0 -98 41q-41 -26 -64 -33.5t-55 -7.5q-60 0 -95 34.5t-35 88.5q0 71 60 110t185 51v25q0 28 -18 41.5t-59 13.5q-77 0 -123 -30q-27 32 -27 78q0 13 3 25q22 27 68.5 44.5t103.5 17.5q92 0 144 -47t52 -139 q0 -22 -3 -103t-3 -101zM271 94v101q-58 -7 -82 -20.5t-24 -43.5q0 -44 61 -44q28 0 45 7zM321 529q-30 0 -48.5 21t-18.5 54q0 88 77 88q30 0 48.5 -21.5t18.5 -54.5q0 -87 -77 -87zM119 529q-30 0 -48.5 21t-18.5 54q0 45 21 66.5t56 21.5q30 0 48.5 -21.5t18.5 -54.5 q0 -87 -77 -87z" />
<glyph unicode="&#xe5;" horiz-adv-x="468" d="M409 99l44 -16q-4 -49 -24 -79q-25 -14 -56 -14q-54 0 -98 41q-41 -26 -64 -33.5t-55 -7.5q-60 0 -95 34.5t-35 88.5q0 71 60 110t185 51v25q0 28 -18 41.5t-59 13.5q-77 0 -123 -30q-27 32 -27 78q0 13 3 25q22 27 68.5 44.5t103.5 17.5q92 0 144 -47t52 -139 q0 -22 -3 -103t-3 -101zM271 94v101q-58 -7 -82 -20.5t-24 -43.5q0 -44 61 -44q28 0 45 7zM355 642q0 -59 -37.5 -88t-101.5 -29q-57 0 -91.5 29t-34.5 75q0 58 36.5 87.5t102.5 29.5q57 0 91.5 -29t34.5 -75zM267 637q0 41 -44 41q-45 0 -45 -44q0 -41 44 -41q45 0 45 44z " />
<glyph unicode="&#xe6;" horiz-adv-x="723" d="M275 195q-62 -7 -86 -20t-24 -44q0 -44 63 -44q38 0 72 17q-21 43 -25 91zM271 274v25q0 28 -18 41.5t-59 13.5q-77 0 -123 -30q-27 32 -27 78q0 13 3 25q22 27 68.5 44.5t103.5 17.5q91 0 139 -50q58 50 141 50q94 0 147 -53t53 -146q0 -42 -7 -70q-21 -14 -151 -14 q-73 0 -131 3q3 -48 39 -72.5t97 -24.5q82 0 124 37q9 -22 9 -55q0 -23 -5 -45q-48 -59 -164 -59q-98 0 -157 48q-93 -48 -182 -48q-71 0 -108 34t-37 89q0 71 60 110t185 51zM414 295h93q41 0 57 3q1 6 1 17q0 35 -20.5 52t-55.5 17q-32 0 -52 -23t-23 -66z" />
<glyph unicode="&#xe7;" horiz-adv-x="437" d="M406 49q-47 -59 -149 -59q-101 0 -168.5 66.5t-67.5 171.5q0 118 74 189.5t182 71.5q87 0 127 -30q6 -21 6 -46q0 -46 -15 -76q-20 15 -62 25.5t-82 10.5q-25 0 -50 -35t-25 -94q0 -65 33.5 -97t91.5 -32q65 0 100 35q10 -21 10 -57q0 -22 -5 -44zM125 -179q62 0 85 9 t23 31q0 18 -36 37.5t-36 26.5q0 9 13.5 18.5t58.5 28.5q56 -21 85.5 -46t29.5 -66q0 -44 -42 -74.5t-106 -30.5q-35 0 -51 14t-24 52z" />
<glyph unicode="&#xe8;" horiz-adv-x="484" d="M435 49q-48 -59 -164 -59q-111 0 -180.5 65.5t-69.5 177.5q0 119 67.5 187.5t171.5 68.5q94 0 147 -53t53 -146q0 -42 -7 -70q-21 -14 -151 -14q-72 0 -131 3q3 -48 39.5 -72.5t96.5 -24.5q82 0 124 37q9 -22 9 -55q0 -23 -5 -45zM175 295h94q41 0 56 3q1 6 1 17 q0 35 -20.5 52t-54.5 17q-32 0 -52 -23t-24 -66zM332 563q-13 -29 -68 -48q-91 50 -118.5 75t-27.5 53q0 33 28 55t74 22q14 -27 112 -157z" />
<glyph unicode="&#xe9;" horiz-adv-x="484" d="M435 49q-48 -59 -164 -59q-111 0 -180.5 65.5t-69.5 177.5q0 119 67.5 187.5t171.5 68.5q94 0 147 -53t53 -146q0 -42 -7 -70q-21 -14 -151 -14q-72 0 -131 3q3 -48 39.5 -72.5t96.5 -24.5q82 0 124 37q9 -22 9 -55q0 -23 -5 -45zM175 295h94q41 0 56 3q1 6 1 17 q0 35 -20.5 52t-54.5 17q-32 0 -52 -23t-24 -66zM250 515q-55 19 -68 48q98 130 112 157q46 0 74 -22t28 -55q0 -28 -27.5 -53t-118.5 -75z" />
<glyph unicode="&#xea;" horiz-adv-x="484" d="M435 49q-48 -59 -164 -59q-111 0 -180.5 65.5t-69.5 177.5q0 119 67.5 187.5t171.5 68.5q94 0 147 -53t53 -146q0 -42 -7 -70q-21 -14 -151 -14q-72 0 -131 3q3 -48 39.5 -72.5t96.5 -24.5q82 0 124 37q9 -22 9 -55q0 -23 -5 -45zM175 295h94q41 0 56 3q1 6 1 17 q0 35 -20.5 52t-54.5 17q-32 0 -52 -23t-24 -66zM421 566q-6 -29 -63 -51l-108 87l-98 -87q-55 23 -62 51l107 140q21 9 58 9t60 -9z" />
<glyph unicode="&#xeb;" horiz-adv-x="484" d="M435 49q-48 -59 -164 -59q-111 0 -180.5 65.5t-69.5 177.5q0 119 67.5 187.5t171.5 68.5q94 0 147 -53t53 -146q0 -42 -7 -70q-21 -14 -151 -14q-72 0 -131 3q3 -48 39.5 -72.5t96.5 -24.5q82 0 124 37q9 -22 9 -55q0 -23 -5 -45zM175 295h94q41 0 56 3q1 6 1 17 q0 35 -20.5 52t-54.5 17q-32 0 -52 -23t-24 -66zM350 529q-30 0 -48.5 21t-18.5 54q0 88 77 88q30 0 48.5 -21.5t18.5 -54.5q0 -87 -77 -87zM148 529q-30 0 -48.5 21t-18.5 54q0 45 21 66.5t56 21.5q30 0 48.5 -21.5t18.5 -54.5q0 -87 -77 -87z" />
<glyph unicode="&#xec;" horiz-adv-x="268" d="M56 72v248q0 110 -14 148q59 21 102 21q50 0 67 -35v-321q0 -78 22 -112q-51 -31 -100 -31q-40 0 -58.5 19t-18.5 63zM204 565q-6 -15 -20 -26.5t-47 -23.5q-73 53 -95 77.5t-22 51.5q0 33 31 54.5t77 21.5q4 -19 15.5 -43t60.5 -112z" />
<glyph unicode="&#xed;" horiz-adv-x="268" d="M56 72v248q0 110 -14 148q59 21 102 21q50 0 67 -35v-321q0 -78 22 -112q-51 -31 -100 -31q-40 0 -58.5 19t-18.5 63zM135 515q-33 12 -47 23.5t-20 26.5q49 88 60.5 112t15.5 43q46 0 77 -21.5t31 -54.5q0 -27 -22 -51.5t-95 -77.5z" />
<glyph unicode="&#xee;" horiz-adv-x="268" d="M56 72v248q0 110 -14 148q59 21 102 21q50 0 67 -35v-321q0 -78 22 -112q-51 -31 -100 -31q-40 0 -58.5 19t-18.5 63zM268 566q-6 -26 -64 -51l-75 93l-66 -93q-33 13 -46.5 24t-16.5 27l74 140q20 9 59 9q40 0 61 -9z" />
<glyph unicode="&#xef;" horiz-adv-x="268" d="M56 72v248q0 110 -14 148q59 21 102 21q50 0 67 -35v-321q0 -78 22 -112q-51 -31 -100 -31q-40 0 -58.5 19t-18.5 63zM209 529q-28 0 -43 20.5t-15 55.5q0 87 64 87q26 0 41 -21t15 -55q0 -87 -62 -87zM56 529q-27 0 -42 20.5t-15 55.5q0 87 63 87q27 0 42.5 -21 t15.5 -55q0 -87 -64 -87z" />
<glyph unicode="&#xf0;" horiz-adv-x="513" d="M364 690l-62 -43q189 -138 189 -347q0 -145 -68 -227.5t-173 -82.5q-102 0 -165 64.5t-63 183.5q0 116 63.5 181.5t155.5 65.5q18 0 34 -4q-34 52 -79 94l-74 -51q-45 14 -59 49l76 52q-17 15 -57 45q4 17 25 34.5t47 26.5q40 -18 80 -41l72 49q45 -15 58 -49zM332 282 q0 52 -12 100q-30 4 -47 4q-94 0 -94 -142q0 -140 90 -140q9 0 15 2q48 28 48 176z" />
<glyph unicode="&#xf1;" horiz-adv-x="545" d="M339 78v220q0 37 -15.5 55t-52.5 18q-32 0 -60 -10v-355q-32 -16 -72 -16q-83 0 -83 51v280q0 104 -16 142q66 26 107 26q28 0 46 -8q9 -14 9 -51h8q72 59 142 59q65 0 104 -38t39 -116q0 -23 -1 -100t-1 -101q0 -81 21 -113q-44 -31 -89 -31q-44 0 -65 20.5t-21 67.5z M447 650q-36 -116 -96 -116q-26 0 -77 19.5t-61 19.5q-12 0 -23.5 -9.5t-37.5 -41.5q-41 18 -47 48q37 116 96 116q27 0 77.5 -19.5t61.5 -19.5t22 9t39 42q43 -19 46 -48z" />
<glyph unicode="&#xf2;" horiz-adv-x="532" d="M258 -10q-100 0 -168.5 63.5t-68.5 177.5q0 116 73 187t180 71q100 0 168.5 -63.5t68.5 -177.5q0 -116 -73 -187t-180 -71zM269 111q41 0 66.5 29.5t25.5 89.5q0 72 -28 104.5t-70 32.5q-41 0 -66.5 -29t-25.5 -90q0 -72 28 -104.5t70 -32.5zM354 563q-13 -29 -68 -48 q-91 50 -118.5 75t-27.5 53q0 33 28 55t74 22q14 -27 112 -157z" />
<glyph unicode="&#xf3;" horiz-adv-x="532" d="M258 -10q-100 0 -168.5 63.5t-68.5 177.5q0 116 73 187t180 71q100 0 168.5 -63.5t68.5 -177.5q0 -116 -73 -187t-180 -71zM269 111q41 0 66.5 29.5t25.5 89.5q0 72 -28 104.5t-70 32.5q-41 0 -66.5 -29t-25.5 -90q0 -72 28 -104.5t70 -32.5zM250 515q-55 19 -68 48 q98 130 112 157q46 0 74 -22t28 -55q0 -28 -27.5 -53t-118.5 -75z" />
<glyph unicode="&#xf4;" horiz-adv-x="532" d="M258 -10q-100 0 -168.5 63.5t-68.5 177.5q0 116 73 187t180 71q100 0 168.5 -63.5t68.5 -177.5q0 -116 -73 -187t-180 -71zM269 111q41 0 66.5 29.5t25.5 89.5q0 72 -28 104.5t-70 32.5q-41 0 -66.5 -29t-25.5 -90q0 -72 28 -104.5t70 -32.5zM431 566q-6 -29 -63 -51 l-108 87l-98 -87q-55 23 -62 51l107 140q21 9 58 9t60 -9z" />
<glyph unicode="&#xf5;" horiz-adv-x="532" d="M258 -10q-100 0 -168.5 63.5t-68.5 177.5q0 116 73 187t180 71q100 0 168.5 -63.5t68.5 -177.5q0 -116 -73 -187t-180 -71zM269 111q41 0 66.5 29.5t25.5 89.5q0 72 -28 104.5t-70 32.5q-41 0 -66.5 -29t-25.5 -90q0 -72 28 -104.5t70 -32.5zM437 650q-36 -116 -96 -116 q-26 0 -77 19.5t-61 19.5q-12 0 -23.5 -9.5t-37.5 -41.5q-41 18 -47 48q37 116 96 116q27 0 77.5 -19.5t61.5 -19.5t22 9t39 42q43 -19 46 -48z" />
<glyph unicode="&#xf6;" horiz-adv-x="532" d="M258 -10q-100 0 -168.5 63.5t-68.5 177.5q0 116 73 187t180 71q100 0 168.5 -63.5t68.5 -177.5q0 -116 -73 -187t-180 -71zM269 111q41 0 66.5 29.5t25.5 89.5q0 72 -28 104.5t-70 32.5q-41 0 -66.5 -29t-25.5 -90q0 -72 28 -104.5t70 -32.5zM364 529q-30 0 -48.5 21 t-18.5 54q0 88 77 88q30 0 48.5 -21.5t18.5 -54.5q0 -87 -77 -87zM162 529q-30 0 -48.5 21t-18.5 54q0 45 21 66.5t56 21.5q30 0 48.5 -21.5t18.5 -54.5q0 -87 -77 -87z" />
<glyph unicode="&#xf7;" d="M477 222h-404q-19 13 -19 48q0 36 19 50h404q19 -14 19 -49t-19 -49zM352 74q0 -39 -21.5 -61.5t-63.5 -22.5q-34 0 -54.5 20t-20.5 53q0 39 22 62.5t63 23.5q35 0 55 -20.5t20 -54.5zM354 465q0 -39 -21.5 -62t-62.5 -23q-35 0 -55 20.5t-20 53.5q0 38 21.5 62t62.5 24 q35 0 55 -21t20 -54z" />
<glyph unicode="&#xf8;" horiz-adv-x="532" d="M258 -10q-53 0 -101 20l-61 -103q-10 -6 -27 -6q-15 0 -27 6l74 125q-95 65 -95 199q0 116 73 187t180 71q53 0 101 -20l61 103q12 6 27 6q17 0 27 -6l-74 -125q95 -68 95 -199q0 -116 -73 -187t-180 -71zM269 111q41 0 66.5 29.5t25.5 89.5q0 56 -20 91l-118 -199 q19 -11 46 -11zM171 248q0 -58 19 -91l118 199q-19 11 -45 11q-41 0 -66.5 -29t-25.5 -90z" />
<glyph unicode="&#xf9;" horiz-adv-x="541" d="M339 47h-8q-41 -33 -69.5 -45t-64.5 -12q-65 0 -105 38.5t-40 115.5q0 23 1 99.5t1 100.5q0 90 -17 119q65 26 109 26q42 0 62 -19v-292q0 -71 67 -71q25 0 53 11v325q10 46 80 46q41 0 75 -16v-318q0 -103 22 -138q-54 -27 -103 -27q-27 0 -45 7q-14 19 -18 50zM354 563 q-13 -29 -68 -48q-91 50 -118.5 75t-27.5 53q0 33 28 55t74 22q14 -27 112 -157z" />
<glyph unicode="&#xfa;" horiz-adv-x="541" d="M339 47h-8q-41 -33 -69.5 -45t-64.5 -12q-65 0 -105 38.5t-40 115.5q0 23 1 99.5t1 100.5q0 90 -17 119q65 26 109 26q42 0 62 -19v-292q0 -71 67 -71q25 0 53 11v325q10 46 80 46q41 0 75 -16v-318q0 -103 22 -138q-54 -27 -103 -27q-27 0 -45 7q-14 19 -18 50zM264 515 q-55 19 -68 48q98 130 112 157q46 0 74 -22t28 -55q0 -28 -27.5 -53t-118.5 -75z" />
<glyph unicode="&#xfb;" horiz-adv-x="541" d="M339 47h-8q-41 -33 -69.5 -45t-64.5 -12q-65 0 -105 38.5t-40 115.5q0 23 1 99.5t1 100.5q0 90 -17 119q65 26 109 26q42 0 62 -19v-292q0 -71 67 -71q25 0 53 11v325q10 46 80 46q41 0 75 -16v-318q0 -103 22 -138q-54 -27 -103 -27q-27 0 -45 7q-14 19 -18 50zM434 566 q-6 -29 -63 -51l-108 87l-98 -87q-55 23 -62 51l107 140q21 9 58 9q38 0 60 -9z" />
<glyph unicode="&#xfc;" horiz-adv-x="541" d="M339 47h-8q-41 -33 -69.5 -45t-64.5 -12q-65 0 -105 38.5t-40 115.5q0 23 1 99.5t1 100.5q0 90 -17 119q65 26 109 26q42 0 62 -19v-292q0 -71 67 -71q25 0 53 11v325q10 46 80 46q41 0 75 -16v-318q0 -103 22 -138q-54 -27 -103 -27q-27 0 -45 7q-14 19 -18 50zM368 529 q-30 0 -48.5 21t-18.5 54q0 88 77 88q30 0 48.5 -21.5t18.5 -54.5q0 -87 -77 -87zM166 529q-30 0 -48.5 21t-18.5 54q0 45 21 66.5t56 21.5q30 0 48.5 -21.5t18.5 -54.5q0 -87 -77 -87z" />
<glyph unicode="&#xfd;" horiz-adv-x="488" d="M333 476q38 8 69 8q67 0 67 -55t-60 -223l-60 -166q-56 -157 -112 -223t-120 -66q-48 0 -71 26t-23 68q0 20 7 50q27 -9 52 -9q76 0 122 121q-39 1 -56 11.5t-26 41.5l-110 382q61 47 108 47q43 0 63 -24q0 -50 28 -162l38 -153q2 -10 4 -12.5t8 -2.5l45 170 q27 103 27 171zM245 515q-55 19 -68 48q98 130 112 157q46 0 74 -22t28 -55q0 -28 -27.5 -53t-118.5 -75z" />
<glyph unicode="&#xfe;" horiz-adv-x="544" d="M211 375v-259q27 -15 61 -15q39 0 65 36.5t26 99.5q0 73 -32 107t-86 34q-21 0 -34 -3zM56 -196v781q0 92 -13 123q63 23 106 23q40 0 62 -22v-260h8q46 40 96 40q89 0 147 -62.5t58 -172.5q0 -120 -73.5 -192t-171.5 -72q-33 0 -64 11v-106q0 -89 15 -123 q-45 -21 -97 -21q-73 0 -73 53z" />
<glyph unicode="&#xff;" horiz-adv-x="488" d="M333 476q38 8 69 8q67 0 67 -55t-60 -223l-60 -166q-56 -157 -112 -223t-120 -66q-48 0 -71 26t-23 68q0 20 7 50q27 -9 52 -9q76 0 122 121q-39 1 -56 11.5t-26 41.5l-110 382q61 47 108 47q43 0 63 -24q0 -50 28 -162l38 -153q2 -10 4 -12.5t8 -2.5l45 170 q27 103 27 171zM354 529q-30 0 -48.5 21t-18.5 54q0 88 77 88q30 0 48.5 -21.5t18.5 -54.5q0 -87 -77 -87zM152 529q-30 0 -48.5 21t-18.5 54q0 45 21 66.5t56 21.5q30 0 48.5 -21.5t18.5 -54.5q0 -87 -77 -87z" />
<glyph unicode="&#x131;" horiz-adv-x="268" d="M56 72v248q0 110 -14 148q59 21 102 21q50 0 67 -35v-321q0 -78 22 -112q-51 -31 -100 -31q-40 0 -58.5 19t-18.5 63z" />
<glyph unicode="&#x132;" horiz-adv-x="621" d="M572 699q0 -52 -19 -117v-560q0 -106 -54.5 -163t-130.5 -57q-27 0 -49 8q-24 28 -24 92q54 5 72 31t18 95v671h187zM261 699v-699h-230q-7 22 -7 46q0 50 27 70h46v466h-66q-8 26 -8 48q0 47 28 69h210z" />
<glyph unicode="&#x133;" horiz-adv-x="529" d="M219 632q0 -87 -89 -87q-37 0 -58.5 21t-21.5 55q0 41 23 64t68 23q37 0 57.5 -21t20.5 -55zM56 72v248q0 110 -14 148q59 21 102 21q50 0 67 -35v-321q0 -78 22 -112q-51 -31 -100 -31q-40 0 -58.5 19t-18.5 63zM317 -11v331q0 110 -14 148q58 21 102 21q50 0 67 -35 v-453q0 -125 -35 -187.5t-88 -62.5q-65 0 -99 71q34 10 50.5 47t16.5 120zM480 632q0 -87 -89 -87q-37 0 -58.5 21t-21.5 55q0 41 23 64t68 23q37 0 57.5 -21t20.5 -55z" />
<glyph unicode="&#x141;" horiz-adv-x="508" d="M432 0h-305q-32 15 -45.5 34.5t-13.5 55.5v221l-39 -10q-9 21 -9 49q0 30 8 50l40 11v133q0 103 -12 144q52 21 107 21t73 -37v-216l94 26q8 -20 8 -49q0 -28 -7 -49l-95 -27v-194q4 -17 19 -17h117q94 0 120 11q5 -22 5 -45q0 -87 -65 -112z" />
<glyph unicode="&#x142;" horiz-adv-x="268" d="M56 72v249l-35 -11q-8 19 -8 47q0 27 7 48l36 12v161q0 100 -15 127q58 26 108 26q40 0 62 -25v-238l38 13q7 -17 9 -47q0 -28 -8 -48l-39 -13v-264q0 -60 21 -88q-48 -31 -100 -31q-40 0 -58 19t-18 63z" />
<glyph unicode="&#x152;" horiz-adv-x="928" d="M832 0h-313q-38 14 -43 59q-56 -69 -168 -69q-59 0 -108.5 20t-89.5 61.5t-62.5 112.5t-22.5 166q0 178 84.5 268.5t211.5 90.5q106 0 155 -62q8 38 40 52h362q10 -23 10 -53q0 -75 -50 -96l-217 8v-139h233q7 -20 7 -43q0 -68 -48 -92l-192 7v-129q3 -17 19 -17h132 q95 0 120 12q5 -23 5 -46q0 -86 -65 -111zM331 131q128 0 128 218q0 118 -34 168t-102 50q-127 0 -127 -217q0 -119 34 -169t101 -50z" />
<glyph unicode="&#x153;" horiz-adv-x="814" d="M270 111q41 0 66 27.5t25 88.5q0 74 -28 107t-71 33q-41 0 -66 -27.5t-25 -88.5q0 -74 28 -107t71 -33zM506 295h93q41 0 57 3q1 6 1 17q0 35 -20.5 52t-55.5 17q-32 0 -52 -23t-23 -66zM765 49q-48 -59 -164 -59t-176 71q-63 -71 -174 -71q-99 0 -164.5 63.5 t-65.5 177.5q0 121 70.5 189.5t178.5 68.5q103 0 162 -70q59 70 159 70q94 0 146.5 -53t52.5 -146q0 -48 -7 -70q-20 -14 -150 -14q-74 0 -131 3q3 -48 39 -72.5t97 -24.5q83 0 123 37q10 -21 10 -55q0 -26 -6 -45z" />
<glyph unicode="&#x160;" horiz-adv-x="511" d="M449 544q-39 24 -126 24q-67 0 -93.5 -17.5t-26.5 -53.5q0 -19 20.5 -34t51 -25t66.5 -27t66.5 -37.5t51 -59.5t20.5 -91q0 -104 -73 -168.5t-200 -64.5q-169 0 -169 111q0 44 13 78q44 -48 158 -48q55 0 79 18t24 54q0 22 -20.5 38t-51 26t-66 26.5t-66 36t-51 57.5 t-20.5 89q0 102 70.5 167.5t202.5 65.5q101 0 145 -31q10 -27 10 -60q0 -41 -15 -74zM437 833l-95 -95q-23 -9 -65 -9q-40 0 -66 9l-94 95q0 29 52 56l116 -62l104 62q48 -28 48 -56z" />
<glyph unicode="&#x161;" horiz-adv-x="382" d="M38 134q40 -31 110 -31q55 0 55 38q0 16 -27 30t-60 26t-60 42.5t-27 76.5q0 76 54.5 124.5t152.5 48.5q70 0 101 -23q11 -21 11 -52q0 -29 -10 -54q-34 16 -91 16q-63 0 -63 -39q0 -15 27 -27.5t59 -24t59 -44.5t27 -84q0 -73 -57.5 -120t-147.5 -47q-125 0 -125 74 q0 36 12 70zM373 665l-107 -140q-23 -10 -58 -10t-60 10l-106 140q6 27 64 51l107 -87l98 87q31 -13 45 -24.5t17 -26.5z" />
<glyph unicode="&#x178;" horiz-adv-x="542" d="M376 22q-49 -32 -113 -32q-76 0 -76 67v213l-189 395q67 44 116 44q36 0 60 -24l101 -245q5 -13 14 -13l74 181q19 46 19 89q40 7 84 7q70 0 70 -43q0 -15 -15 -48l-166 -343v-140q0 -79 21 -108zM455 815q0 -75 -77 -75q-30 0 -48.5 18t-18.5 47q0 76 77 76 q30 0 48.5 -18.5t18.5 -47.5zM253 815q0 -75 -77 -75q-30 0 -48.5 18t-18.5 47q0 76 77 76q30 0 48.5 -18.5t18.5 -47.5z" />
<glyph unicode="&#x17d;" horiz-adv-x="543" d="M450 0h-392q-29 16 -29 49v62q0 41 54 117l234 330l-261 -8q-18 45 -18 83q0 45 27 66h445v-93q-4 -31 -35 -74l-267 -375q0 -12 16 -12h153q106 0 134 8q4 -17 4 -42q0 -86 -65 -111zM440 833l-95 -95q-23 -9 -65 -9q-40 0 -66 9l-94 95q0 29 52 56l116 -62l104 62 q48 -28 48 -56z" />
<glyph unicode="&#x17e;" horiz-adv-x="429" d="M309 0h-241q-18 0 -29 12t-11 26v75q13 30 95 115l120 122l-181 -7q-31 13 -31 64q0 38 14 72h215q92 0 130 2q6 -36 6 -64q0 -58 -30 -88l-177 -186q0 -10 12 -10h116q87 0 87 -67q0 -28 -18 -71q-22 5 -77 5zM380 665l-107 -140q-23 -10 -58 -10t-60 10l-106 140 q6 27 64 51l107 -87l98 87q31 -13 45 -24.5t17 -26.5z" />
<glyph unicode="&#x17f;" horiz-adv-x="282" d="M56 -90q10 28 10 107v330l-48 76q0 32 20 47h28q7 114 72 187.5t170 73.5q51 0 79 -15q2 -18 2 -29q0 -51 -26 -96q-16 8 -50 8q-35 0 -62 -15q-30 -32 -30 -150v-404q0 -70 -26 -100.5t-77 -30.5q-34 0 -62 11z" />
<glyph unicode="&#x192;" d="M475 306l-156 -41v-247q0 -116 -44.5 -174.5t-118.5 -58.5q-44 0 -67.5 21.5t-23.5 54.5q0 29 15 54q18 -8 34 -8q52 0 52 94v223l-134 -36q-6 16 -6 32t6 32l134 35v125q0 142 66.5 219.5t171.5 77.5q62 0 95 -19q7 -17 7 -43q0 -46 -21 -81q-22 11 -62 11 q-104 0 -104 -121v-128l156 41q6 -15 6 -32q0 -16 -6 -31z" />
<glyph unicode="&#x2bb;" horiz-adv-x="226" d="M197 509q-6 -22 -30 -39t-59 -17q-40 0 -63 25t-23 62q0 83 111 160q12 9 25 9q31 0 58 -42q-38 -42 -51.5 -64.5t-13.5 -40.5q0 -32 46 -53z" />
<glyph unicode="&#x2bc;" horiz-adv-x="226" d="M10 495q65 71 65 104t-46 54q6 21 30 38.5t59 17.5q40 0 63 -25t23 -63q0 -83 -111 -160q-13 -8 -25 -8q-32 0 -58 42z" />
<glyph unicode="&#x2c6;" horiz-adv-x="475" d="M402 566q-6 -29 -63 -51l-108 87l-98 -87q-55 23 -62 51l107 140q21 9 58 9q38 0 60 -9z" />
<glyph unicode="&#x2c7;" horiz-adv-x="475" d="M402 665l-107 -140q-23 -10 -58 -10t-60 10l-106 140q6 27 64 51l107 -87l98 87q31 -13 45 -24.5t17 -26.5z" />
<glyph unicode="&#x2d8;" horiz-adv-x="475" d="M332 714q59 -13 70 -45q-20 -76 -62.5 -115t-101.5 -39q-61 0 -104.5 39.5t-60.5 114.5q10 31 72 45q28 -87 96 -87q33 0 54.5 20.5t36.5 66.5z" />
<glyph unicode="&#x2d9;" horiz-adv-x="475" d="M322 632q0 -87 -90 -87q-36 0 -57.5 21t-21.5 55q0 41 23 64t67 23q37 0 58 -21t21 -55z" />
<glyph unicode="&#x2da;" horiz-adv-x="475" d="M369 642q0 -59 -37.5 -88t-101.5 -29q-57 0 -91.5 29t-34.5 75q0 58 36.5 87.5t102.5 29.5q57 0 91.5 -29t34.5 -75zM281 637q0 41 -44 41q-45 0 -45 -44q0 -41 44 -41q45 0 45 44z" />
<glyph unicode="&#x2db;" horiz-adv-x="475" d="M339 -215q-32 -30 -89 -30q-59 0 -90.5 26t-31.5 69q0 46 35 87t135 100q28 0 38 -11q-59 -59 -79.5 -91.5t-20.5 -60.5q0 -43 54 -43q30 0 57 15q3 -8 3 -17q0 -24 -11 -44z" />
<glyph unicode="&#x2dc;" horiz-adv-x="475" d="M408 650q-36 -116 -96 -116q-26 0 -77 19.5t-61 19.5q-12 0 -23.5 -9.5t-37.5 -41.5q-41 18 -47 48q37 116 96 116q27 0 77.5 -19.5t61.5 -19.5t22 9t39 42q43 -19 46 -48z" />
<glyph unicode="&#x2dd;" horiz-adv-x="475" d="M295 515q-52 19 -64 50q48 89 59 112.5t14 42.5q44 0 74 -21.5t30 -54.5q0 -27 -21.5 -51.5t-91.5 -77.5zM120 515q-52 19 -64 50q48 89 59 112.5t14 42.5q44 0 74 -21.5t30 -54.5q0 -27 -21.5 -51.5t-91.5 -77.5z" />
<glyph unicode="&#x300;" horiz-adv-x="1" d="M-177 563q-13 -29 -68 -48q-91 50 -118.5 75t-27.5 53q0 33 28 55t74 22q14 -27 112 -157z" />
<glyph unicode="&#x301;" horiz-adv-x="1" d="M-281 515q-55 19 -68 48q98 130 112 157q46 0 74 -22t28 -55q0 -28 -27.5 -53t-118.5 -75z" />
<glyph unicode="&#x302;" horiz-adv-x="1" d="M-100 566q-6 -29 -63 -51l-108 87l-98 -87q-55 23 -62 51l107 140q21 9 58 9q38 0 60 -9z" />
<glyph unicode="&#x303;" horiz-adv-x="1" d="M-94 650q-36 -116 -96 -116q-26 0 -77 19.5t-61 19.5q-12 0 -23.5 -9.5t-37.5 -41.5q-41 18 -47 48q37 116 96 116q27 0 77.5 -19.5t61.5 -19.5t22 9t39 42q43 -19 46 -48z" />
<glyph unicode="&#x304;" horiz-adv-x="1" d="M-117 568h-260q-7 18 -7 44q0 50 27 73h260q7 -18 7 -44q0 -49 -27 -73z" />
<glyph unicode="&#x306;" horiz-adv-x="1" d="M-142 714q59 -13 70 -45q-20 -76 -62.5 -115t-101.5 -39q-61 0 -104.5 39.5t-60.5 114.5q10 31 72 45q28 -87 96 -87q33 0 54.5 20.5t36.5 66.5z" />
<glyph unicode="&#x307;" horiz-adv-x="1" d="M-48 632q0 -87 -89 -87q-37 0 -58.5 21t-21.5 55q0 41 23 64t68 23q37 0 57.5 -21t20.5 -55z" />
<glyph unicode="&#x308;" horiz-adv-x="1" d="M-141 529q-30 0 -48.5 21t-18.5 54q0 88 77 88q30 0 48.5 -21.5t18.5 -54.5q0 -87 -77 -87zM-343 529q-30 0 -48.5 21t-18.5 54q0 45 21 66.5t56 21.5q30 0 48.5 -21.5t18.5 -54.5q0 -87 -77 -87z" />
<glyph unicode="&#x30a;" horiz-adv-x="1" d="M-105 642q0 -59 -37.5 -88t-101.5 -29q-57 0 -91.5 29t-34.5 75q0 58 36.5 87.5t102.5 29.5q57 0 91.5 -29t34.5 -75zM-193 637q0 41 -44 41q-45 0 -45 -44q0 -41 44 -41q45 0 45 44z" />
<glyph unicode="&#x30b;" horiz-adv-x="1" d="M-179 515q-52 19 -64 50q48 89 59 112.5t14 42.5q44 0 74 -21.5t30 -54.5q0 -27 -21.5 -51.5t-91.5 -77.5zM-354 515q-52 19 -64 50q48 89 59 112.5t14 42.5q44 0 74 -21.5t30 -54.5q0 -27 -21.5 -51.5t-91.5 -77.5z" />
<glyph unicode="&#x30c;" horiz-adv-x="1" d="M-48 665l-107 -140q-23 -10 -58 -10t-60 10l-106 140q6 27 64 51l107 -87l98 87q31 -13 45 -24.5t17 -26.5z" />
<glyph unicode="&#x312;" horiz-adv-x="1" d="M311 585q-4 -21 -28 -38.5t-58 -17.5q-41 0 -62.5 21.5t-21.5 52.5q0 72 108 134q10 6 23 6q36 0 58 -37q-39 -31 -52.5 -47.5t-13.5 -30.5q0 -27 47 -43z" />
<glyph unicode="&#x313;" horiz-adv-x="1" d="M140 567q40 32 53 47.5t13 30.5q0 27 -47 43q4 21 27.5 38t57.5 17q41 0 62.5 -21t21.5 -53q0 -71 -108 -134q-10 -6 -23 -6q-35 0 -57 38z" />
<glyph unicode="&#x326;" horiz-adv-x="1" d="M140 -211q40 32 53 46.5t13 28.5q0 24 -47 40q17 62 87 62q40 0 61 -21.5t21 -52.5q0 -74 -108 -134q-8 -6 -19 -6q-28 0 -61 37z" />
<glyph unicode="&#x327;" horiz-adv-x="1" d="M-222 -179q62 0 85 9t23 31q0 18 -36 37.5t-36 26.5q0 9 13.5 18.5t58.5 28.5q56 -21 85.5 -46t29.5 -66q0 -44 -42 -74.5t-106 -30.5q-35 0 -51 14t-24 52z" />
<glyph unicode="&#x328;" horiz-adv-x="1" d="M339 -215q-32 -30 -89 -30q-59 0 -90.5 26t-31.5 69q0 46 35 87t135 100q28 0 38 -11q-59 -59 -79.5 -91.5t-20.5 -60.5q0 -43 54 -43q30 0 57 15q3 -8 3 -17q0 -24 -11 -44z" />
<glyph unicode="&#x335;" horiz-adv-x="1" d="M-131 231h-260q-8 21 -8 51q0 29 8 52h260q8 -23 8 -52q0 -30 -8 -51z" />
<glyph unicode="&#x336;" horiz-adv-x="1" d="M-105 227h-308q-8 23 -8 55t8 55h308q8 -23 8 -55t-8 -55z" />
<glyph unicode="&#x394;" horiz-adv-x="613" d="M595 90q0 -38 -21.5 -64t-61.5 -26h-423q-35 0 -54 16t-19 45q0 22 10 50l163 514q4 47 39.5 63t124.5 16h58q3 -46 39 -159zM407 140l-108 375q-7 0 -12 -19l-102 -356h222z" />
<glyph unicode="&#x3a9;" horiz-adv-x="699" d="M621 0h-222q-19 40 -19 84q0 23 8 47q43 31 71.5 96.5t28.5 147.5q0 103 -36.5 147t-103.5 44q-138 0 -138 -190q0 -163 100 -245q7 -21 7 -47q0 -44 -19 -84h-221q-39 4 -58.5 33.5t-19.5 70.5q0 27 9 54q27 -12 152 -12q-56 47 -87.5 114.5t-31.5 145.5q0 145 89.5 224 t223.5 79q131 0 217 -74.5t86 -225.5q0 -81 -31.5 -149.5t-87.5 -113.5q125 0 153 12q8 -30 8 -54q0 -41 -19.5 -70.5t-58.5 -33.5z" />
<glyph unicode="&#x3bc;" horiz-adv-x="547" d="M510 17q-54 -27 -103 -27q-27 0 -45 7q-12 16 -18 50h-8q-35 -32 -56.5 -43t-44.5 -11q-13 0 -21 6v-104q0 -87 14 -123q-43 -21 -97 -21q-72 0 -72 53v540q0 90 -17 119q65 26 109 26q42 0 62 -19v-292q0 -36 16 -54.5t53 -18.5q29 0 51 10v328q10 46 80 46q41 0 75 -16 v-318q0 -103 22 -138z" />
<glyph unicode="&#x3c0;" horiz-adv-x="590" d="M572 479q5 -22 5 -52q0 -26 -8.5 -52.5t-20.5 -36.5h-74v-201q0 -23 10 -31.5t31 -8.5q19 0 30 3q0 -52 -23.5 -81t-68.5 -29q-53 0 -77 31t-24 95v222h-126v-334q-22 -14 -57 -14q-45 0 -65 23v325h-76q-11 25 -11 60q0 38 13 59.5t35 21.5h507z" />
<glyph unicode="&#x2007;" />
<glyph unicode="&#x2008;" horiz-adv-x="231" />
<glyph unicode="&#x200b;" horiz-adv-x="0" />
<glyph unicode="&#x2013;" horiz-adv-x="500" d="M442 194h-384q-8 28 -8 64q0 37 8 64h384q8 -27 8 -64q0 -36 -8 -64z" />
<glyph unicode="&#x2014;" horiz-adv-x="1000" d="M942 194h-884q-8 28 -8 64q0 37 8 64h884q8 -27 8 -64q0 -36 -8 -64z" />
<glyph unicode="&#x2018;" horiz-adv-x="226" d="M197 509q-6 -22 -30 -39t-59 -17q-40 0 -63 25t-23 62q0 83 111 160q12 9 25 9q31 0 58 -42q-38 -42 -51.5 -64.5t-13.5 -40.5q0 -32 46 -53z" />
<glyph unicode="&#x2019;" horiz-adv-x="226" d="M10 495q65 71 65 104t-46 54q6 21 30 38.5t59 17.5q40 0 63 -25t23 -63q0 -83 -111 -160q-13 -8 -25 -8q-32 0 -58 42z" />
<glyph unicode="&#x201a;" horiz-adv-x="226" d="M10 22q65 71 65 104t-46 54q6 21 30 38.5t59 17.5q40 0 63 -25t23 -63q0 -83 -111 -160q-13 -8 -25 -8q-32 0 -58 42z" />
<glyph unicode="&#x201c;" horiz-adv-x="423" d="M394 504q-6 -22 -30 -39t-59 -17q-40 0 -63 25t-23 62q0 83 111 160q12 9 25 9q31 0 58 -42q-38 -42 -51.5 -64.5t-13.5 -40.5q0 -32 46 -53zM197 504q-6 -22 -30 -39t-59 -17q-40 0 -63 25t-23 62q0 83 111 160q12 9 25 9q31 0 58 -42q-38 -42 -51.5 -64.5t-13.5 -40.5 q0 -32 46 -53z" />
<glyph unicode="&#x201d;" horiz-adv-x="423" d="M207 490q65 71 65 104t-46 54q6 21 30 38.5t59 17.5q40 0 63 -25t23 -63q0 -83 -111 -160q-13 -8 -25 -8q-32 0 -58 42zM10 490q65 71 65 104t-46 54q6 21 30 38.5t59 17.5q40 0 63 -25t23 -63q0 -83 -111 -160q-13 -8 -25 -8q-32 0 -58 42z" />
<glyph unicode="&#x201e;" horiz-adv-x="423" d="M207 17q65 71 65 104t-46 54q6 21 30 38.5t59 17.5q40 0 63 -25t23 -63q0 -83 -111 -160q-13 -8 -25 -8q-32 0 -58 42zM10 17q65 71 65 104t-46 54q6 21 30 38.5t59 17.5q40 0 63 -25t23 -63q0 -83 -111 -160q-13 -8 -25 -8q-32 0 -58 42z" />
<glyph unicode="&#x2020;" d="M225 -167l-26 528l-145 -28q-9 54 -9 90q0 39 9 56t34 17l134 -35l-33 202q0 26 18 36t60 10q58 0 93 -13l-39 -235l135 35q24 0 33.5 -17.5t9.5 -55.5q0 -40 -10 -90l-144 28l-26 -528q-27 -9 -52 -9q-24 0 -42 9z" />
<glyph unicode="&#x2021;" d="M456 6l-135 34l34 -171q0 -26 -18.5 -35.5t-60.5 -9.5q-61 0 -92 12l38 204l-134 -34q-25 0 -34 17t-9 56q0 36 9 90l145 -28l26 126l-26 124l-145 -28q-9 54 -9 91q0 38 9.5 55t33.5 17l134 -34l-33 171q0 26 18 36t60 10q58 0 93 -13l-39 -204l135 34q24 0 33.5 -17.5 t9.5 -54.5q0 -41 -10 -91l-144 28l-26 -124l26 -126l144 28q10 -50 10 -90q0 -38 -9.5 -55.5t-33.5 -17.5z" />
<glyph unicode="&#x2022;" horiz-adv-x="306" d="M266 255q0 -56 -30 -87.5t-89 -31.5q-48 0 -77 29.5t-29 75.5q0 54 31 87t88 33q49 0 77.5 -29.5t28.5 -76.5z" />
<glyph unicode="&#x2026;" horiz-adv-x="695" d="M427 76q0 -39 -21 -61.5t-63 -22.5q-34 0 -54.5 20.5t-20.5 53.5q0 38 21.5 61.5t62.5 23.5q35 0 55 -21t20 -54zM659 76q0 -39 -21 -61.5t-63 -22.5q-34 0 -54.5 20.5t-20.5 53.5q0 38 21.5 61.5t62.5 23.5q35 0 55 -21t20 -54zM195 76q0 -39 -21 -61.5t-63 -22.5 q-34 0 -54.5 20.5t-20.5 53.5q0 38 21.5 61.5t62.5 23.5q35 0 55 -21t20 -54z" />
<glyph unicode="&#x2030;" horiz-adv-x="1136" d="M941 17q-76 0 -119 42.5t-43 126.5q0 83 45 129t116 46q77 0 120 -42.5t43 -126.5q0 -83 -45 -129t-117 -46zM941 103q55 0 55 90q0 43 -12.5 62t-43.5 19q-54 0 -54 -90q0 -43 12.5 -62t42.5 -19zM195 339q-76 0 -119 42.5t-43 126.5q0 83 45 129t116 46q76 0 119 -42.5 t43 -126.5q0 -83 -45 -129t-116 -46zM195 425q55 0 55 90q0 43 -13 62t-43 19q-54 0 -54 -89q0 -43 12.5 -62.5t42.5 -19.5zM585 17q-76 0 -119 42.5t-43 126.5q0 83 45 129t116 46q77 0 120 -42.5t43 -126.5q0 -83 -45 -129t-117 -46zM585 103q55 0 55 90q0 43 -13 62 t-43 19q-54 0 -54 -90q0 -43 12.5 -62t42.5 -19zM151 13l397 676q16 20 39 20q20 0 41 -23l-397 -676q-16 -20 -39 -20q-20 0 -41 23z" />
<glyph unicode="&#x2039;" horiz-adv-x="302" d="M169 52l-148 186l150 186q20 15 53 15q39 0 53 -17l-86 -178l86 -191q-14 -16 -52 -16q-36 0 -56 15z" />
<glyph unicode="&#x203a;" horiz-adv-x="302" d="M280 238l-149 -186q-20 -15 -53 -15q-40 0 -54 16l86 179l-86 190q14 17 52 17t56 -15z" />
<glyph unicode="&#x2044;" horiz-adv-x="150" d="M-163 13l384 676q19 20 44 20q24 0 47 -23l-384 -676q-19 -20 -44 -20t-47 23z" />
<glyph unicode="&#x2070;" horiz-adv-x="350" d="M173 368q-69 0 -105.5 42t-36.5 125q0 81 40.5 126t104.5 45q68 0 105 -42.5t37 -124.5q0 -81 -40 -126t-105 -45zM175 450q51 0 51 91q0 44 -12.5 63.5t-39.5 19.5q-26 0 -38.5 -21t-12.5 -71q0 -43 12.5 -62.5t39.5 -19.5z" />
<glyph unicode="&#x2074;" horiz-adv-x="350" d="M299 434h-23v-59q-19 -8 -43 -8q-42 0 -42 28v39h-150q-5 13 -5 42t7 43l112 180h88q18 0 25.5 -9.5t7.5 -34.5v-141h36q2 -14 2 -27q0 -38 -15 -53zM191 507v101q0 5 -1 6t-6 1l-69 -108h76z" />
<glyph unicode="&#x2075;" horiz-adv-x="350" d="M270 611h-122v-29q0 -6 8 -6q72 0 105.5 -24t33.5 -74q0 -53 -37.5 -81.5t-106.5 -28.5q-99 0 -99 59q0 28 16 47q21 -24 80 -24q53 0 53 27q0 15 -13 20.5t-52 5.5h-51q-19 24 -19 76v120h222q4 -8 4 -30q0 -40 -22 -58z" />
<glyph unicode="&#x2076;" horiz-adv-x="350" d="M283 608q-18 16 -65 16q-78 0 -82 -64l5 -1q22 22 61 22q50 0 78.5 -25.5t28.5 -74.5q0 -53 -34 -83t-94 -30q-140 0 -140 150q0 94 47.5 141t126.5 47q51 0 78 -16q4 -11 4 -28q0 -35 -14 -54zM134 506v-9q0 -57 45 -57q39 0 39 37t-46 37q-24 0 -38 -8z" />
<glyph unicode="&#x2077;" horiz-adv-x="350" d="M309 699v-69q-1 -19 -17 -36q-66 -68 -89.5 -116t-23.5 -105q-18 -6 -42 -6q-52 0 -52 48q0 44 25.5 88t85.5 101q0 6 -7 6h-83q-43 0 -59 -8q-9 16 -9 45q0 39 18 52h253z" />
<glyph unicode="&#x2078;" horiz-adv-x="350" d="M254 556q0 -5 3 -6q51 -29 51 -84q0 -43 -36.5 -70.5t-98.5 -27.5q-131 0 -131 81q0 53 56 77q0 4 -3 5q-50 26 -50 78q0 43 36.5 70.5t97.5 27.5q60 0 92.5 -21.5t32.5 -59.5q0 -49 -50 -70zM158 507q-29 -18 -29 -41q0 -29 46 -29q43 0 43 28q0 14 -14 23t-46 19z M192 576q24 16 24 36q0 26 -41 26q-39 0 -39 -25q0 -12 12 -20t44 -17z" />
<glyph unicode="&#x2079;" horiz-adv-x="350" d="M209 514q-21 -21 -61 -21q-50 0 -78.5 25.5t-28.5 74.5q0 53 34 83t94 30q140 0 140 -150q0 -95 -47.5 -141.5t-127.5 -46.5q-81 0 -81 56q0 26 14 45q19 -19 65 -19q78 0 82 63q0 1 -5 1zM216 568v9q0 57 -45 57q-39 0 -39 -37q0 -38 46 -38q25 0 38 9z" />
<glyph unicode="&#x2080;" horiz-adv-x="350" d="M173 -172q-69 0 -105.5 42t-36.5 125q0 81 40.5 126t104.5 45q68 0 105 -42.5t37 -124.5q0 -81 -40 -126t-105 -45zM175 -90q51 0 51 91q0 44 -12.5 63.5t-39.5 19.5q-26 0 -38.5 -21t-12.5 -71q0 -43 12.5 -62.5t39.5 -19.5z" />
<glyph unicode="&#x2081;" horiz-adv-x="350" d="M298 -165h-233q-6 11 -6 34q0 32 16 48h75v161q-22 -6 -63 -6h-18q-5 12 -5 28q0 27 12 42l147 24q22 -12 22 -53v-196h64q5 -13 5 -33q0 -36 -16 -49z" />
<glyph unicode="&#x2082;" horiz-adv-x="350" d="M266 -165h-219v69q4 16 23 25q66 34 90 55.5t24 46.5q0 49 -68 49q-43 0 -59 -18q-6 18 -6 37q0 28 9 46q29 21 84 21q64 0 102.5 -31.5t38.5 -81.5q0 -39 -20 -68t-69 -53q0 -8 6 -8h53q51 0 58 4q0 -89 -47 -93z" />
<glyph unicode="&#x2083;" horiz-adv-x="350" d="M138 -37h-48q-9 14 -9 38q0 17 7 36h47q35 0 48 5t13 20q0 14 -12 19t-46 5q-54 0 -72 -18q-9 12 -9 38q0 24 9 40q29 20 90 20q67 0 101.5 -24t34.5 -66q0 -56 -48 -70q-4 -1 -4 -7q53 -14 53 -72q0 -44 -37 -71.5t-106 -27.5q-103 0 -103 59q0 27 15 46q23 -25 83 -25 q53 0 53 29q0 16 -12.5 21t-47.5 5z" />
<glyph unicode="&#x2084;" horiz-adv-x="350" d="M299 -106h-23v-59q-19 -8 -43 -8q-42 0 -42 28v39h-150q-5 13 -5 42t7 43l112 180h88q18 0 25.5 -9.5t7.5 -34.5v-141h36q2 -14 2 -27q0 -38 -15 -53zM191 -33v101q0 5 -1 6t-6 1l-69 -108h76z" />
<glyph unicode="&#x2085;" horiz-adv-x="350" d="M270 71h-122v-29q0 -6 8 -6q72 0 105.5 -24t33.5 -74q0 -53 -37.5 -81.5t-106.5 -28.5q-99 0 -99 59q0 28 16 47q21 -24 80 -24q53 0 53 27q0 15 -13 20.5t-52 5.5h-51q-19 24 -19 76v120h222q4 -8 4 -30q0 -40 -22 -58z" />
<glyph unicode="&#x2086;" horiz-adv-x="350" d="M283 68q-18 16 -65 16q-78 0 -82 -64l5 -1q22 22 61 22q50 0 78.5 -25.5t28.5 -74.5q0 -53 -34 -83t-94 -30q-140 0 -140 150q0 94 47.5 141t126.5 47q51 0 78 -16q4 -11 4 -28q0 -35 -14 -54zM134 -34v-9q0 -57 45 -57q39 0 39 37t-46 37q-24 0 -38 -8z" />
<glyph unicode="&#x2087;" horiz-adv-x="350" d="M309 159v-69q-1 -19 -17 -36q-66 -68 -89.5 -116t-23.5 -105q-18 -6 -42 -6q-52 0 -52 48q0 44 25.5 88t85.5 101q0 6 -7 6h-83q-43 0 -59 -8q-9 16 -9 45q0 39 18 52h253z" />
<glyph unicode="&#x2088;" horiz-adv-x="350" d="M254 16q0 -5 3 -6q51 -29 51 -84q0 -43 -36.5 -70.5t-98.5 -27.5q-131 0 -131 81q0 53 56 77q0 4 -3 5q-50 26 -50 78q0 43 36.5 70.5t97.5 27.5q60 0 92.5 -21.5t32.5 -59.5q0 -49 -50 -70zM158 -33q-29 -18 -29 -41q0 -29 46 -29q43 0 43 28q0 14 -14 23t-46 19z M192 36q24 16 24 36q0 26 -41 26q-39 0 -39 -25q0 -12 12 -20t44 -17z" />
<glyph unicode="&#x2089;" horiz-adv-x="350" d="M209 -26q-21 -21 -61 -21q-50 0 -78.5 25.5t-28.5 74.5q0 53 34 83t94 30q140 0 140 -150q0 -95 -47.5 -141.5t-127.5 -46.5q-81 0 -81 56q0 26 14 45q19 -19 65 -19q78 0 82 63q0 1 -5 1zM216 28v9q0 57 -45 57q-39 0 -39 -37q0 -38 46 -38q25 0 38 9z" />
<glyph unicode="&#x20ac;" d="M411 279h-176q22 -156 156 -156q63 0 99 38q14 -30 14 -60q0 -53 -44 -83q-42 -28 -115 -28q-108 0 -184 77t-88 212h-44q-5 15 -5 28q0 11 5 28h42q0 17 2 49h-44q-5 15 -5 28q0 11 5 28h51q22 132 100 200.5t184 68.5q90 0 133 -31q8 -19 8 -54q0 -46 -15 -79 q-42 30 -107 30q-119 0 -145 -135h226q0 -32 -18 -56h-215q-1 -11 -1 -32v-17h199q0 -32 -18 -56z" />
<glyph unicode="&#x2116;" horiz-adv-x="913" d="M824 186l-203 -42q-9 15 -9 38q0 49 31 73l205 21q9 -14 9 -28q0 -34 -33 -62zM379 58l-171 371q-8 0 -8 -8q14 -218 14 -316q0 -84 -32.5 -124.5t-84.5 -40.5q-39 0 -60 21.5t-21 57.5q0 10 2 20h7q33 0 48.5 34.5t15.5 128.5q0 222 -4.5 300.5t-16.5 109.5 q62 32 121 32q33 0 51.5 -13t31.5 -44l142 -335q8 0 8 9q-12 164 -12 270t44.5 159.5t114.5 53.5q41 0 62.5 -20t21.5 -50q0 -16 -6 -33h-7q-107 0 -107 -172q0 -178 7 -444q-42 -25 -82 -25q-30 0 -46.5 12t-32.5 46zM728 292q-62 0 -104 40.5t-42 112.5q0 74 45 117.5 t112 43.5q62 0 104 -41t42 -112q0 -74 -44.5 -117.5t-112.5 -43.5zM735 376q44 0 44 68q0 78 -47 78q-44 0 -44 -68q0 -78 47 -78z" />
<glyph unicode="&#x2122;" horiz-adv-x="643" d="M613 437q-25 -14 -50 -14q-38 0 -38 39v125q-5 0 -6 -2l-40 -137q-15 -6 -41 -6q-30 0 -39 22l-34 121q-1 2 -6 2v-158q-18 -6 -36 -6q-36 0 -36 28q0 12 3.5 94.5t3.5 93.5q0 36 -7 56q30 6 71 6q27 0 35 -14l49 -153q1 -2 6 -2l48 152q9 17 47 17q34 0 56 -5v-63 q0 -174 14 -196zM231 623l-57 2v-145q0 -31 9 -44q-28 -13 -54 -13q-39 0 -39 33v169l-73 -3q-7 16 -7 32q0 30 18 45h224q3 -12 3 -24q0 -40 -24 -52z" />
<glyph unicode="&#x2126;" horiz-adv-x="699" d="M621 0h-222q-19 40 -19 84q0 23 8 47q43 31 71.5 96.5t28.5 147.5q0 103 -36.5 147t-103.5 44q-138 0 -138 -190q0 -163 100 -245q7 -21 7 -47q0 -44 -19 -84h-221q-39 4 -58.5 33.5t-19.5 70.5q0 27 9 54q27 -12 152 -12q-56 47 -87.5 114.5t-31.5 145.5q0 145 89.5 224 t223.5 79q131 0 217 -74.5t86 -225.5q0 -81 -31.5 -149.5t-87.5 -113.5q125 0 153 12q8 -30 8 -54q0 -41 -19.5 -70.5t-58.5 -33.5z" />
<glyph unicode="&#x2153;" horiz-adv-x="850" d="M298 375h-233q-6 11 -6 34q0 32 16 48h75v161q-22 -6 -63 -6h-18q-5 12 -5 28q0 27 12 42l147 24q22 -12 22 -53v-196h64q5 -13 5 -33q0 -36 -16 -49zM187 13l384 676q19 20 44 20q24 0 47 -23l-384 -676q-19 -20 -44 -20t-47 23zM638 128h-48q-9 14 -9 38q0 17 7 36h47 q35 0 48 5t13 20q0 14 -12 19t-46 5q-54 0 -72 -18q-9 12 -9 38q0 23 9 40q29 20 90 20q67 0 101.5 -24t34.5 -66q0 -56 -48 -70q-4 -1 -4 -7q53 -14 53 -72q0 -44 -37 -71.5t-106 -27.5q-103 0 -103 59q0 26 15 46q23 -25 83 -25q53 0 53 29q0 16 -12.5 21t-47.5 5z" />
<glyph unicode="&#x2154;" horiz-adv-x="850" d="M266 375h-219v69q4 16 23 25q66 34 90 55.5t24 46.5q0 49 -68 49q-43 0 -59 -18q-6 18 -6 37q0 28 9 46q29 21 84 21q64 0 102.5 -31.5t38.5 -81.5q0 -39 -20 -68t-69 -53q0 -8 6 -8h53q51 0 58 4q0 -89 -47 -93zM187 13l384 676q19 20 44 20q24 0 47 -23l-384 -676 q-19 -20 -44 -20t-47 23zM638 128h-48q-9 14 -9 38q0 17 7 36h47q35 0 48 5t13 20q0 14 -12 19t-46 5q-54 0 -72 -18q-9 12 -9 38q0 23 9 40q29 20 90 20q67 0 101.5 -24t34.5 -66q0 -56 -48 -70q-4 -1 -4 -7q53 -14 53 -72q0 -44 -37 -71.5t-106 -27.5q-103 0 -103 59 q0 26 15 46q23 -25 83 -25q53 0 53 29q0 16 -12.5 21t-47.5 5z" />
<glyph unicode="&#x2155;" horiz-adv-x="850" d="M298 375h-233q-6 11 -6 34q0 32 16 48h75v161q-22 -6 -63 -6h-18q-5 12 -5 28q0 27 12 42l147 24q22 -12 22 -53v-196h64q5 -13 5 -33q0 -36 -16 -49zM187 13l384 676q19 20 44 20q24 0 47 -23l-384 -676q-19 -20 -44 -20t-47 23zM770 236h-122v-29q0 -6 8 -6 q72 0 105.5 -24t33.5 -74q0 -53 -37.5 -81.5t-106.5 -28.5q-99 0 -99 59q0 28 16 47q21 -24 80 -24q53 0 53 27q0 15 -13 20.5t-52 5.5h-51q-19 24 -19 76v120h222q4 -8 4 -30q0 -40 -22 -58z" />
<glyph unicode="&#x2156;" horiz-adv-x="850" d="M266 375h-219v69q4 16 23 25q66 34 90 55.5t24 46.5q0 49 -68 49q-43 0 -59 -18q-6 18 -6 37q0 28 9 46q29 21 84 21q64 0 102.5 -31.5t38.5 -81.5q0 -39 -20 -68t-69 -53q0 -8 6 -8h53q51 0 58 4q0 -89 -47 -93zM187 13l384 676q19 20 44 20q24 0 47 -23l-384 -676 q-19 -20 -44 -20t-47 23zM770 236h-122v-29q0 -6 8 -6q72 0 105.5 -24t33.5 -74q0 -53 -37.5 -81.5t-106.5 -28.5q-99 0 -99 59q0 28 16 47q21 -24 80 -24q53 0 53 27q0 15 -13 20.5t-52 5.5h-51q-19 24 -19 76v120h222q4 -8 4 -30q0 -40 -22 -58z" />
<glyph unicode="&#x2157;" horiz-adv-x="850" d="M138 503h-48q-9 13 -9 38q0 17 7 36h47q35 0 48 5t13 20q0 14 -12 19t-46 5q-54 0 -72 -18q-9 12 -9 38q0 24 9 40q29 20 90 20q67 0 101.5 -24t34.5 -66q0 -56 -48 -70q-4 -1 -4 -7q53 -14 53 -72q0 -44 -37 -71.5t-106 -27.5q-103 0 -103 59q0 27 15 46q23 -25 83 -25 q53 0 53 29q0 16 -12.5 21t-47.5 5zM187 13l384 676q19 20 44 20q24 0 47 -23l-384 -676q-19 -20 -44 -20t-47 23zM770 236h-122v-29q0 -6 8 -6q72 0 105.5 -24t33.5 -74q0 -53 -37.5 -81.5t-106.5 -28.5q-99 0 -99 59q0 28 16 47q21 -24 80 -24q53 0 53 27q0 15 -13 20.5 t-52 5.5h-51q-19 24 -19 76v120h222q4 -8 4 -30q0 -40 -22 -58z" />
<glyph unicode="&#x2158;" horiz-adv-x="850" d="M299 434h-23v-59q-19 -8 -43 -8q-42 0 -42 28v39h-150q-5 13 -5 42t7 43l112 180h88q18 0 25.5 -9.5t7.5 -34.5v-141h36q2 -14 2 -27q0 -38 -15 -53zM191 507v101q0 5 -1 6t-6 1l-69 -108h76zM187 13l384 676q19 20 44 20q24 0 47 -23l-384 -676q-19 -20 -44 -20t-47 23z M770 236h-122v-29q0 -6 8 -6q72 0 105.5 -24t33.5 -74q0 -53 -37.5 -81.5t-106.5 -28.5q-99 0 -99 59q0 28 16 47q21 -24 80 -24q53 0 53 27q0 15 -13 20.5t-52 5.5h-51q-19 24 -19 76v120h222q4 -8 4 -30q0 -40 -22 -58z" />
<glyph unicode="&#x2159;" horiz-adv-x="850" d="M298 375h-233q-6 11 -6 34q0 32 16 48h75v161q-22 -6 -63 -6h-18q-5 12 -5 28q0 27 12 42l147 24q22 -12 22 -53v-196h64q5 -13 5 -33q0 -36 -16 -49zM187 13l384 676q19 20 44 20q24 0 47 -23l-384 -676q-19 -20 -44 -20t-47 23zM783 233q-18 16 -65 16q-78 0 -82 -64 l5 -1q22 22 61 22q50 0 78.5 -25.5t28.5 -74.5q0 -53 -34 -83t-94 -30q-140 0 -140 150q0 94 47.5 141t126.5 47q51 0 78 -16q4 -11 4 -28q0 -35 -14 -54zM634 131v-9q0 -57 45 -57q39 0 39 37t-46 37q-24 0 -38 -8z" />
<glyph unicode="&#x215a;" horiz-adv-x="850" d="M270 611h-122v-29q0 -6 8 -6q72 0 105.5 -24t33.5 -74q0 -53 -37.5 -81.5t-106.5 -28.5q-99 0 -99 59q0 28 16 47q21 -24 80 -24q53 0 53 27q0 15 -13 20.5t-52 5.5h-51q-19 24 -19 76v120h222q4 -8 4 -30q0 -40 -22 -58zM187 13l384 676q19 20 44 20q24 0 47 -23 l-384 -676q-19 -20 -44 -20t-47 23zM783 233q-18 16 -65 16q-78 0 -82 -64l5 -1q22 22 61 22q50 0 78.5 -25.5t28.5 -74.5q0 -53 -34 -83t-94 -30q-140 0 -140 150q0 94 47.5 141t126.5 47q51 0 78 -16q4 -11 4 -28q0 -35 -14 -54zM634 131v-9q0 -57 45 -57q39 0 39 37 t-46 37q-24 0 -38 -8z" />
<glyph unicode="&#x215b;" horiz-adv-x="850" d="M298 375h-233q-6 11 -6 34q0 32 16 48h75v161q-22 -6 -63 -6h-18q-5 12 -5 28q0 27 12 42l147 24q22 -12 22 -53v-196h64q5 -13 5 -33q0 -36 -16 -49zM187 13l384 676q19 20 44 20q24 0 47 -23l-384 -676q-19 -20 -44 -20t-47 23zM754 181q0 -5 3 -6q51 -29 51 -84 q0 -43 -36.5 -70.5t-98.5 -27.5q-131 0 -131 81q0 53 56 77q0 4 -3 5q-50 26 -50 78q0 43 36.5 70.5t97.5 27.5q60 0 92.5 -21.5t32.5 -59.5q0 -49 -50 -70zM658 132q-29 -18 -29 -41q0 -29 46 -29q43 0 43 28q0 14 -14 23t-46 19zM692 201q24 16 24 36q0 26 -41 26 q-39 0 -39 -25q0 -12 12 -20t44 -17z" />
<glyph unicode="&#x215c;" horiz-adv-x="850" d="M138 503h-48q-9 13 -9 38q0 17 7 36h47q35 0 48 5t13 20q0 14 -12 19t-46 5q-54 0 -72 -18q-9 12 -9 38q0 24 9 40q29 20 90 20q67 0 101.5 -24t34.5 -66q0 -56 -48 -70q-4 -1 -4 -7q53 -14 53 -72q0 -44 -37 -71.5t-106 -27.5q-103 0 -103 59q0 27 15 46q23 -25 83 -25 q53 0 53 29q0 16 -12.5 21t-47.5 5zM187 13l384 676q19 20 44 20q24 0 47 -23l-384 -676q-19 -20 -44 -20t-47 23zM754 181q0 -5 3 -6q51 -29 51 -84q0 -43 -36.5 -70.5t-98.5 -27.5q-131 0 -131 81q0 53 56 77q0 4 -3 5q-50 26 -50 78q0 43 36.5 70.5t97.5 27.5 q60 0 92.5 -21.5t32.5 -59.5q0 -49 -50 -70zM658 132q-29 -18 -29 -41q0 -29 46 -29q43 0 43 28q0 14 -14 23t-46 19zM692 201q24 16 24 36q0 26 -41 26q-39 0 -39 -25q0 -12 12 -20t44 -17z" />
<glyph unicode="&#x215d;" horiz-adv-x="850" d="M270 611h-122v-29q0 -6 8 -6q72 0 105.5 -24t33.5 -74q0 -53 -37.5 -81.5t-106.5 -28.5q-99 0 -99 59q0 28 16 47q21 -24 80 -24q53 0 53 27q0 15 -13 20.5t-52 5.5h-51q-19 24 -19 76v120h222q4 -8 4 -30q0 -40 -22 -58zM187 13l384 676q19 20 44 20q24 0 47 -23 l-384 -676q-19 -20 -44 -20t-47 23zM754 181q0 -5 3 -6q51 -29 51 -84q0 -43 -36.5 -70.5t-98.5 -27.5q-131 0 -131 81q0 53 56 77q0 4 -3 5q-50 26 -50 78q0 43 36.5 70.5t97.5 27.5q60 0 92.5 -21.5t32.5 -59.5q0 -49 -50 -70zM658 132q-29 -18 -29 -41q0 -29 46 -29 q43 0 43 28q0 14 -14 23t-46 19zM692 201q24 16 24 36q0 26 -41 26q-39 0 -39 -25q0 -12 12 -20t44 -17z" />
<glyph unicode="&#x215e;" horiz-adv-x="850" d="M309 699v-69q-1 -19 -17 -36q-66 -68 -89.5 -116t-23.5 -105q-18 -6 -42 -6q-52 0 -52 48q0 44 25.5 88t85.5 101q0 6 -7 6h-83q-43 0 -59 -8q-9 16 -9 45q0 39 18 52h253zM187 13l384 676q19 20 44 20q24 0 47 -23l-384 -676q-19 -20 -44 -20t-47 23zM754 181q0 -5 3 -6 q51 -29 51 -84q0 -43 -36.5 -70.5t-98.5 -27.5q-131 0 -131 81q0 53 56 77q0 4 -3 5q-50 26 -50 78q0 43 36.5 70.5t97.5 27.5q60 0 92.5 -21.5t32.5 -59.5q0 -49 -50 -70zM658 132q-29 -18 -29 -41q0 -29 46 -29q43 0 43 28q0 14 -14 23t-46 19zM692 201q24 16 24 36 q0 26 -41 26q-39 0 -39 -25q0 -12 12 -20t44 -17z" />
<glyph unicode="&#x215f;" horiz-adv-x="500" d="M298 375h-233q-6 11 -6 34q0 32 16 48h75v161q-22 -6 -63 -6h-18q-5 12 -5 28q0 27 12 42l147 24q22 -12 22 -53v-196h64q5 -13 5 -33q0 -36 -16 -49zM187 13l384 676q19 20 44 20q24 0 47 -23l-384 -676q-19 -20 -44 -20t-47 23z" />
<glyph unicode="&#x2202;" d="M510 312q0 -145 -68.5 -233.5t-172.5 -88.5q-103 0 -166 64.5t-63 183.5q0 115 65.5 180.5t165.5 65.5q20 0 46 -4q-55 127 -219 137q0 44 21 75t50 39q156 -4 248.5 -120t92.5 -299zM344 376q-21 6 -50 6q-96 0 -96 -138q0 -136 89 -136q12 0 16 1q20 16 33.5 61 t13.5 107q0 53 -6 99z" />
<glyph unicode="&#x2206;" horiz-adv-x="613" d="M595 90q0 -38 -21.5 -64t-61.5 -26h-423q-35 0 -54 16t-19 45q0 22 10 50l163 514q4 47 39.5 63t124.5 16h58q3 -46 39 -159zM407 140l-108 375q-7 0 -12 -19l-102 -356h222z" />
<glyph unicode="&#x220f;" horiz-adv-x="676" d="M440 -167v725l-204 -10v-766q-41 -16 -83 -16q-85 0 -85 55v717q0 105 -13 145q46 16 120 16h363q56 0 70 -32v-757q0 -55 3.5 -77.5t15.5 -38.5q-53 -28 -103 -28q-37 0 -60.5 16.5t-23.5 50.5z" />
<glyph unicode="&#x2211;" horiz-adv-x="542" d="M449 -224h-332q-84 0 -84 84q0 22 6 47l226 331l-236 346l21 98q29 17 160 17h285q10 -23 10 -54q0 -72 -50 -95l-215 8l189 -274q0 -56 -20 -98l-175 -251q2 -14 15 -14h140q93 0 121 8q4 -26 4 -43q0 -85 -65 -110z" />
<glyph unicode="&#x2212;" d="M479 220h-409q-19 14 -19 51q0 36 19 52h409q19 -16 19 -52q0 -35 -19 -51z" />
<glyph unicode="&#x2219;" d="M354 248q0 -39 -21 -61.5t-63 -22.5q-34 0 -54.5 20.5t-20.5 53.5q0 38 21.5 61.5t62.5 23.5q35 0 55 -21t20 -54z" />
<glyph unicode="&#x221a;" d="M201 55l-192 389q49 45 98 45q37 0 55 -19l126 -272q5 -12 13 -12l49 513h190q7 -21 7 -52q0 -52 -23 -76h-94l-57 -563q-34 -18 -83 -18q-34 0 -51.5 12.5t-37.5 52.5z" />
<glyph unicode="&#x221e;" horiz-adv-x="814" d="M398 176q-75 -92 -177 -92q-82 0 -130 49t-48 138q0 87 54 137t140 50q60 0 101.5 -22t77.5 -70q76 92 178 92q81 0 129 -49t48 -138q0 -87 -54 -137t-140 -50q-60 0 -101 22t-78 70zM347 259q-47 91 -111 91q-35 0 -55 -20.5t-20 -57.5q0 -80 78 -80q58 0 108 67z M467 283q47 -91 112 -91q35 0 54.5 20.5t19.5 57.5q0 80 -77 80q-59 0 -109 -67z" />
<glyph unicode="&#x222b;" horiz-adv-x="401" d="M105 -10v495q0 107 51.5 165.5t128.5 58.5q52 0 75 -22t23 -56q0 -35 -22 -67q-14 10 -42 10q-31 0 -45 -19.5t-14 -69.5v-495q0 -107 -51.5 -165.5t-127.5 -58.5q-99 0 -99 78q0 33 22 66q17 -10 42 -10q32 0 45.5 19.5t13.5 70.5z" />
<glyph unicode="&#x2248;" d="M496 375q-13 -28 -44.5 -46.5t-71.5 -18.5q-36 0 -107.5 23.5t-102.5 23.5q-66 0 -99 -47q-19 22 -19 62q0 14 2 21q13 28 44.5 46.5t71.5 18.5q36 0 107.5 -23.5t102.5 -23.5q66 0 99 47q19 -24 19 -62q0 -7 -2 -21zM496 150q-13 -28 -44.5 -46.5t-71.5 -18.5 q-36 0 -107.5 23.5t-102.5 23.5q-66 0 -99 -47q-19 22 -19 62q0 14 2 21q13 28 44.5 46.5t71.5 18.5q36 0 107.5 -23.5t102.5 -23.5q66 0 99 47q19 -24 19 -62q0 -7 -2 -21z" />
<glyph unicode="&#x2260;" d="M477 105h-273l-65 -101q-12 -14 -36 -14t-34 16l64 99h-60q-19 14 -19 51q0 36 19 52h126l82 126h-208q-19 14 -19 51q0 36 19 52h274l65 100q12 16 36 16q26 0 34 -17l-64 -99h59q19 -16 19 -52q0 -35 -19 -51h-125l-82 -126h207q19 -16 19 -52q0 -35 -19 -51z" />
<glyph unicode="&#x2264;" d="M477 0h-404q-19 13 -19 49t19 50h404q19 -14 19 -50t-19 -49zM305 164l-210 186l212 187q23 16 74 16q56 0 74 -20l-218 -179l218 -187q-17 -19 -72 -19t-78 16z" />
<glyph unicode="&#x2265;" d="M477 0h-404q-19 13 -19 49t19 50h404q19 -14 19 -50t-19 -49zM455 351l-212 -187q-23 -16 -74 -16q-57 0 -74 19l218 179l-218 187q18 20 72 20q55 0 78 -16z" />
<glyph unicode="&#x22c5;" d="M354 248q0 -39 -21 -61.5t-63 -22.5q-34 0 -54.5 20.5t-20.5 53.5q0 38 21.5 61.5t62.5 23.5q35 0 55 -21t20 -54z" />
<glyph unicode="&#x25ca;" horiz-adv-x="485" d="M448 303l-126 -294q-38 -19 -86 -19q-75 0 -96 54l-103 263l125 294q41 19 86 19q76 0 97 -55zM254 118l65 170l-76 194q-4 10 -12 10l-65 -170l76 -194q3 -10 12 -10z" />
<glyph unicode="&#x25fc;" horiz-adv-x="490" d="M0 490h490v-490h-490v490z" />
<glyph unicode="&#xfb00;" horiz-adv-x="618" d="M352 50v314h-129v-230q0 -94 11 -124q-44 -20 -84 -20q-42 0 -62 14t-20 46v314h-54q-4 13 -4 33q0 51 22 73h36q7 103 70 171t152 68q49 0 76 -22q3 -14 3 -29q0 -49 -19 -87q-22 9 -52 9q-27 0 -45 -6q-30 -32 -30 -104h129q7 114 74 187.5t167 73.5q64 0 94 -24 q4 -14 4 -29q0 -48 -21 -87q-26 10 -67 10q-35 0 -62 -9q-34 -30 -34 -122h103q5 -25 5 -44q0 -44 -21 -62h-87v-230q0 -94 11 -124q-44 -20 -84 -20q-42 0 -62 14t-20 46z" />
<glyph unicode="&#xfb01;" horiz-adv-x="564" d="M352 72v292h-129v-230q0 -94 11 -124q-44 -20 -84 -20q-42 0 -62 14t-20 46v314h-54q-4 13 -4 33q0 51 22 73h36q7 114 73 187.5t168 73.5q64 0 95 -28q17 5 33 5q37 0 57.5 -21t20.5 -55q0 -87 -89 -87q-32 0 -52 16.5t-24 44.5q-9 2 -31 2q-37 0 -61 -9 q-35 -31 -35 -129h267q12 -9 17 -24v-313q0 -78 22 -112q-51 -31 -100 -31q-40 0 -58.5 19t-18.5 63z" />
<glyph unicode="&#xfb02;" horiz-adv-x="578" d="M366 72v516q-13 5 -44 5q-36 0 -62 -8q-37 -35 -37 -115h85q6 -23 6 -46q0 -39 -24 -60h-67v-230q0 -94 11 -124q-44 -20 -84 -20q-42 0 -62 14t-20 46v314h-54q-4 13 -4 33q0 51 22 73h36q7 113 73 179t174 66q27 0 49 -5q48 21 94 21q41 0 63 -25v-597q0 -62 21 -88 q-49 -31 -100 -31q-40 0 -58 19t-18 63z" />
<glyph unicode="&#xfb03;" horiz-adv-x="848" d="M636 72v292h-129v-230q0 -94 11 -124q-44 -20 -84 -20q-42 0 -62 14t-20 46v314h-129v-230q0 -94 11 -124q-44 -20 -84 -20q-42 0 -62 14t-20 46v314h-54q-4 13 -4 33q0 51 22 73h36q7 103 70 171t152 68q49 0 76 -22q3 -13 3 -30q0 -48 -19 -86q-22 9 -52 9 q-27 0 -45 -6q-30 -32 -30 -104h129q7 114 73 187.5t168 73.5q64 0 95 -28q17 5 33 5q37 0 57.5 -21t20.5 -55q0 -87 -89 -87q-32 0 -52 16.5t-24 44.5q-9 2 -31 2q-37 0 -61 -9q-35 -31 -35 -129h267q12 -9 17 -24v-313q0 -78 22 -112q-51 -31 -100 -31q-40 0 -58.5 19 t-18.5 63z" />
<glyph unicode="&#xfb04;" horiz-adv-x="862" d="M650 72v516q-12 5 -44 5q-36 0 -62 -8q-37 -35 -37 -115h85q6 -22 6 -46q0 -38 -24 -60h-67v-230q0 -94 11 -124q-44 -20 -84 -20q-42 0 -62 14t-20 46v314h-129v-230q0 -94 11 -124q-44 -20 -84 -20q-42 0 -62 14t-20 46v314h-54q-4 13 -4 33q0 51 22 73h36 q7 103 70 171t152 68q49 0 76 -22q3 -13 3 -30q0 -48 -19 -86q-22 9 -52 9q-27 0 -45 -6q-30 -32 -30 -104h129q7 113 73 179t174 66q27 0 49 -5q48 21 94 21q41 0 63 -25v-597q0 -62 21 -88q-49 -31 -100 -31q-40 0 -58 19t-18 63z" />
<glyph horiz-adv-x="350" d="M173 368q-69 0 -105.5 42t-36.5 125q0 81 40.5 126t104.5 45q68 0 105 -42.5t37 -124.5q0 -81 -40 -126t-105 -45zM175 450q51 0 51 91q0 44 -12.5 63.5t-39.5 19.5q-26 0 -38.5 -21t-12.5 -71q0 -43 12.5 -62.5t39.5 -19.5z" />
<glyph horiz-adv-x="350" d="M298 375h-233q-6 11 -6 34q0 32 16 48h75v161q-22 -6 -63 -6h-18q-5 12 -5 28q0 27 12 42l147 24q22 -12 22 -53v-196h64q5 -13 5 -33q0 -36 -16 -49z" />
<glyph horiz-adv-x="350" d="M266 375h-219v69q4 16 23 25q66 34 90 55.5t24 46.5q0 49 -68 49q-43 0 -59 -18q-6 18 -6 37q0 28 9 46q29 21 84 21q64 0 102.5 -31.5t38.5 -81.5q0 -39 -20 -68t-69 -53q0 -8 6 -8h53q51 0 58 4q0 -89 -47 -93z" />
<glyph horiz-adv-x="350" d="M138 503h-48q-9 13 -9 38q0 17 7 36h47q35 0 48 5t13 20q0 14 -12 19t-46 5q-54 0 -72 -18q-9 12 -9 38q0 24 9 40q29 20 90 20q67 0 101.5 -24t34.5 -66q0 -56 -48 -70q-4 -1 -4 -7q53 -14 53 -72q0 -44 -37 -71.5t-106 -27.5q-103 0 -103 59q0 27 15 46q23 -25 83 -25 q53 0 53 29q0 16 -12.5 21t-47.5 5z" />
<glyph horiz-adv-x="350" d="M299 434h-23v-59q-19 -8 -43 -8q-42 0 -42 28v39h-150q-5 13 -5 42t7 43l112 180h88q18 0 25.5 -9.5t7.5 -34.5v-141h36q2 -14 2 -27q0 -38 -15 -53zM191 507v101q0 5 -1 6t-6 1l-69 -108h76z" />
<glyph horiz-adv-x="350" d="M270 611h-122v-29q0 -6 8 -6q72 0 105.5 -24t33.5 -74q0 -53 -37.5 -81.5t-106.5 -28.5q-99 0 -99 59q0 28 16 47q21 -24 80 -24q53 0 53 27q0 15 -13 20.5t-52 5.5h-51q-19 24 -19 76v120h222q4 -8 4 -30q0 -40 -22 -58z" />
<glyph horiz-adv-x="350" d="M283 608q-18 16 -65 16q-78 0 -82 -64l5 -1q22 22 61 22q50 0 78.5 -25.5t28.5 -74.5q0 -53 -34 -83t-94 -30q-140 0 -140 150q0 94 47.5 141t126.5 47q51 0 78 -16q4 -11 4 -28q0 -35 -14 -54zM134 506v-9q0 -57 45 -57q39 0 39 37t-46 37q-24 0 -38 -8z" />
<glyph horiz-adv-x="350" d="M309 699v-69q-1 -19 -17 -36q-66 -68 -89.5 -116t-23.5 -105q-18 -6 -42 -6q-52 0 -52 48q0 44 25.5 88t85.5 101q0 6 -7 6h-83q-43 0 -59 -8q-9 16 -9 45q0 39 18 52h253z" />
<glyph horiz-adv-x="350" d="M254 556q0 -5 3 -6q51 -29 51 -84q0 -43 -36.5 -70.5t-98.5 -27.5q-131 0 -131 81q0 53 56 77q0 4 -3 5q-50 26 -50 78q0 43 36.5 70.5t97.5 27.5q60 0 92.5 -21.5t32.5 -59.5q0 -49 -50 -70zM158 507q-29 -18 -29 -41q0 -29 46 -29q43 0 43 28q0 14 -14 23t-46 19z M192 576q24 16 24 36q0 26 -41 26q-39 0 -39 -25q0 -12 12 -20t44 -17z" />
<glyph horiz-adv-x="350" d="M209 514q-21 -21 -61 -21q-50 0 -78.5 25.5t-28.5 74.5q0 53 34 83t94 30q140 0 140 -150q0 -95 -47.5 -141.5t-127.5 -46.5q-81 0 -81 56q0 26 14 45q19 -19 65 -19q78 0 82 63q0 1 -5 1zM216 568v9q0 57 -45 57q-39 0 -39 -37q0 -38 46 -38q25 0 38 9z" />
<glyph horiz-adv-x="350" d="M173 -7q-69 0 -105.5 42t-36.5 125q0 81 40.5 126t104.5 45q68 0 105 -42.5t37 -124.5q0 -81 -40 -126t-105 -45zM175 75q51 0 51 91q0 44 -12.5 63.5t-39.5 19.5q-26 0 -38.5 -21t-12.5 -71q0 -43 12.5 -62.5t39.5 -19.5z" />
<glyph horiz-adv-x="350" d="M298 0h-233q-6 10 -6 34q0 32 16 48h75v161q-22 -6 -63 -6h-18q-5 12 -5 28q0 27 12 42l147 24q22 -12 22 -53v-196h64q5 -13 5 -33q0 -36 -16 -49z" />
<glyph horiz-adv-x="350" d="M266 0h-219v69q4 16 23 25q66 34 90 55.5t24 46.5q0 49 -68 49q-43 0 -59 -18q-6 18 -6 37q0 28 9 46q29 21 84 21q64 0 102.5 -31.5t38.5 -81.5q0 -39 -20 -68t-69 -53q0 -8 6 -8h53q51 0 58 4q0 -89 -47 -93z" />
<glyph horiz-adv-x="350" d="M138 128h-48q-9 13 -9 38q0 17 7 36h47q35 0 48 5t13 20q0 14 -12 19t-46 5q-54 0 -72 -18q-9 12 -9 38q0 23 9 40q29 20 90 20q67 0 101.5 -24t34.5 -66q0 -56 -48 -70q-4 -1 -4 -7q53 -14 53 -72q0 -44 -37 -71.5t-106 -27.5q-103 0 -103 59q0 26 15 46q23 -25 83 -25 q53 0 53 29q0 16 -12.5 21t-47.5 5z" />
<glyph horiz-adv-x="350" d="M299 59h-23v-59q-19 -8 -43 -8q-42 0 -42 28v39h-150q-5 13 -5 42t7 43l112 180h88q18 0 25.5 -9.5t7.5 -34.5v-141h36q2 -14 2 -27q0 -38 -15 -53zM191 132v101q0 5 -1 6t-6 1l-69 -108h76z" />
<glyph horiz-adv-x="350" d="M270 236h-122v-29q0 -6 8 -6q72 0 105.5 -24t33.5 -74q0 -53 -37.5 -81.5t-106.5 -28.5q-99 0 -99 59q0 28 16 47q21 -24 80 -24q53 0 53 27q0 15 -13 20.5t-52 5.5h-51q-19 24 -19 76v120h222q4 -8 4 -30q0 -40 -22 -58z" />
<glyph horiz-adv-x="350" d="M283 233q-18 16 -65 16q-78 0 -82 -64l5 -1q22 22 61 22q50 0 78.5 -25.5t28.5 -74.5q0 -53 -34 -83t-94 -30q-140 0 -140 150q0 94 47.5 141t126.5 47q51 0 78 -16q4 -11 4 -28q0 -35 -14 -54zM134 131v-9q0 -57 45 -57q39 0 39 37t-46 37q-24 0 -38 -8z" />
<glyph horiz-adv-x="350" d="M309 324v-69q-1 -19 -17 -36q-66 -68 -89.5 -116t-23.5 -105q-18 -6 -42 -6q-52 0 -52 48q0 44 25.5 88t85.5 101q0 6 -7 6h-83q-43 0 -59 -8q-9 16 -9 45q0 38 18 52h253z" />
<glyph horiz-adv-x="350" d="M254 181q0 -5 3 -6q51 -29 51 -84q0 -43 -36.5 -70.5t-98.5 -27.5q-131 0 -131 81q0 53 56 77q0 4 -3 5q-50 26 -50 78q0 43 36.5 70.5t97.5 27.5q60 0 92.5 -21.5t32.5 -59.5q0 -49 -50 -70zM158 132q-29 -18 -29 -41q0 -29 46 -29q43 0 43 28q0 14 -14 23t-46 19z M192 201q24 16 24 36q0 26 -41 26q-39 0 -39 -25q0 -12 12 -20t44 -17z" />
<glyph horiz-adv-x="350" d="M209 139q-21 -21 -61 -21q-50 0 -78.5 25.5t-28.5 74.5q0 53 34 83t94 30q140 0 140 -150q0 -95 -47.5 -141.5t-127.5 -46.5q-81 0 -81 56q0 26 14 45q19 -19 65 -19q78 0 82 63q0 1 -5 1zM216 193v9q0 57 -45 57q-39 0 -39 -37q0 -38 46 -38q25 0 38 9z" />
<glyph horiz-adv-x="38" />
<glyph d="M275 -10q-120 0 -179 82t-59 272q0 187 63.5 276t173.5 89q120 0 179.5 -82t59.5 -272q0 -188 -64 -276.5t-174 -88.5zM275 122q30 0 47 18t26.5 70.5t9.5 150.5q0 129 -17 172t-67 43q-29 0 -46 -18t-26.5 -71t-9.5 -150q0 -129 16.5 -172t66.5 -43z" />
<glyph d="M505 117q7 -23 7 -47q0 -50 -27 -70h-416q-8 20 -8 49q0 47 26 68h138v462q-96 -11 -152 -11q-7 18 -7 41q0 38 19 63l257 42q37 -21 37 -90v-507h126z" />
<glyph d="M450 0h-388v104q5 29 35 52q114 90 162.5 158t48.5 131q0 60 -35 94t-100 34q-61 0 -97 -31q-12 27 -12 67q0 34 12 64q46 36 140 36q111 0 181 -65t70 -167q0 -85 -43.5 -159t-151.5 -159q0 -15 10 -15h123q89 0 108 8v-26q0 -109 -63 -126z" />
<glyph d="M207 287h-88q-14 29 -14 73q0 35 8 62h90q112 0 112 77q0 39 -28 57t-89 18q-81 0 -117 -32q-15 25 -15 68q0 32 13 60q51 39 160 39q110 0 172 -53t62 -134q0 -111 -98 -153q-6 -3 -6 -14q107 -38 107 -160q0 -85 -67 -145t-181 -60q-180 0 -180 102q0 48 26 86 q15 -23 52 -38t88 -15q54 0 78.5 20.5t24.5 63.5q0 78 -110 78z" />
<glyph d="M486 160h-40v-153q-40 -17 -83 -17q-66 0 -66 53v117h-258q-10 25 -10 72q0 42 14 73l220 394h121q33 0 47.5 -18.5t14.5 -64.5v-330h64q3 -16 3 -35q0 -63 -27 -91zM297 276v236q0 9 -2.5 11t-9.5 2l-136 -249h148z" />
<glyph d="M183 298h-65q-19 28 -26.5 58.5t-7.5 91.5v251h389q7 -18 7 -42q0 -65 -42 -102h-212v-115q0 -12 13 -12q116 -2 180.5 -58.5t64.5 -155.5q0 -100 -70.5 -162t-183.5 -62q-171 0 -171 100q0 46 27 88q47 -54 138 -54q47 0 73.5 22t26.5 63q0 47 -33 68t-108 21z" />
<glyph d="M48 307q0 197 80.5 299.5t212.5 102.5q93 0 133 -35q7 -20 7 -43q0 -53 -22 -88q-33 30 -107 30q-138 0 -147 -182q2 -4 7 -4q42 40 110 40q81 0 129.5 -52.5t48.5 -151.5q0 -105 -62.5 -169t-158.5 -64q-112 0 -171.5 74.5t-59.5 242.5zM199 296v-34q0 -77 20 -111.5 t60 -34.5q74 0 74 100q0 95 -83 95q-37 0 -71 -15z" />
<glyph d="M500 699v-108q-4 -26 -25 -55q-113 -150 -157.5 -275t-44.5 -259q-31 -12 -65 -12q-88 0 -88 93q0 198 209 459q0 12 -11 12h-159q-74 0 -99 -14q-14 31 -14 71q0 59 32 88h422z" />
<glyph d="M395 380q0 -7 3 -9q53 -36 77.5 -79.5t24.5 -102.5q0 -86 -62.5 -142.5t-163.5 -56.5q-109 0 -167.5 47.5t-58.5 128.5q0 104 109 167q0 8 -2 10q-99 66 -99 167q0 86 60.5 142.5t160.5 56.5q98 0 157 -47t59 -127q0 -95 -98 -155zM245 295q-55 -49 -55 -108 q0 -75 86 -75q38 0 58.5 19.5t20.5 54.5t-26 58.5t-84 50.5zM306 421q46 44 46 94q0 71 -77 71q-35 0 -54.5 -17.5t-19.5 -50.5q0 -29 23 -49.5t82 -47.5z" />
<glyph d="M344 308q-3 3 -8 3q-42 -40 -110 -40q-81 0 -129.5 52.5t-48.5 151.5q0 106 63 170t159 64q111 0 170.5 -74.5t59.5 -242.5q0 -197 -80.5 -299.5t-212.5 -102.5q-140 0 -140 93q0 47 21 79q31 -37 108 -37q139 0 148 183zM349 403v33q0 78 -19.5 112.5t-59.5 34.5 q-74 0 -74 -101q0 -95 82 -95q39 0 71 16z" />
<glyph />
<glyph d="M275 -10q-120 0 -179 82t-59 272q0 187 63.5 276t173.5 89q120 0 179.5 -82t59.5 -272q0 -188 -64 -276.5t-174 -88.5zM275 122q30 0 47 18t26.5 70.5t9.5 150.5q0 129 -17 172t-67 43q-29 0 -46 -18t-26.5 -71t-9.5 -150q0 -129 16.5 -172t66.5 -43z" />
<glyph horiz-adv-x="442" d="M412 117q7 -23 7 -47q0 -50 -27 -70h-344q-8 20 -8 49q0 47 26 68h99v462q-62 -11 -118 -11q-7 18 -7 41q0 38 19 63l224 42q37 -21 37 -90v-507h92z" />
<glyph d="M450 0h-388v104q5 29 35 52q114 90 162.5 158t48.5 131q0 60 -35 94t-100 34q-61 0 -97 -31q-12 27 -12 67q0 34 12 64q46 36 140 36q111 0 181 -65t70 -167q0 -85 -43.5 -159t-151.5 -159q0 -15 10 -15h123q89 0 108 8v-26q0 -109 -63 -126z" />
<glyph d="M207 287h-88q-14 29 -14 73q0 35 8 62h90q112 0 112 77q0 39 -28 57t-89 18q-81 0 -117 -32q-15 25 -15 68q0 32 13 60q51 39 160 39q110 0 172 -53t62 -134q0 -111 -98 -153q-6 -3 -6 -14q107 -38 107 -160q0 -85 -67 -145t-181 -60q-180 0 -180 102q0 48 26 86 q15 -23 52 -38t88 -15q54 0 78.5 20.5t24.5 63.5q0 78 -110 78z" />
<glyph d="M486 160h-40v-153q-40 -17 -83 -17q-66 0 -66 53v117h-258q-10 25 -10 72q0 42 14 73l220 394h121q33 0 47.5 -18.5t14.5 -64.5v-330h64q3 -16 3 -35q0 -63 -27 -91zM297 276v236q0 9 -2.5 11t-9.5 2l-136 -249h148z" />
<glyph d="M183 298h-65q-19 28 -26.5 58.5t-7.5 91.5v251h389q7 -18 7 -42q0 -65 -42 -102h-212v-115q0 -12 13 -12q116 -2 180.5 -58.5t64.5 -155.5q0 -100 -70.5 -162t-183.5 -62q-171 0 -171 100q0 46 27 88q47 -54 138 -54q47 0 73.5 22t26.5 63q0 47 -33 68t-108 21z" />
<glyph d="M48 307q0 197 80.5 299.5t212.5 102.5q93 0 133 -35q7 -20 7 -43q0 -53 -22 -88q-33 30 -107 30q-138 0 -147 -182q2 -4 7 -4q42 40 110 40q81 0 129.5 -52.5t48.5 -151.5q0 -105 -62.5 -169t-158.5 -64q-112 0 -171.5 74.5t-59.5 242.5zM199 296v-34q0 -77 20 -111.5 t60 -34.5q74 0 74 100q0 95 -83 95q-37 0 -71 -15z" />
<glyph horiz-adv-x="525" d="M489 699v-108q-4 -26 -25 -55q-113 -150 -157.5 -275t-44.5 -259q-31 -12 -65 -12q-88 0 -88 93q0 198 209 459q0 12 -11 12h-159q-74 0 -99 -14q-14 31 -14 71q0 59 32 88h422z" />
<glyph d="M395 380q0 -7 3 -9q53 -36 77.5 -79.5t24.5 -102.5q0 -86 -62.5 -142.5t-163.5 -56.5q-109 0 -167.5 47.5t-58.5 128.5q0 104 109 167q0 8 -2 10q-99 66 -99 167q0 86 60.5 142.5t160.5 56.5q98 0 157 -47t59 -127q0 -95 -98 -155zM245 295q-55 -49 -55 -108 q0 -75 86 -75q38 0 58.5 19.5t20.5 54.5t-26 58.5t-84 50.5zM306 421q46 44 46 94q0 71 -77 71q-35 0 -54.5 -17.5t-19.5 -50.5q0 -29 23 -49.5t82 -47.5z" />
<glyph d="M344 308q-3 3 -8 3q-42 -40 -110 -40q-81 0 -129.5 52.5t-48.5 151.5q0 106 63 170t159 64q111 0 170.5 -74.5t59.5 -242.5q0 -197 -80.5 -299.5t-212.5 -102.5q-140 0 -140 93q0 47 21 79q31 -37 108 -37q139 0 148 183zM349 403v33q0 78 -19.5 112.5t-59.5 34.5 q-74 0 -74 -101q0 -95 82 -95q39 0 71 16z" />
<glyph d="M271 -10q-114 0 -174 69.5t-60 207.5q0 136 66 211t174 75q115 0 175.5 -70t60.5 -208q0 -135 -66.5 -210t-175.5 -75zM276 116q45 0 66 37t21 126q0 79 -20.5 113.5t-68.5 34.5q-46 0 -67 -37.5t-21 -126.5q0 -79 20.5 -113t69.5 -34z" />
<glyph d="M505 117q7 -23 7 -47q0 -50 -27 -70h-416q-8 20 -8 49q0 47 26 68h138v301q-105 -11 -152 -11q-7 17 -7 41q0 38 19 63l257 42q37 -21 37 -90v-346h126z" />
<glyph d="M443 0h-377v100q7 29 43 47q100 51 145 92t45 85q0 45 -31 69t-90 24q-62 0 -94 -28q-13 26 -13 65q0 36 13 62q45 37 135 37q108 0 170 -56t62 -140q0 -129 -143 -201q0 -12 7 -12h92q82 0 99 7v-25q0 -109 -63 -126z" />
<glyph d="M207 131h-88q-14 29 -14 73q0 35 8 62h90q112 0 112 77q0 39 -28 57t-89 18q-81 0 -117 -32q-15 25 -15 68q0 32 13 60q51 39 160 39q110 0 172 -53t62 -134q0 -111 -98 -153q-6 -3 -6 -14q107 -38 107 -160q0 -85 -67 -145t-181 -60q-180 0 -180 102q0 48 26 86 q15 -23 52 -38t88 -15q54 0 78.5 20.5t24.5 63.5q0 78 -110 78z" />
<glyph d="M486 4h-40v-153q-40 -17 -83 -17q-66 0 -66 53v117h-258q-10 25 -10 72q0 42 14 73l220 394h121q33 0 47.5 -18.5t14.5 -64.5v-330h64q3 -17 3 -35q0 -63 -27 -91zM297 120v236q0 9 -2.5 11t-9.5 2l-136 -249h148z" />
<glyph d="M183 142h-65q-19 28 -26.5 58.5t-7.5 91.5v251h389q7 -18 7 -42q0 -65 -42 -102h-212v-115q0 -12 13 -12q116 -2 180.5 -58.5t64.5 -155.5q0 -100 -70.5 -162t-183.5 -62q-171 0 -171 100q0 46 27 88q47 -54 138 -54q47 0 73.5 22t26.5 63q0 47 -33 68t-108 21z" />
<glyph d="M48 307q0 197 80.5 299.5t212.5 102.5q93 0 133 -35q7 -20 7 -43q0 -53 -22 -88q-33 30 -107 30q-138 0 -147 -182q2 -4 7 -4q42 40 110 40q81 0 129.5 -52.5t48.5 -151.5q0 -105 -62.5 -169t-158.5 -64q-112 0 -171.5 74.5t-59.5 242.5zM199 296v-34q0 -77 20 -111.5 t60 -34.5q74 0 74 100q0 95 -83 95q-37 0 -71 -15z" />
<glyph d="M500 543v-108q-4 -26 -25 -55q-113 -150 -157.5 -275t-44.5 -259q-31 -12 -65 -12q-88 0 -88 93q0 198 209 459q0 12 -11 12h-159q-74 0 -99 -14q-14 31 -14 71q0 59 32 88h422z" />
<glyph d="M395 380q0 -7 3 -9q53 -36 77.5 -79.5t24.5 -102.5q0 -86 -62.5 -142.5t-163.5 -56.5q-109 0 -167.5 47.5t-58.5 128.5q0 104 109 167q0 8 -2 10q-99 66 -99 167q0 86 60.5 142.5t160.5 56.5q98 0 157 -47t59 -127q0 -95 -98 -155zM245 295q-55 -49 -55 -108 q0 -75 86 -75q38 0 58.5 19.5t20.5 54.5t-26 58.5t-84 50.5zM306 421q46 44 46 94q0 71 -77 71q-35 0 -54.5 -17.5t-19.5 -50.5q0 -29 23 -49.5t82 -47.5z" />
<glyph d="M344 152q-3 3 -8 3q-42 -40 -110 -40q-81 0 -129.5 52.5t-48.5 151.5q0 106 63 170t159 64q111 0 170.5 -74.5t59.5 -242.5q0 -197 -80.5 -299.5t-212.5 -102.5q-140 0 -140 93q0 47 21 79q31 -37 108 -37q139 0 148 183zM349 247v33q0 78 -19.5 112.5t-59.5 34.5 q-74 0 -74 -101q0 -95 82 -95q39 0 71 16z" />
<glyph />
<glyph horiz-adv-x="314" d="M300 752q-52 -56 -84.5 -164.5t-32.5 -239.5t32.5 -239.5t84.5 -164.5q-21 -16 -67 -16q-33 0 -60 27q-70 66 -108.5 169t-38.5 224q0 120 38 223.5t108 168.5q30 29 62 29q43 0 66 -17z" />
<glyph horiz-adv-x="314" d="M14 -55q52 56 84.5 164.5t32.5 239.5t-32.5 239.5t-84.5 164.5q21 16 67 16q33 0 60 -27q70 -66 108.5 -169t38.5 -224q0 -120 -38 -223.5t-108 -168.5q-30 -29 -62 -29q-43 0 -66 17z" />
<glyph horiz-adv-x="300" d="M229 296l-192 -31q-8 19 -8 42q0 59 42 93l192 32q8 -20 8 -42q0 -60 -42 -94z" />
<glyph horiz-adv-x="343" d="M245 -61h-130q-43 19 -43 83v654q0 64 43 83h132q41 0 57 -14t16 -48q0 -21 -6 -41h-94v-579q0 -20 7.5 -27.5t26.5 -7.5h60q6 -20 6 -38q0 -35 -16.5 -50t-58.5 -15z" />
<glyph horiz-adv-x="343" d="M98 759h130q43 -19 43 -83v-654q0 -64 -43 -83h-132q-41 0 -57 14t-16 48q0 21 6 41h94v579q0 20 -7.5 27.5t-26.5 7.5h-60q-6 20 -6 38q0 35 16.5 50t58.5 15z" />
<glyph horiz-adv-x="343" d="M151 359v-8q57 -17 81 -45t24 -70q0 -22 -11.5 -82t-11.5 -85q0 -32 21.5 -48.5t76.5 -23.5q-10 -36 -30 -52t-62 -16q-70 0 -113 34.5t-43 104.5q0 30 13.5 95.5t13.5 81.5q0 33 -17 51.5t-74 42.5v18q59 24 75 40t16 51q0 20 -13.5 85t-13.5 95q0 71 43 105.5t113 34.5 q42 0 62 -16t30 -53q-55 -7 -76.5 -23.5t-21.5 -48.5q0 -25 11.5 -84t11.5 -81q0 -40 -23.5 -62.5t-81.5 -40.5z" />
<glyph horiz-adv-x="343" d="M331 357v-17q-59 -24 -75.5 -40t-16.5 -51q0 -20 13.5 -85.5t13.5 -95.5q0 -70 -43 -104.5t-113 -34.5q-42 0 -61.5 16t-29.5 53q54 7 76 23t22 48q0 25 -11.5 84t-11.5 81q0 40 23.5 62.5t80.5 41.5v8q-56 17 -80 45t-24 70q0 22 11.5 81.5t11.5 84.5q0 32 -21.5 48.5 t-76.5 23.5q10 37 29.5 53t61.5 16q70 0 113 -34.5t43 -105.5q0 -30 -13.5 -95.5t-13.5 -81.5q0 -33 17.5 -51.5t74.5 -42.5z" />
<glyph horiz-adv-x="475" d="M410 815q0 -75 -77 -75q-30 0 -48.5 18t-18.5 47q0 76 77 76q30 0 48.5 -18.5t18.5 -47.5zM208 815q0 -75 -77 -75q-30 0 -48.5 18t-18.5 47q0 76 77 76q30 0 48.5 -18.5t18.5 -47.5z" />
<glyph horiz-adv-x="517" d="M169 163l-148 186l150 186q20 15 53 15q39 0 53 -17l-86 -178l86 -191q-14 -16 -52 -16q-36 0 -56 15zM385 163l-148 186l149 186q20 15 53 15q40 0 54 -17l-86 -178l86 -191q-14 -16 -52 -16t-56 15z" />
<glyph horiz-adv-x="300" d="M229 296l-192 -31q-8 19 -8 42q0 59 42 93l192 32q8 -20 8 -42q0 -60 -42 -94z" />
<glyph horiz-adv-x="475" d="M347 757h-239q-7 18 -7 39q0 44 27 68h239q7 -20 7 -40q0 -44 -27 -67z" />
<glyph horiz-adv-x="475" d="M126 -179q62 0 85 9t23 31q0 18 -36 37.5t-36 26.5q0 9 13.5 18.5t58.5 28.5q56 -21 85.5 -46t29.5 -66q0 -44 -42 -74.5t-106 -30.5q-35 0 -51 14t-24 52z" />
<glyph horiz-adv-x="517" d="M496 349l-150 -186q-20 -15 -53 -15q-39 0 -53 16l86 179l-86 190q14 17 52 17q36 0 56 -15zM280 349l-149 -186q-20 -15 -53 -15q-40 0 -54 16l86 179l-86 190q14 17 52 17t56 -15z" />
<glyph horiz-adv-x="475" d="M345 726l-116 62l-105 -62q-47 28 -47 56l94 95q24 9 65 9q40 0 66 -9l95 -95q0 -29 -52 -56z" />
<glyph horiz-adv-x="475" d="M397 833l-95 -95q-23 -9 -65 -9q-40 0 -66 9l-94 95q0 29 52 56l116 -62l104 62q48 -28 48 -56z" />
<glyph horiz-adv-x="475" d="M397 857q-46 -128 -159 -128q-58 0 -99.5 33t-60.5 95q9 24 69 34q29 -61 94 -61q59 0 89 61q56 -10 67 -34z" />
<glyph horiz-adv-x="475" d="M327 818q0 -82 -95 -82q-39 0 -62 20t-23 53q0 39 24.5 61t72.5 22q39 0 61 -20.5t22 -53.5z" />
<glyph horiz-adv-x="475" d="M371 831q0 -102 -132 -102q-61 0 -92.5 25t-31.5 68q0 102 133 102q60 0 91.5 -25.5t31.5 -67.5zM287 828q0 36 -43 36q-44 0 -44 -39q0 -37 43 -37q44 0 44 40z" />
<glyph horiz-adv-x="475" d="M339 -215q-32 -30 -89 -30q-59 0 -90.5 26t-31.5 69q0 46 35 87t135 100q28 0 38 -11q-59 -59 -79.5 -91.5t-20.5 -60.5q0 -43 54 -43q30 0 57 15q3 -8 3 -17q0 -24 -11 -44z" />
<glyph horiz-adv-x="475" d="M104 727q-27 16 -37 26.5t-15 27.5q83 83 96 109q38 0 64.5 -17t26.5 -47q0 -28 -25.5 -47.5t-109.5 -51.5zM288 727q-27 16 -37 26.5t-15 27.5q83 83 96 109q38 0 64.5 -17t26.5 -47q0 -28 -25.5 -47.5t-109.5 -51.5z" />
<glyph horiz-adv-x="1" d="M1 779q-8 -29 -49 -53q-113 23 -148 43.5t-35 53.5q0 28 27 45.5t65 17.5q7 -12 29.5 -29t110.5 -78z" />
<glyph horiz-adv-x="1" d="M-182 726q-41 24 -49 53q88 61 110.5 78t29.5 29q38 0 65 -17.5t27 -45.5q0 -33 -35 -53.5t-148 -43.5z" />
<glyph horiz-adv-x="1" d="M-218 726l-116 62l-105 -62q-47 28 -47 56l94 95q24 9 65 9q40 0 66 -9l95 -95q0 -29 -52 -56z" />
<glyph horiz-adv-x="1" d="M1 853q-36 -115 -91 -115q-25 0 -73.5 21t-58.5 21q-20 0 -57 -51q-39 17 -45 46q34 114 91 114q25 0 73 -21t59 -21t21.5 9.5t36.5 42.5q41 -19 44 -46z" />
<glyph horiz-adv-x="1" d="M-117 751h-260q-7 18 -7 44q0 50 27 73h260q7 -18 7 -44q0 -49 -27 -73z" />
<glyph horiz-adv-x="1" d="M-142 928q59 -13 70 -45q-20 -76 -62.5 -115t-101.5 -39q-61 0 -104.5 39.5t-60.5 114.5q10 31 72 45q28 -87 96 -87q33 0 54.5 20.5t36.5 66.5z" />
<glyph horiz-adv-x="1" d="M-152 816q0 -87 -90 -87q-36 0 -57.5 21t-21.5 55q0 41 23 64t67 23q37 0 58 -21t21 -55z" />
<glyph horiz-adv-x="1" d="M-141 729q-30 0 -48.5 21t-18.5 54q0 88 77 88q30 0 48.5 -21.5t18.5 -54.5q0 -87 -77 -87zM-343 729q-30 0 -48.5 21t-18.5 54q0 45 21 66.5t56 21.5q30 0 48.5 -21.5t18.5 -54.5q0 -87 -77 -87z" />
<glyph horiz-adv-x="1" d="M-105 820q0 -59 -37.5 -88t-101.5 -29q-57 0 -91.5 29t-34.5 75q0 58 36.5 87.5t102.5 29.5q57 0 91.5 -29t34.5 -75zM-193 815q0 41 -44 41q-45 0 -45 -44q0 -41 44 -41q45 0 45 44z" />
<glyph horiz-adv-x="1" d="M-179 726q-52 19 -64 50q48 89 59 112.5t14 42.5q44 0 74 -21.5t30 -54.5q0 -27 -21.5 -51.5t-91.5 -77.5zM-354 726q-52 19 -64 50q48 89 59 112.5t14 42.5q44 0 74 -21.5t30 -54.5q0 -27 -21.5 -51.5t-91.5 -77.5z" />
<glyph horiz-adv-x="1" d="M-102 833l-95 -95q-23 -9 -65 -9q-40 0 -66 9l-94 95q0 29 52 56l116 -62l104 62q48 -28 48 -56z" />
<glyph horiz-adv-x="1" d="M140 -211q40 32 53 46.5t13 28.5q0 24 -47 40q17 62 87 62q40 0 61 -21.5t21 -52.5q0 -74 -108 -134q-8 -6 -19 -6q-28 0 -61 37z" />
<glyph horiz-adv-x="1" d="M-348 -179q62 0 85 9t23 31q0 18 -36 37.5t-36 26.5q0 9 13.5 18.5t58.5 28.5q56 -21 85.5 -46t29.5 -66q0 -44 -42 -74.5t-106 -30.5q-35 0 -51 14t-24 52z" />
<glyph horiz-adv-x="1" d="M-135 -215q-32 -30 -89 -30q-59 0 -90.5 26t-31.5 69q0 46 35 87t135 100q28 0 38 -11q-59 -59 -79.5 -91.5t-20.5 -60.5q0 -43 54 -43q30 0 57 15q3 -7 3 -17q0 -24 -11 -44z" />
<glyph horiz-adv-x="500" d="M442 285h-384q-8 28 -8 64q0 37 8 64h384q8 -27 8 -64q0 -36 -8 -64z" />
<glyph horiz-adv-x="1000" d="M942 285h-884q-8 28 -8 64q0 37 8 64h884q8 -27 8 -64q0 -36 -8 -64z" />
<glyph horiz-adv-x="302" d="M169 163l-148 186l150 186q20 15 53 15q39 0 53 -17l-86 -178l86 -191q-14 -16 -52 -16q-36 0 -56 15z" />
<glyph horiz-adv-x="302" d="M280 349l-149 -186q-20 -15 -53 -15q-40 0 -54 16l86 179l-86 190q14 17 52 17t56 -15z" />
<glyph horiz-adv-x="500" d="M250 651h8q44 0 85 -27q4 6 4 15q0 26 -28 41q34 -13 34 -43q0 -5 -1 -11t-1 -7q3 0 11 10t10 17q2 -8 2 -11q0 -5 -1 -11l-1 -7q9 0 14 -1q0 -2 -17 -21.5t-34 -52.5t-17 -68q0 -31 16 -64q-1 -5 -39 -20t-41 -20q-23 10 -29.5 17t-11.5 17.5t-20 23.5q-58 41 -58 94 q0 33 25 83l6 63q2 29 20 36v-2q-1 -3 -1 -4q0 -23 17 -40q-1 7 -1 21q0 15 5 18q2 -37 12 -47q-1 5 -1 14q0 18 9 27q2 -11 11 -25.5t13 -14.5zM349 -177l-10 -8q-65 28 -65 138q0 90 58 221q-31 61 -51 93q-12 19 -18 24.5t-17 5.5h-5q-3 0 -3 4q0 3 4 4q29 8 39 8 q15 0 26 -24l39 -83q48 107 93 141q2 2 6 2q8 0 14 -2v-4q-63 -52 -105 -154q46 -90 71 -133q11 -19 18 -26t18 -8q3 0 3 -4q0 -6 -3 -6q-7 0 -34 3q-14 2 -20.5 8.5t-16.5 26.5l-49 106q-38 -105 -38 -193q0 -99 46 -140zM117 -248v4q47 60 67 153t20 172 q0 107 -27.5 159.5t-69.5 52.5q1 -23 9 -110q9 -97 9 -130q0 -24 -6 -28q-28 -18 -51 -18q-3 0 -3 2q0 8 4 8q16 2 21.5 10t5.5 35q0 26 -7.5 102.5t-13.5 108.5q-2 8 -3.5 11.5t-5 6t-9.5 2.5q-1 0 -4 -0.5t-5 -0.5q-3 0 -3 6q0 4 3 4q8 0 30.5 3.5t34.5 3.5q55 0 88 -49.5 t33 -156.5q0 -86 -27 -184.5t-73 -164.5q-3 -3 -6 -3t-11 1zM293 552l-1 -7q0 -1 5.5 -2.5t14.5 -3.5t14 -4q27 57 27 72q-49 18 -100 18q-3 0 -3 -3q0 -7 5 -12q-40 15 -49 39q0 -7 5.5 -18.5t10.5 -20.5l6 -9q-40 19 -45 64q-6 -4 -14 -49q-1 -8 -7 -21.5t-7 -17.5 q5 10 15 19q22 -4 29 -11t9 -22h6q13 0 23 -4q5 12 10 16t17 4q3 0 23 -2q6 -9 6 -25zM280 530v8q0 37 -17 37q-22 0 -22 -40q0 -41 19 -41q16 0 18 26q-1 -2 -7 -2q-8 0 -8 9q0 12 8 17q4 0 4 -4q0 -5 -4 -9q1 -3 5 -3q2 0 4 2zM190 532q-6 -2 -7 -2q-9 0 -9 8q0 5 4 11.5 t7 6.5q5 -1 5 -4q0 -6 -5 -8q0 -4 8 -4q3 10 3 19q0 29 -19 29q-23 0 -23 -44q0 -27 17 -27q13 0 19 15zM177 455l6 -6q26 -22 33 -39q6 -14 12 -19.5t23 -9.5q13 1 71 31q-12 32 -12 66q0 21 14 50l-33 -3q-1 -2 -3 -9.5t-4 -12.5t-7 -10t-12 -6q-29 0 -37 50q-3 16 -13 16 q-6 0 -9 -3v-13q0 -10 -8.5 -25t-13.5 -30q1 -10 10.5 -13.5t26.5 -4.5t23 -2q-1 -4 -16 -4q-34 0 -54 13q4 12 9.5 25t8.5 20.5t4 14.5q-9 -23 -21 -23q-10 0 -19 10.5t-9 28.5v9q-2 -10 -2 -23q0 -50 32 -78zM307 569q-3 10 -9 14t-17 5t-13 2q10 2 22 2q20 0 20 -12 q0 -5 -3 -11zM210 590q-3 1 -13.5 6t-16.5 5q-8 0 -13 -5q3 11 12 11q10 0 31 -17zM281 455v4q-4 2 -12 4l-12 3q7 1 17 1q24 0 24 -17q0 -4 -2 -6q-4 11 -9 13q2 -2 2 -7q0 -13 -14.5 -22.5t-41.5 -9.5h-8q27 4 41.5 14.5t14.5 22.5z" />
<glyph horiz-adv-x="621" d="M572 699q0 -52 -19 -117v-560q0 -106 -54.5 -163t-130.5 -57q-27 0 -49 8q-24 28 -24 92q54 5 72 31t18 95v671h187zM261 699v-699h-230q-7 22 -7 46q0 50 27 70h46v466h-66q-8 26 -8 48q0 47 28 69h210z" />
<glyph horiz-adv-x="629" d="M364 50v314h-139v-207q0 -30 13.5 -43.5t43.5 -13.5q22 0 36 8v-10q0 -47 -29 -77.5t-82 -30.5q-137 0 -137 147v227h-55q-5 23 -5 42q0 42 22 64h38v80q46 59 115 59q26 0 43 -10l-6 -129h142q6 114 72 187.5t168 73.5q64 0 95 -24q3 -11 3 -29q0 -51 -21 -87 q-26 10 -66 10q-34 0 -63 -9q-33 -30 -33 -122h102q6 -22 6 -44q0 -43 -22 -62h-86v-230q0 -94 11 -124q-45 -20 -85 -20q-42 0 -61.5 14t-19.5 46z" />
<glyph horiz-adv-x="636" d="M624 108v-10q0 -47 -32 -77.5t-91 -30.5q-137 0 -137 147v227h-139v-207q0 -30 13.5 -43.5t43.5 -13.5q22 0 36 8v-10q0 -47 -29 -77.5t-82 -30.5q-137 0 -137 147v227h-55q-5 23 -5 42q0 42 22 64h38v73q45 59 115 59q25 0 43 -9l-6 -123h142v98q46 59 115 59 q26 0 43 -10l-6 -147h105q5 -25 5 -44q0 -43 -21 -62h-86v-207q0 -30 14 -43.5t48 -13.5q27 0 43 8z" />
</font>
</defs>
</svg>
